<svg xmlns="http://www.w3.org/2000/svg" width="600" height="300" viewBox="0 0 600 300">
  <defs>
    <style>
      .cls-1 {
        opacity: 0.1;
      }

      .cls-2 {
        fill: #f5efeb;
      }

      .cls-3 {
        opacity: 0.2;
      }

      .cls-4 {
        opacity: 0.4;
      }

      .cls-5 {
        opacity: 0.5;
      }

      .cls-6 {
        opacity: 0.6;
      }

      .cls-7 {
        opacity: 0.7;
      }

      .cls-8 {
        opacity: 0.9;
      }
    </style>
  </defs>
  <title>CYT_static_illo</title>
  <g id="_404" data-name="404">
    <g id="_10_" data-name="10%" class="cls-1">
      <path class="cls-2" d="M548.68,158.7c2.11.2,3.72.06,4.52-1.22s-1.1-5.65-3.87-9q-4.67-5.56-10.57-6.11a3.68,3.68,0,0,0-3.09,1.21,5,5,0,0,0-1.48,3q-.32,3.47,2.95,7.24a14,14,0,0,0,9.5,4.68Z"/>
      <path class="cls-2" d="M556.21,117.24a7.82,7.82,0,0,0,1.72-3.78,2.3,2.3,0,0,0-.9-2.29,8.67,8.67,0,0,0-3-.56A19.71,19.71,0,0,0,542,113c-3.13,1.71-4.81,3.81-5,6.34a7.73,7.73,0,0,0,.82,3.81c.65,1.44,1.39,2.2,2.23,2.27C545.75,125.94,550.61,123.69,556.21,117.24Z"/>
      <path class="cls-2" d="M556.75,133a11.13,11.13,0,0,0,9.25,1.53c2.93-.82,5.92-.48,7.06-2.47a5.53,5.53,0,0,0,.67-3.29,8.78,8.78,0,0,0-2.41-4.47q-4.41-2.88-10.79-1-5.71,1.75-7.52,4.88l-.16.28c0,1.32.8,2.49,2.38,3.52Z"/>
      <path class="cls-2" d="M556.25,138.1a7.5,7.5,0,0,0-2.53,1.29,2.18,2.18,0,0,0-1.09,1.85,7.05,7.05,0,0,0,1.17,2.34,14,14,0,0,0,7.7,6.07c2.74.92,5.81,1.29,7.63-.1a11.17,11.17,0,0,0,2.77-3.23,4.72,4.72,0,0,0,.25-3.65C569.59,138.77,563.44,137.68,556.25,138.1Z"/>
      <path class="cls-2" d="M558.66,158.79a1.09,1.09,0,0,0,.61-.79,1.2,1.2,0,0,0-.43-1,1.89,1.89,0,0,0-1.14-.53,1.48,1.48,0,0,0-1,.25,1,1,0,0,0-.48.74,1.67,1.67,0,0,0,1.36,1.61A1.74,1.74,0,0,0,558.66,158.79Z"/>
      <path class="cls-2" d="M564.1,112.73a1.06,1.06,0,0,0,.61-.79,1.2,1.2,0,0,0-.43-1,1.84,1.84,0,0,0-1.14-.53,1.44,1.44,0,0,0-1,.25,1,1,0,0,0-.49.74,1.41,1.41,0,0,0,.39,1,1.51,1.51,0,0,0,1,.58A1.74,1.74,0,0,0,564.1,112.73Z"/>
      <path class="cls-2" d="M577.93,144a1.1,1.1,0,0,0,.61-.8,1.2,1.2,0,0,0-.44-1,1.79,1.79,0,0,0-1.14-.53,1.44,1.44,0,0,0-1,.24,1,1,0,0,0-.48.75,1.67,1.67,0,0,0,1.36,1.6A1.75,1.75,0,0,0,577.93,144Z"/>
      <path class="cls-2" d="M578.8,132.92a1.09,1.09,0,0,0,.61-.79,1.22,1.22,0,0,0-.44-1,1.84,1.84,0,0,0-1.14-.53,1.45,1.45,0,0,0-1,.25,1,1,0,0,0-.48.74,1.67,1.67,0,0,0,1.36,1.61A1.74,1.74,0,0,0,578.8,132.92Z"/>
      <path class="cls-2" d="M537.42,137l-3.19,1.92a4.32,4.32,0,0,0-1.88,2.42l-1.38,4.5c-1,3.12-4.47,4.22-7.33,2.19a7.59,7.59,0,0,1-2.52-8s2.44-4.45,2.7-7.74-1.29-8.6-1.29-8.6c-.58-1.9,1.16-6.3,4.75-6.9,3.33-.55,5.39.85,5.83,4.81l.69,4.07a4.32,4.32,0,0,0,1.4,2.72l2.85,2C539.89,131.54,539.89,135.48,537.42,137Z"/>
    </g>
    <g id="_20_" data-name="20%" class="cls-3">
      <path class="cls-2" d="M473.47,209.42c2.07.45,3.69.51,4.64-.66s-.41-5.75-2.75-9.41q-4-6.09-9.76-7.34a3.66,3.66,0,0,0-3.21.83,5,5,0,0,0-1.84,2.81c-.48,2.26.2,4.77,2.06,7.54a14,14,0,0,0,8.86,5.8Z"/>
      <path class="cls-2" d="M486,169.17a7.71,7.71,0,0,0,2.17-3.55,2.3,2.3,0,0,0-.62-2.38,8.82,8.82,0,0,0-2.93-.92,19.74,19.74,0,0,0-12.19.92c-3.32,1.32-5.24,3.21-5.77,5.69a7.71,7.71,0,0,0,.35,3.87c.47,1.51,1.12,2.35,2,2.53C474.52,176.54,479.61,174.9,486,169.17Z"/>
      <path class="cls-2" d="M484.59,184.9a11.11,11.11,0,0,0,9,2.64c3-.47,5.93.23,7.31-1.6a5.54,5.54,0,0,0,1.06-3.19A8.75,8.75,0,0,0,500.1,178q-4-3.41-10.6-2.28c-3.92.69-6.6,2-8.05,3.93l-.2.26c-.14,1.31.5,2.57,1.94,3.79Z"/>
      <path class="cls-2" d="M483.48,189.88a7.44,7.44,0,0,0-2.67,1,2.19,2.19,0,0,0-1.31,1.7,7,7,0,0,0,.89,2.47A14,14,0,0,0,487.3,202c2.6,1.25,5.61,2,7.58.82a11,11,0,0,0,3.14-2.87,4.65,4.65,0,0,0,.68-3.59C496.64,192.15,490.66,190.33,483.48,189.88Z"/>
      <path class="cls-2" d="M483.37,210.72a1.07,1.07,0,0,0,.7-.72,1.17,1.17,0,0,0-.31-1,1.88,1.88,0,0,0-1.07-.67,1.47,1.47,0,0,0-1,.13,1,1,0,0,0-.57.68,1.66,1.66,0,0,0,1.16,1.76A1.72,1.72,0,0,0,483.37,210.72Z"/>
      <path class="cls-2" d="M494.33,165.64a1,1,0,0,0,.7-.71,1.17,1.17,0,0,0-.31-1,1.88,1.88,0,0,0-1.07-.67,1.47,1.47,0,0,0-1,.13,1,1,0,0,0-.57.68,1.42,1.42,0,0,0,.26,1.08,1.44,1.44,0,0,0,.89.68A1.69,1.69,0,0,0,494.33,165.64Z"/>
      <path class="cls-2" d="M504.28,198.34a1.06,1.06,0,0,0,.7-.71,1.19,1.19,0,0,0-.31-1,1.81,1.81,0,0,0-1.07-.66,1.47,1.47,0,0,0-1,.13,1,1,0,0,0-.57.68,1.44,1.44,0,0,0,.26,1.07,1.48,1.48,0,0,0,.9.69A1.73,1.73,0,0,0,504.28,198.34Z"/>
      <path class="cls-2" d="M506.48,187.46a1.06,1.06,0,0,0,.7-.71,1.19,1.19,0,0,0-.31-1,1.81,1.81,0,0,0-1.07-.66,1.47,1.47,0,0,0-1,.13,1,1,0,0,0-.57.68,1.4,1.4,0,0,0,.26,1.07,1.49,1.49,0,0,0,.89.69A1.75,1.75,0,0,0,506.48,187.46Z"/>
      <path class="cls-2" d="M464.92,186.5l-3.4,1.52a4.31,4.31,0,0,0-2.16,2.17l-1.91,4.31c-1.33,3-4.95,3.65-7.54,1.29a7.61,7.61,0,0,1-1.54-8.26s3-4.12,3.62-7.36-.25-8.69-.25-8.69c-.34-2,1.92-6.12,5.55-6.27,3.37-.15,5.25,1.48,5.21,5.47l.19,4.13a4.3,4.3,0,0,0,1.07,2.87l2.58,2.34C468,181.4,467.55,185.3,464.92,186.5Z"/>
    </g>
    <g id="_40_" data-name="40%" class="cls-4">
      <path class="cls-2" d="M410.7,156.57c2.11-.1,3.69-.46,4.3-1.84s-1.88-5.45-5.08-8.37q-5.4-4.86-11.32-4.57a3.66,3.66,0,0,0-2.89,1.62,4.92,4.92,0,0,0-1,3.2q.16,3.46,3.93,6.75a14,14,0,0,0,10.06,3.31Z"/>
      <path class="cls-2" d="M412.36,114.47a7.93,7.93,0,0,0,1.18-4,2.31,2.31,0,0,0-1.21-2.14,8.89,8.89,0,0,0-3.07-.13,19.65,19.65,0,0,0-11.54,4c-2.86,2.13-4.24,4.45-4.11,7a7.74,7.74,0,0,0,1.34,3.66c.85,1.33,1.69,2,2.54,1.94C403.22,124.54,407.72,121.64,412.36,114.47Z"/>
      <path class="cls-2" d="M415.1,130a11.13,11.13,0,0,0,9.37.23c2.8-1.23,5.79-1.3,6.65-3.44a5.45,5.45,0,0,0,.2-3.34,8.69,8.69,0,0,0-3-4.09q-4.77-2.24-10.82.53-5.42,2.53-6.76,5.88l-.13.31q.3,1.95,2.85,3.15Z"/>
      <path class="cls-2" d="M415.32,135.11a7.68,7.68,0,0,0-2.33,1.63,2.18,2.18,0,0,0-.82,2,7,7,0,0,0,1.49,2.15,13.91,13.91,0,0,0,8.47,4.93c2.84.54,5.93.47,7.54-1.16a11.11,11.11,0,0,0,2.29-3.58,4.73,4.73,0,0,0-.26-3.65C428.62,133.91,422.37,133.69,415.32,135.11Z"/>
      <path class="cls-2" d="M420.59,155.27a1.09,1.09,0,0,0,.5-.87,1.22,1.22,0,0,0-.57-.91,1.8,1.8,0,0,0-1.2-.37,1.49,1.49,0,0,0-.93.38,1,1,0,0,0-.37.81,1.39,1.39,0,0,0,.53,1,1.43,1.43,0,0,0,1,.43A1.73,1.73,0,0,0,420.59,155.27Z"/>
      <path class="cls-2" d="M419.55,108.9A1.1,1.1,0,0,0,420,108a1.2,1.2,0,0,0-.57-.91,1.8,1.8,0,0,0-1.2-.37,1.52,1.52,0,0,0-.93.38,1,1,0,0,0-.37.81,1.43,1.43,0,0,0,.53,1,1.48,1.48,0,0,0,1,.43A1.86,1.86,0,0,0,419.55,108.9Z"/>
      <path class="cls-2" d="M437.6,137.92a1.08,1.08,0,0,0,.49-.88,1.16,1.16,0,0,0-.56-.9,1.84,1.84,0,0,0-1.2-.37,1.44,1.44,0,0,0-.93.38,1,1,0,0,0-.38.81,1.47,1.47,0,0,0,.53,1,1.5,1.5,0,0,0,1,.43A1.83,1.83,0,0,0,437.6,137.92Z"/>
      <path class="cls-2" d="M436.92,126.84a1.07,1.07,0,0,0,.49-.87,1.19,1.19,0,0,0-.57-.91,1.8,1.8,0,0,0-1.2-.37,1.54,1.54,0,0,0-.93.38,1,1,0,0,0-.37.81,1.43,1.43,0,0,0,.53,1,1.44,1.44,0,0,0,1,.43A1.79,1.79,0,0,0,436.92,126.84Z"/>
      <path class="cls-2" d="M396.52,136.63l-2.9,2.35a4.32,4.32,0,0,0-1.52,2.66l-.74,4.65c-.51,3.22-3.84,4.81-6.95,3.19a7.58,7.58,0,0,1-3.61-7.58s1.79-4.74,1.59-8-2.49-8.34-2.49-8.34c-.83-1.8.28-6.4,3.74-7.49,3.22-1,5.47.09,6.45,4l1.25,3.93a4.34,4.34,0,0,0,1.77,2.5l3.1,1.6C398.2,130.9,398.75,134.8,396.52,136.63Z"/>
    </g>
    <g id="_50_" data-name="50%" class="cls-5">
      <path class="cls-2" d="M342,172c2.11.12,3.68.49,4.29,1.88s-1.94,5.43-5.17,8.32q-5.44,4.81-11.36,4.47a3.69,3.69,0,0,1-2.88-1.66,4.87,4.87,0,0,1-1-3.2c.13-2.31,1.47-4.55,4-6.71A14,14,0,0,1,340,171.88Z"/>
      <path class="cls-2" d="M343.26,214.12a7.77,7.77,0,0,1,1.14,4,2.26,2.26,0,0,1-1.23,2.12,8.82,8.82,0,0,1-3.07.11,19.7,19.7,0,0,1-11.5-4.15q-4.26-3.22-4-7a7.67,7.67,0,0,1,1.38-3.64q1.28-2,2.55-1.92C334.22,204,338.68,206.9,343.26,214.12Z"/>
      <path class="cls-2" d="M346.15,198.6a11.12,11.12,0,0,1,9.37-.14c2.78,1.25,5.78,1.36,6.62,3.5a5.49,5.49,0,0,1,.17,3.35,8.86,8.86,0,0,1-3.05,4.06q-4.8,2.19-10.82-.64-5.38-2.58-6.71-5.95l-.11-.3q.3-1.95,2.88-3.12Z"/>
      <path class="cls-2" d="M346.42,193.5a7.54,7.54,0,0,1-2.31-1.65,2.2,2.2,0,0,1-.81-2,7.16,7.16,0,0,1,1.51-2.14,14,14,0,0,1,8.52-4.85c2.85-.5,5.94-.41,7.52,1.24a10.8,10.8,0,0,1,2.26,3.61,4.67,4.67,0,0,1-.3,3.64C359.7,194.83,353.46,195,346.42,193.5Z"/>
      <path class="cls-2" d="M352.45,171.75a1.13,1.13,0,0,1,.49.88,1.19,1.19,0,0,1-.58.9,1.89,1.89,0,0,1-1.2.36,1.45,1.45,0,0,1-.93-.39,1,1,0,0,1-.36-.81,1.35,1.35,0,0,1,.53-1,1.42,1.42,0,0,1,1.05-.43A1.75,1.75,0,0,1,352.45,171.75Z"/>
      <path class="cls-2" d="M350.39,219.76a1,1,0,0,1,.49.87,1.19,1.19,0,0,1-.58.9,1.8,1.8,0,0,1-1.2.36,1.45,1.45,0,0,1-.93-.39,1,1,0,0,1-.36-.81,1.4,1.4,0,0,1,.54-1,1.42,1.42,0,0,1,1-.43A1.71,1.71,0,0,1,350.39,219.76Z"/>
      <path class="cls-2" d="M368.93,190.16a1.1,1.1,0,0,1,.49.88,1.22,1.22,0,0,1-.58.9,1.83,1.83,0,0,1-1.21.35,1.44,1.44,0,0,1-.92-.39,1,1,0,0,1-.37-.81,1.4,1.4,0,0,1,.54-1,1.45,1.45,0,0,1,1.05-.42A1.75,1.75,0,0,1,368.93,190.16Z"/>
      <path class="cls-2" d="M367.91,203.41a1.13,1.13,0,0,1,.49.88,1.22,1.22,0,0,1-.58.9,1.9,1.9,0,0,1-1.21.36,1.5,1.5,0,0,1-.92-.39,1,1,0,0,1-.37-.81,1.67,1.67,0,0,1,1.59-1.39A1.75,1.75,0,0,1,367.91,203.41Z"/>
      <path class="cls-2" d="M328,192.59l-2.87-2.37a4.35,4.35,0,0,1-1.5-2.67l-.69-4.66c-.48-3.23-3.79-4.85-6.92-3.26a7.6,7.6,0,0,0-3.69,7.54s1.75,4.77,1.52,8.06-2.56,8.31-2.56,8.31c-.86,1.8.21,6.41,3.66,7.53,3.21,1,5.47,0,6.49-3.88l1.29-3.93a4.29,4.29,0,0,1,1.79-2.48l3.11-1.56C329.66,198.34,330.25,194.44,328,192.59Z"/>
    </g>
    <g id="_60_" data-name="60%" class="cls-6">
      <path class="cls-2" d="M275.06,157.29c2.11-.15,3.68-.54,4.26-1.93s-2-5.41-5.28-8.26q-5.51-4.74-11.42-4.31a3.71,3.71,0,0,0-2.85,1.69,4.91,4.91,0,0,0-1,3.22c.16,2.31,1.53,4.53,4.09,6.66A14,14,0,0,0,273,157.44Z"/>
      <path class="cls-2" d="M275.75,115.16a7.88,7.88,0,0,0,1.09-4,2.32,2.32,0,0,0-1.26-2.12,9.1,9.1,0,0,0-3.08-.06,19.71,19.71,0,0,0-11.44,4.3q-4.21,3.28-3.95,7.08a7.82,7.82,0,0,0,1.43,3.62c.88,1.32,1.73,1.94,2.58,1.88C266.85,125.44,271.27,122.44,275.75,115.16Z"/>
      <path class="cls-2" d="M278.85,130.64a11.12,11.12,0,0,0,9.37,0c2.77-1.29,5.76-1.44,6.57-3.59a5.5,5.5,0,0,0,.13-3.35,8.81,8.81,0,0,0-3.11-4q-4.81-2.13-10.81.79c-3.57,1.76-5.77,3.78-6.62,6l-.12.31c.23,1.29,1.2,2.32,2.93,3.08Z"/>
      <path class="cls-2" d="M279.18,135.73a7.4,7.4,0,0,0-2.28,1.69,2.17,2.17,0,0,0-.78,2,6.82,6.82,0,0,0,1.54,2.12,13.93,13.93,0,0,0,8.58,4.73c2.85.47,5.94.33,7.51-1.34A11.13,11.13,0,0,0,296,141.3a4.68,4.68,0,0,0-.35-3.64C292.45,134.22,286.2,134.15,279.18,135.73Z"/>
      <path class="cls-2" d="M284.92,155.76a1.09,1.09,0,0,0,.48-.88,1.23,1.23,0,0,0-.59-.9,1.81,1.81,0,0,0-1.21-.33,1.38,1.38,0,0,0-.92.4,1,1,0,0,0-.36.81,1.43,1.43,0,0,0,.56,1,1.48,1.48,0,0,0,1.05.41A1.74,1.74,0,0,0,284.92,155.76Z"/>
      <path class="cls-2" d="M282.81,109.42a1.09,1.09,0,0,0,.47-.88,1.19,1.19,0,0,0-.59-.89,1.82,1.82,0,0,0-1.21-.34,1.51,1.51,0,0,0-.92.4,1,1,0,0,0-.35.82,1.68,1.68,0,0,0,1.6,1.36A1.73,1.73,0,0,0,282.81,109.42Z"/>
      <path class="cls-2" d="M301.53,138a1.1,1.1,0,0,0,.47-.88,1.23,1.23,0,0,0-.59-.9,1.81,1.81,0,0,0-1.21-.33,1.41,1.41,0,0,0-.92.4,1,1,0,0,0-.35.81,1.66,1.66,0,0,0,1.6,1.36A1.71,1.71,0,0,0,301.53,138Z"/>
      <path class="cls-2" d="M300.59,127a1.1,1.1,0,0,0,.47-.88,1.2,1.2,0,0,0-.59-.9,1.81,1.81,0,0,0-1.21-.33,1.41,1.41,0,0,0-.92.4,1,1,0,0,0-.35.81,1.66,1.66,0,0,0,1.6,1.36A1.71,1.71,0,0,0,300.59,127Z"/>
      <path class="cls-2" d="M260.42,137.69l-2.84,2.41a4.32,4.32,0,0,0-1.46,2.69l-.63,4.67c-.44,3.23-3.72,4.89-6.87,3.35a7.57,7.57,0,0,1-3.79-7.49s1.68-4.79,1.4-8.08-2.67-8.27-2.67-8.27c-.88-1.79.12-6.41,3.56-7.58,3.2-1.09,5.47,0,6.54,3.79l1.34,3.91a4.32,4.32,0,0,0,1.83,2.46l3.13,1.52C262,131.92,262.61,135.8,260.42,137.69Z"/>
    </g>
    <g id="_70_" data-name="70%" class="cls-7">
      <path class="cls-2" d="M200.74,166.61c2.11.12,3.68.5,4.29,1.88s-1.94,5.43-5.17,8.33q-5.45,4.8-11.36,4.46a3.67,3.67,0,0,1-2.88-1.66,4.87,4.87,0,0,1-1-3.2c.13-2.31,1.46-4.54,4-6.71a14.05,14.05,0,0,1,10.09-3.22Z"/>
      <path class="cls-2" d="M202,208.73a7.87,7.87,0,0,1,1.14,4,2.33,2.33,0,0,1-1.23,2.13,9.21,9.21,0,0,1-3.07.1,19.7,19.7,0,0,1-11.5-4.15c-2.85-2.15-4.19-4.48-4.05-7a7.89,7.89,0,0,1,1.38-3.64c.86-1.33,1.71-2,2.55-1.92C193,198.57,197.42,201.51,202,208.73Z"/>
      <path class="cls-2" d="M204.89,193.21a11.12,11.12,0,0,1,9.37-.14c2.78,1.25,5.78,1.36,6.62,3.5a5.49,5.49,0,0,1,.17,3.35A8.86,8.86,0,0,1,218,204q-4.8,2.19-10.82-.64-5.38-2.58-6.71-5.94l-.12-.31q.32-2,2.88-3.12Z"/>
      <path class="cls-2" d="M205.15,188.11a7.5,7.5,0,0,1-2.3-1.65,2.19,2.19,0,0,1-.81-2,6.85,6.85,0,0,1,1.51-2.15,14,14,0,0,1,8.52-4.84c2.84-.51,5.93-.42,7.52,1.23a10.91,10.91,0,0,1,2.26,3.61,4.67,4.67,0,0,1-.3,3.64C218.44,189.44,212.19,189.6,205.15,188.11Z"/>
      <path class="cls-2" d="M211.19,166.37a1.06,1.06,0,0,1,.48.87,1.2,1.2,0,0,1-.57.9,1.84,1.84,0,0,1-1.21.36,1.44,1.44,0,0,1-.92-.39,1,1,0,0,1-.37-.81,1.4,1.4,0,0,1,.54-1,1.46,1.46,0,0,1,1.05-.43A1.74,1.74,0,0,1,211.19,166.37Z"/>
      <path class="cls-2" d="M209.13,214.37a1.1,1.1,0,0,1,.49.87,1.25,1.25,0,0,1-.58.91,1.89,1.89,0,0,1-1.21.35,1.44,1.44,0,0,1-.92-.39,1,1,0,0,1-.37-.81,1.4,1.4,0,0,1,.54-1,1.45,1.45,0,0,1,1-.42A1.75,1.75,0,0,1,209.13,214.37Z"/>
      <path class="cls-2" d="M227.67,184.77a1.08,1.08,0,0,1,.48.88,1.2,1.2,0,0,1-.57.9,1.83,1.83,0,0,1-1.21.35,1.49,1.49,0,0,1-.92-.38,1,1,0,0,1-.37-.81,1.42,1.42,0,0,1,.54-1,1.45,1.45,0,0,1,1-.42A1.78,1.78,0,0,1,227.67,184.77Z"/>
      <path class="cls-2" d="M226.65,198a1.06,1.06,0,0,1,.48.87,1.2,1.2,0,0,1-.57.9,1.9,1.9,0,0,1-1.21.36,1.42,1.42,0,0,1-.92-.39,1,1,0,0,1-.37-.81,1.4,1.4,0,0,1,.54-1,1.42,1.42,0,0,1,1-.43A1.73,1.73,0,0,1,226.65,198Z"/>
      <path class="cls-2" d="M186.77,187.2l-2.87-2.37a4.35,4.35,0,0,1-1.5-2.67l-.69-4.66c-.49-3.23-3.79-4.84-6.92-3.26a7.59,7.59,0,0,0-3.69,7.54s1.75,4.77,1.52,8.06-2.57,8.31-2.57,8.31c-.85,1.8.21,6.41,3.67,7.53,3.21,1,5.46,0,6.48-3.88l1.29-3.93a4.35,4.35,0,0,1,1.8-2.48l3.11-1.56C188.4,193,189,189.06,186.77,187.2Z"/>
    </g>
    <g id="_90_" data-name="90%" class="cls-8">
      <path class="cls-2" d="M125,148.82c2.12-.1,3.69-.46,4.31-1.83s-1.88-5.45-5.09-8.38q-5.4-4.86-11.32-4.57a3.69,3.69,0,0,0-2.89,1.62,4.91,4.91,0,0,0-1,3.2q.16,3.46,3.93,6.75a14,14,0,0,0,10.06,3.31Z"/>
      <path class="cls-2" d="M126.64,106.72a7.93,7.93,0,0,0,1.18-4,2.31,2.31,0,0,0-1.21-2.14,8.89,8.89,0,0,0-3.07-.13,19.62,19.62,0,0,0-11.54,4c-2.87,2.13-4.24,4.45-4.11,7a7.74,7.74,0,0,0,1.34,3.66c.84,1.33,1.69,2,2.53,1.94C117.5,116.79,122,113.89,126.64,106.72Z"/>
      <path class="cls-2" d="M129.38,122.26a11.13,11.13,0,0,0,9.37.23c2.79-1.22,5.79-1.3,6.65-3.43a5.49,5.49,0,0,0,.2-3.35,8.69,8.69,0,0,0-3-4.09q-4.77-2.24-10.82.53-5.42,2.53-6.77,5.88l-.12.31q.3,1.95,2.85,3.15Z"/>
      <path class="cls-2" d="M129.6,127.36a7.68,7.68,0,0,0-2.33,1.63,2.19,2.19,0,0,0-.82,2,7.09,7.09,0,0,0,1.49,2.16,13.94,13.94,0,0,0,8.47,4.92c2.84.54,5.93.47,7.53-1.16a11,11,0,0,0,2.3-3.58,4.68,4.68,0,0,0-.27-3.65C142.9,126.16,136.65,125.94,129.6,127.36Z"/>
      <path class="cls-2" d="M134.87,147.52a1.09,1.09,0,0,0,.5-.87,1.22,1.22,0,0,0-.57-.91,1.84,1.84,0,0,0-1.2-.37,1.49,1.49,0,0,0-.93.38,1,1,0,0,0-.38.81,1.44,1.44,0,0,0,.54,1,1.42,1.42,0,0,0,1,.43A1.76,1.76,0,0,0,134.87,147.52Z"/>
      <path class="cls-2" d="M133.83,101.15a1.1,1.1,0,0,0,.49-.87,1.22,1.22,0,0,0-.57-.91,1.8,1.8,0,0,0-1.2-.37,1.49,1.49,0,0,0-.93.38,1,1,0,0,0-.37.81,1.39,1.39,0,0,0,.53,1,1.43,1.43,0,0,0,1,.43A1.79,1.79,0,0,0,133.83,101.15Z"/>
      <path class="cls-2" d="M151.88,130.17a1.07,1.07,0,0,0,.49-.87,1.15,1.15,0,0,0-.57-.91,1.8,1.8,0,0,0-1.2-.37,1.54,1.54,0,0,0-.93.38,1,1,0,0,0-.37.81,1.43,1.43,0,0,0,.53,1,1.5,1.5,0,0,0,1,.43A1.83,1.83,0,0,0,151.88,130.17Z"/>
      <path class="cls-2" d="M151.2,119.09a1.1,1.1,0,0,0,.49-.87,1.22,1.22,0,0,0-.57-.91,1.8,1.8,0,0,0-1.2-.37,1.49,1.49,0,0,0-.93.38,1,1,0,0,0-.37.81,1.39,1.39,0,0,0,.53,1,1.44,1.44,0,0,0,1,.43A1.79,1.79,0,0,0,151.2,119.09Z"/>
      <path class="cls-2" d="M110.79,128.89l-2.89,2.34a4.28,4.28,0,0,0-1.52,2.66l-.74,4.65c-.51,3.22-3.84,4.81-7,3.19a7.6,7.6,0,0,1-3.62-7.58s1.8-4.74,1.6-8-2.49-8.33-2.49-8.33c-.83-1.81.28-6.41,3.74-7.49,3.22-1,5.46.08,6.45,3.94l1.25,3.93a4.31,4.31,0,0,0,1.77,2.5l3.1,1.6C112.48,123.15,113,127.05,110.79,128.89Z"/>
    </g>
    <g id="_100_" data-name="100%">
      <path class="cls-2" d="M49.07,162c2.12.12,3.69.49,4.29,1.87s-1.93,5.44-5.17,8.33q-5.44,4.81-11.36,4.47A3.67,3.67,0,0,1,34,175a4.94,4.94,0,0,1-1-3.2q.21-3.47,4-6.71A14,14,0,0,1,47,161.86Z"/>
      <path class="cls-2" d="M50.33,204.09a7.73,7.73,0,0,1,1.14,4,2.29,2.29,0,0,1-1.23,2.13,8.8,8.8,0,0,1-3.07.11,19.7,19.7,0,0,1-11.5-4.15q-4.26-3.23-4-7A7.67,7.67,0,0,1,33,195.52q1.27-2,2.55-1.92C41.29,193.94,45.76,196.88,50.33,204.09Z"/>
      <path class="cls-2" d="M53.23,188.58a11.12,11.12,0,0,1,9.37-.14c2.78,1.25,5.78,1.36,6.61,3.5a5.49,5.49,0,0,1,.17,3.35,8.79,8.79,0,0,1-3,4.06q-4.78,2.19-10.82-.64-5.38-2.58-6.7-6l-.12-.3q.31-2,2.88-3.12Z"/>
      <path class="cls-2" d="M53.49,183.48a7.67,7.67,0,0,1-2.31-1.65,2.2,2.2,0,0,1-.81-2,7.26,7.26,0,0,1,1.52-2.14,14,14,0,0,1,8.51-4.85c2.85-.5,5.94-.41,7.53,1.24a11.13,11.13,0,0,1,2.26,3.61,4.68,4.68,0,0,1-.3,3.64C66.78,184.81,60.53,185,53.49,183.48Z"/>
      <path class="cls-2" d="M59.53,161.73a1.09,1.09,0,0,1,.48.88,1.19,1.19,0,0,1-.58.9,1.85,1.85,0,0,1-1.2.36,1.45,1.45,0,0,1-.93-.39,1,1,0,0,1-.36-.81,1.68,1.68,0,0,1,1.58-1.39A1.81,1.81,0,0,1,59.53,161.73Z"/>
      <path class="cls-2" d="M57.47,209.74a1.06,1.06,0,0,1,.48.87,1.2,1.2,0,0,1-.57.9,1.9,1.9,0,0,1-1.21.36,1.44,1.44,0,0,1-.92-.39,1,1,0,0,1-.37-.81,1.4,1.4,0,0,1,.54-1,1.42,1.42,0,0,1,1-.43A1.73,1.73,0,0,1,57.47,209.74Z"/>
      <path class="cls-2" d="M76,180.14a1,1,0,0,1,.49.87,1.19,1.19,0,0,1-.58.91,1.79,1.79,0,0,1-1.2.35,1.45,1.45,0,0,1-.93-.39,1,1,0,0,1-.36-.81,1.4,1.4,0,0,1,.54-1,1.44,1.44,0,0,1,1-.42A1.75,1.75,0,0,1,76,180.14Z"/>
      <path class="cls-2" d="M75,193.39a1.1,1.1,0,0,1,.49.88,1.19,1.19,0,0,1-.58.9,1.8,1.8,0,0,1-1.2.35,1.49,1.49,0,0,1-.93-.38,1,1,0,0,1-.36-.81A1.68,1.68,0,0,1,74,192.94,1.75,1.75,0,0,1,75,193.39Z"/>
      <path class="cls-2" d="M35.1,182.57l-2.87-2.37a4.29,4.29,0,0,1-1.49-2.67l-.7-4.66c-.48-3.23-3.79-4.85-6.92-3.26a7.59,7.59,0,0,0-3.68,7.54s1.75,4.77,1.51,8.06-2.56,8.31-2.56,8.31c-.86,1.8.21,6.4,3.67,7.53,3.21,1,5.46,0,6.48-3.88l1.29-3.93a4.29,4.29,0,0,1,1.79-2.48l3.12-1.56C36.74,188.32,37.32,184.42,35.1,182.57Z"/>
    </g>
  </g>
</svg>
