<svg id="lightbg" xmlns="http://www.w3.org/2000/svg" viewBox="0 0 340 345">
  <defs>
    <style>
      .cls-1 {
        opacity: 0.4;
      }

      .cls-2 {
        fill: #4d8061;
      }

      .cls-3 {
        fill: #1e3a29;
      }
    </style>
  </defs>
  <title>CoverYourTracks_logo</title>
  <g id="paw" class="cls-1">
    <path class="cls-2" d="M91.7,279.15c35.31,21.68,22.8,52,53.44,61.89,35.45,11.39,58.27-7.35,69.62-16.88,11.58-9.73,25.06-24.71,20.2-58.52-8.26-23.62-4.86-33.16-15.43-50.74-6.36-11.39-14.95-26.06-31.77-40.78s-39.82-35.81-66.13-38.92c-20.68-2.44-35.27,7.69-47.24,6.42-14-1.47-22.12-10.88-38.76-9.88-25.79,4.58-34,33.46-32.81,50.41,1.46,20.61-5.68,45.17,13.49,66C41.66,275.59,60.39,260.76,91.7,279.15Z"/>
    <path class="cls-2" d="M296.89,261.74c8.48-15.07,15.33-48.92,8.74-55.3-2.72-2.63-17.52,5.43-25.62,9.93-14.13,7.85-28.46,13.25-31.81,33.7-1.31,8,2.26,19.85,8.12,27.81,3.71,5.05,13.79,9.76,20.46,7.32C287.65,281.23,288.76,275.85,296.89,261.74Z"/>
    <path class="cls-2" d="M131.62,73.13c-5.55,7.52-15.38,19.21-18.53,34.09-1,15.29,3.93,15.39,14.07,19,8.66,3.09,25.7,10.89,34.85,1.87,10.47-10.33,8.94-16.5,17-33.47C189.08,73.34,212.12,55.37,209,50.82c-3.27-4.7-17.86-8.66-40.23-2.24C158.17,51.61,139.93,61.87,131.62,73.13Z"/>
    <path class="cls-2" d="M212.75,78.86c-13.54,14-38,36.54-41.12,57.72-1.61,10.93,6.67,19.13,20.66,28.47,16.59,11.08,21.18,7.62,32.89,0,16.38-10.67,42.38-47.16,50.38-69.23,6.45-17.8,5.34-34.28.75-39-3.23-3.3-11.94-3.45-27.33.48C236.28,60.56,222.43,70.37,212.75,78.86Z"/>
    <path class="cls-2" d="M295.53,187.4c9.57-17.87,13-66.14,0-72.55-9.95-4.92-33,33-51,48.67-7.71,6.73-16.51,12.68-25.37,19.31s18.13,31.95,37.83,32C274.19,215,288.69,200.17,295.53,187.4Z"/>
    <path class="cls-2" d="M75.26,58.1C58.72,68.39,48,78.61,45.62,98c.15,11.08,1.27,18.26,10.59,25.79,13.87,8.25,30.54,8.54,41.11-6.38,7.81-13.87,3.49-7.27,20.64-44.05,3.58-7.68,14.86-20,8.89-25.7C121.51,42.56,90.42,49.53,75.26,58.1Z"/>
    <path class="cls-2" d="M131.51,32l28.66-14.26c7.08-3.34,13.29,2.21,5.25,7.48S141.24,44.9,141.24,44.9a3.56,3.56,0,0,1-4.6.81l-9.3-4.08C125.11,40.29,127,35.15,131.51,32Z"/>
    <path class="cls-2" d="M199.72,36.25l49.74-32.4c4.69-2.58,4.7,2.64,3.29,5l-23.59,28.6c-1.61,2.66-7.57,8.19-11.17,7l-17.64-4.1A2.41,2.41,0,0,1,199.72,36.25Z"/>
    <path class="cls-2" d="M291.8,53.83l21-48a3.87,3.87,0,0,0-6.25-4.29L267.21,39.48a3.87,3.87,0,0,0,2.16,6.64l6,.78a12.06,12.06,0,0,1,6.37,3.27L286,54.32C287.21,56,290.64,56.64,291.8,53.83Z"/>
    <path class="cls-2" d="M310,114l10.26-53.68c1.06-2.44-1.76-6.16-5.06-1.1l-26.77,44.67c-1.55,3.87,7.4,1.89,11.48,4.38C303.34,110.36,307.88,118,310,114Z"/>
    <path class="cls-2" d="M318.55,206.83l9.56-45.31a2.07,2.07,0,0,0-3.77-1.54L303,193.5a2.07,2.07,0,0,0,1.1,3.08l5.59,1.81a2.1,2.1,0,0,1,1.23,1.07l3.79,7.84A2.06,2.06,0,0,0,318.55,206.83Z"/>
  </g>
  <g id="text">
    <path class="cls-3" d="M69.77,135.92c-.22.14-.29.5-.65.58a5.33,5.33,0,0,0-.73.65c-.36.15-.65.43-1.08.58s-.8.36-1.17.58c-.21.15-.51.44-.79.36-.15.37-.59.22-.8.44a8.55,8.55,0,0,1-1.17.65c-.21.29-.65.15-.79.58a17.73,17.73,0,0,1-1.89.58c-.22.22-.58.08-.8.29s-.87,0-1.09.44a3.82,3.82,0,0,1-2,.36,18,18,0,0,1-1.89.37,6.74,6.74,0,0,1-1.16.21c-1.74.08-3.48.29-5.23.22-.43-.36-.94,0-1.45,0s-1-.29-1.52,0a2.63,2.63,0,0,1-1.67-.51c-.51-.21-1.16-.14-1.67-.5a4.66,4.66,0,0,1-1.45-.29c-.51.07-.8-.3-1.24-.3a5.72,5.72,0,0,0-1.52-.65c-.29.15-.51-.07-.73-.07a1.55,1.55,0,0,1-.43-.29c-.8-.36-1.53-.87-2.25-1.24-.37-.07-.66-.21-1-.29-.51-.36-.87-.87-1.45-1.23a1.56,1.56,0,0,0-.65-.51,4.08,4.08,0,0,0-1.24-1,9.94,9.94,0,0,0-1.74-1.75,27.43,27.43,0,0,1-2.83-3c-.29-.37-.22-.87-.58-1.16-.14-.29-.29-.51-.44-.8s-.21-.73-.65-.87c-.07-.66-.65-1-.87-1.53s-.44-.65-.44-1.09c-.14-.14-.14-.36-.21-.58-.37-.36-.08-.94-.44-1.38,0-.58-.8-.87-.72-1.52-.08-.58-.66-1.09-.51-1.74a9.18,9.18,0,0,0-.37-1.31c-.21-.44,0-1.09-.21-1.52a2.25,2.25,0,0,0-.15-.66c-.22-.87.22-1.74,0-2.68a5,5,0,0,0,.07-1.09l.08-.07c-.29-.66.07-1.24,0-2v-.08c0-.58.36-1.16.21-1.88a.77.77,0,0,0,.15-.44,6.15,6.15,0,0,1,.36-1.6,6.53,6.53,0,0,1,.29-1.09c.22-.72.51-1.45.73-2.17.07-.37.14-.66.22-1s.5-.51.5-.87c.37-.58.22-1.31.8-1.74.08-.37.44-.58.51-.95.44-.87,1.45-1.52,1.82-2.46,0-.37.5-.59.5-1a9.18,9.18,0,0,0,1.17-1.24c.21-.14.43-.36.65-.36a.92.92,0,0,1,.43-.36c.44-.51.95-.94,1.31-1.38,0-.22.15-.15.22-.22a3,3,0,0,1,1-.87c.5-.36,1-1.09,1.66-1.16a4.59,4.59,0,0,0,1-.58c.36,0,.58-.29.87-.36.29-.37.73-.37,1.09-.59.65-.87,1.53-.87,2.25-1.45.29,0,.58-.22.87-.22.65-.14,1.16-.43,1.82-.58.65-.65,1.67-.43,2.54-.72.36-.36,1.09-.15,1.45-.36.22.07.36-.08.51-.15A4.23,4.23,0,0,0,46.91,85c.36.07.65-.14,1-.22a6.68,6.68,0,0,1,1.67-.07c.22-.07.44.07.73.15a21.68,21.68,0,0,1,3.12.07,10.56,10.56,0,0,1,1.67.29c.29,0,.51,0,.65.14.58.22,1.24,0,1.75.22.87.22,1.74.51,2.61.65a.43.43,0,0,0,.43.22c.37.15.58.51,1,.51.07.14.22.07.36.14s.37.37.66.3c.29.21.72.21,1.09.43.14.22.36.22.58.29s.36.22.58.29a10.15,10.15,0,0,1,2,1.45c.29.08.51.37.87.44s.29.58.65.8l.87.8c.29.07.36.43.58.58a1.24,1.24,0,0,1,.51,1.16c-.29.58-.29,1.31-.87,1.74,0,.22-.36.22-.36.51a2.78,2.78,0,0,0-.87,1,7.63,7.63,0,0,1-1,1.16c-.29.5-.87.72-1.16,1.23a6.44,6.44,0,0,0-1.16.8c0,.58-.73.72-1.09.94a3.62,3.62,0,0,1-1.09.58c-.43-.07-.72.08-1.16,0-.07.15-.15.08-.22,0a6.41,6.41,0,0,1-1.3-.58c-.37-.58-1-.51-1.53-.94-.43,0-.58-.65-1.09-.58-.22-.22-.58-.07-.87-.29-.29,0-.43-.29-.73-.22s-.79-.36-1.16-.36l-.07-.08a12.36,12.36,0,0,1-2.32-.21c-.29-.29-.8.07-1.09-.22a2.1,2.1,0,0,1-1.31,0c-.65-.22-1,.51-1.67.29-.51.22-1-.07-1.52.22-.29-.08-.58.21-.94.21a1.5,1.5,0,0,1-.73.44c-.36.22-.65.22-.94.44L44,99.69c-.07.15-.36.08-.5.15-.37.07-.66.51-1,.65s-.51.36-.8.36l-.87.44c-.36.22-.87.44-.94.94-.22.08-.58,0-.58.37-.07.07-.07.29-.22.36-.44.51-1.38.8-1.6,1.6,0,.07-.14.14-.14.21l-.07.08V105c-.95.58-1,1.6-1.67,2.33-.22.36-.3.87-.51,1.23s-.08.73-.29,1.09a5.06,5.06,0,0,0-.51,2.76c-.29.65-.07,1.38-.29,2.1a1.25,1.25,0,0,0,.14.73,4.8,4.8,0,0,0,.37,2.32c-.08.44.36.73.21,1.16.22.29.15.66.22,1a13.26,13.26,0,0,0,.66,1.38c.43.5.58,1.23,1.16,1.74a4.05,4.05,0,0,1,.94,1.52,4.4,4.4,0,0,0,1,.73c.36.43.94.51,1.23,1,.22.66.73.87,1.24,1.24.58.14,1,.72,1.59.87.36.36.95.43,1.38.65.15,0,.29.15.44.22a9.5,9.5,0,0,0,2.1.36,13.75,13.75,0,0,0,2.47.22c.07.15.14,0,.22,0a1.15,1.15,0,0,1,.51.07c.43-.14.87,0,1.37-.14a16.81,16.81,0,0,0,2.69-.22c.22-.22.58-.22.87-.29.58-.36,1.31-.29,1.82-.73a1.24,1.24,0,0,1,.5-.07c.95-.65,1.67-1.6,2.84-1.81a2.29,2.29,0,0,1,1.45-1c.29-.15.51-.44.87-.29s.58.58,1,.58a3.55,3.55,0,0,1,1.17.87,2.65,2.65,0,0,1,.58.66,2.48,2.48,0,0,0,1,.87c.15.43.58.58.8,1a6.13,6.13,0,0,1,1.67,1.38c.22.36.73.44,1,.87.22.07.22.37.51.37a8.49,8.49,0,0,1,1.08,1.23c.08.29.51.51.37.94C71.3,134.68,70.43,135.26,69.77,135.92Z"/>
    <path class="cls-3" d="M129.6,119.68c-.15.28-.07.64-.15.92.08.64-.35,1.14-.35,1.78a1.62,1.62,0,0,1-.22.86c.08.35-.42.5-.28.85-.07.07-.07.22-.21.29.07.35-.22.5-.29.78,0,.43-.43.71-.43,1.14-.07.64-.64,1.07-.71,1.71a5,5,0,0,0-.71,1.78c-.29.36-.5.86-.78,1.28,0,.43-.57.64-.57,1.14s-.43.43-.5.79c-.29.14-.36.57-.64.78s-.29.36-.43.57-.5.28-.57.64a4.58,4.58,0,0,0-1,1.07c-.42.07-.71.43-1,.57s-.5.35-.65.64-.56.57-.78.85c-.28-.07-.35.29-.57.36-.43.28-.78.43-1.21.71a4,4,0,0,0-1.28.93,2.17,2.17,0,0,0-1,.42c-.35,0-.5.36-.85.29-.43.14-.71.71-1.21.71a5.72,5.72,0,0,1-1.14.43,8.33,8.33,0,0,0-2,.78c-.28.15-.64-.07-.85.29a6.77,6.77,0,0,1-1.07.42,13.76,13.76,0,0,0-1.64.36c-.28.07-.5.07-.78.14s-.5,0-.79.15a10.69,10.69,0,0,1-1.49.21c-.64.07-1.28,0-2,.07-.65-.14-1.36.14-2-.07-.71.21-1.42-.14-2.06-.07-.29-.21-.79-.14-1.14-.29-.57-.21-1.14.08-1.64-.21a7.1,7.1,0,0,0-1.64-.43,5.66,5.66,0,0,1-1.71-.71,1.45,1.45,0,0,0-.64-.14,3,3,0,0,0-.71-.29c-.14-.14-.29-.14-.43-.28a13,13,0,0,0-1.71-.86c-.57-.28-1.07-.78-1.57-1.06-.07-.22-.28-.15-.35-.29-.22-.14-.43-.14-.5-.36-.29-.14-.36-.49-.64-.57-.5-.14-.93-.64-1.43-.85-.21-.29-.49-.43-.71-.71a2.48,2.48,0,0,1-.85-.57c-.22-.43-.79-.43-.86-.93-.5-.64-1.28-1.07-1.64-1.85a4.21,4.21,0,0,1-.64-.85,7.07,7.07,0,0,0-.71-1c-.07-.36-.43-.5-.5-.86a3.31,3.31,0,0,0-.42-.57c-.08-.56-.65-.85-.65-1.42-.14-.28-.42-.36-.35-.71-.14-.29-.43-.5-.43-.79-.28-.28-.21-.71-.5-1.06,0-.15-.21-.22-.14-.43-.21-.29-.21-.78-.43-1.07h.07c-.14-.14-.07-.28-.14-.36-.21-.42-.57-.78-.57-1.28a9.29,9.29,0,0,1-.35-1.49c-.15-.29.07-.79-.15-1a20.44,20.44,0,0,1-.21-2.07l-.21-.28v-4.92l.07-.07c.14-.57,0-1.06.14-1.63-.07-.79.21-1.57.21-2.36.15-.14,0-.49.22-.63a5.2,5.2,0,0,1,.42-1.5c0-.43.36-.78.36-1.21l.14-.43a8.82,8.82,0,0,1,.43-1.14,7.35,7.35,0,0,1,.71-1.71c.07,0,0-.07.07-.14.5-.36.5-.93.86-1.43.07-.28.43-.49.5-.78.57-.5.5-1.35,1.14-1.78a6,6,0,0,0,1.06-1.64,3,3,0,0,0,.72-.92c.42-.43.85-.64,1.21-1.07a1.66,1.66,0,0,0,.71-.86c.28-.28.64-.28.93-.71s.64-.28.85-.64c.36-.21.85-.36,1.07-.71.21.07.28-.14.5-.21.35-.22.64-.65,1.14-.72.28,0,.42-.35.71-.35a4.25,4.25,0,0,1,.85-.43c.29-.07.5-.29.79-.29a3,3,0,0,1,.49-.28c.08,0,.15-.07.29-.14a14.46,14.46,0,0,0,1.42-.71c.5-.36,1.14-.22,1.71-.5.57,0,1.07-.36,1.71-.36s1-.35,1.5-.5c.85-.21,1.78-.07,2.71-.35l1.7-.08c.08.15.29,0,.36.15l.21-.07a9.41,9.41,0,0,1,2.85.14c.15-.07.43-.14.57,0a6.35,6.35,0,0,1,1.14.21,1,1,0,0,0,.64.07c.15.15.43,0,.57.08a3.68,3.68,0,0,0,.86.14,1.83,1.83,0,0,1,.57.07c.21.28.64.07.92.28a8.89,8.89,0,0,0,1.28.5c.36,0,.65.29,1.07.36s.5.28.86.28c.43.22.78.64,1.28.71.07.22.29,0,.36.22.42,0,.64.5,1.06.43.36.21.65.42,1,.64.14,0,.21.21.43.21.36.21.57.64,1,.78.28.43.85.57,1.14,1a11.25,11.25,0,0,1,1.28,1.21,22.31,22.31,0,0,1,1.92,1.71c.5.71,1.35,1.28,1.71,2.14.21.14.43.28.43.57.42.42.71.92,1.07,1.35.14.71.85,1.21,1.21,1.85a20,20,0,0,0,1.14,2.21,1.45,1.45,0,0,0,.57,1.07c.14.64.42,1.21.49,1.78a.88.88,0,0,1,.29.92c.14.15.07.36.21.5s.22.5.29.79a3.19,3.19,0,0,1,.28,1.42c.07.07,0,.29.07.36a12.77,12.77,0,0,0,.36,1.64c.07,1.78,0,3.41,0,5.27A4,4,0,0,0,129.6,119.68Zm-13.89-3.85c-.14-.07,0-.14-.07-.21.35-.07-.07-.36.14-.5a2.41,2.41,0,0,1,0-1c-.21-.57-.14-1.35-.36-1.92.15-.71-.42-1.21-.49-1.85-.29-.43-.5-.93-.79-1.43-.21-.21-.21-.57-.5-.71A26.88,26.88,0,0,0,111,105c-.36,0-.64-.36-.93-.64-.21-.65-1-.79-1.42-1.22a20.51,20.51,0,0,1-2.21-1.06c-.57-.15-1.14-.36-1.78-.57-.14-.22-.43,0-.64-.15-.78.15-1.35-.42-2.07-.14l-.42-.07a8.31,8.31,0,0,0-2.28-.07c-.29.14-.57,0-.86.21-.35-.07-.78.22-1.14-.07-.21.07-.5,0-.64.29-.57-.08-.78.57-1.35.42-.43.64-1.14.5-1.57,1a5.22,5.22,0,0,0-1.35.78c-.36.36-.78.57-1.21.93s-.71.78-1.07,1.21a5.92,5.92,0,0,0-1.5,2c-.28.28-.35.64-.57.92-.07.29-.28.5-.28.85-.21.08-.21.29-.29.43a2.81,2.81,0,0,0-.42,1.28.73.73,0,0,1-.15.57c0,.57-.35,1.07-.21,1.64a4.17,4.17,0,0,0-.14,2.07,7.43,7.43,0,0,0,.07,1.28c0,.29-.14.57.07.78-.21.86.43,1.43.43,2.21a1.17,1.17,0,0,1,.28.5c-.14.5.43.57.29,1.07.28.28.28.71.64.92a6.25,6.25,0,0,0,1,1.43l.42.64c.36.71,1.29.85,1.43,1.64.57.21.92.71,1.42,1s.93,1,1.5,1.29a2.44,2.44,0,0,0,1.28.64,6.32,6.32,0,0,0,1.85.85,4.92,4.92,0,0,0,1.5.36c.14.28.5.07.64.28.57-.07,1.07.36,1.64.15a10.74,10.74,0,0,0,3.06-.22c.57.07,1-.28,1.5-.35.42-.36,1.06-.29,1.49-.57s1.14-.29,1.57-.79c.21.07.35-.28.57-.28.28-.43.71-.5,1.06-.86.36-.14.5-.57.86-.71.71-.14,1-1,1.64-1.42.14-.07.07-.29.28-.29.22-.43.72-.78.86-1.21-.14-.5.35-.64.5-1a5.25,5.25,0,0,1,.28-1c.07-.29.29-.64.36-1a4.32,4.32,0,0,0,.5-1.28c.14-.22.28-.57.14-.79.14-.28,0-.57.14-.78-.07-.85.28-1.57.07-2.35Z"/>
    <path class="cls-3" d="M182.61,88.91c-.13.43-.55.79-.46,1.29s-.41.8-.4,1.22a5.09,5.09,0,0,0-.6,1.73,4.54,4.54,0,0,0-.38,1.72c-.41.79-.6,1.72-1,2.52a10.44,10.44,0,0,1-.47,1.36c-.06.29-.27.58-.26.87s-.27.64-.19,1a1.44,1.44,0,0,0-.2.36c-.2.57-.69,1-.67,1.65-.06.43-.27.65-.26,1.08-.06.22-.06.43-.27.51v.21c-.14,0-.13.15-.13.22-.21.22-.06.43-.27.64a10.41,10.41,0,0,1-.73,1.88,11.63,11.63,0,0,0-1,2.8,5.56,5.56,0,0,0-.4,1.15c-.35.29,0,.93-.39,1.22a8,8,0,0,0-.4,1.29,2.74,2.74,0,0,1-.19.72,7.25,7.25,0,0,1-.68,1.59c-.18,1-.66,1.87-.78,2.8a2.26,2.26,0,0,1-.54,1.08c-.06.28-.34.51-.34.79a18,18,0,0,0-1,3.16,7.51,7.51,0,0,1-.94,2.45,11.47,11.47,0,0,0-.32,1.5,1,1,0,0,1-.33.65c-.26,1.08-.66,2.09-1,3.16-.27.65-.47,1.37-.8,2.09,0,.5-.41.94-.46,1.44a1.56,1.56,0,0,1-.27.79c0,.35-.27.58-.26.93-.21.22-.13.5-.34.72,0,.22-.2.43-.19.72-.21.15-.2.5-.34.79a2.17,2.17,0,0,0-.19.72c0,.28-.28.43-.2.79-.34.58-.39,1.22-.8,1.8.15.42-.42.58-.41.94-.27.5-.77.37-1.12.67a19.66,19.66,0,0,1-3,.07c-.78.1-1.63.54-2.49.21a13.6,13.6,0,0,0-2.35.13,13,13,0,0,0-2.35.06l-1.28.11c-.07-.14-.28-.06-.43-.06-.14-.28-.5-.35-.58-.63-.22-.06-.22-.35-.37-.42a3.5,3.5,0,0,1-.53-1.12c-.29-.28-.23-.64-.45-.84-.37-.71-.39-1.56-1-2.19a5.64,5.64,0,0,1-.53-1.41c-.38-.77-.68-1.55-1.06-2.25-.09-.78-.67-1.34-.91-2.12a9.38,9.38,0,0,1-.61-1.4,5,5,0,0,1-.37-.78c-.65-.48-.6-1.27-.84-2-.36-.49-.39-1.27-.75-1.76a10,10,0,0,0-.61-1.48c-.3-.42-.31-.85-.67-1.2-.15-.14-.09-.49-.31-.63a7.94,7.94,0,0,0-.45-1.2c-.51-.34-.25-1.06-.68-1.48-.09-.78-.67-1.12-.76-1.9-.15-.21-.09-.5-.38-.56-.07-.14-.08-.36-.15-.57a3,3,0,0,0-.38-.63c-.29-.49-.45-1.06-.75-1.62a9,9,0,0,1-.83-1.9c-.15-.35-.52-.7-.46-1.06a11.49,11.49,0,0,1-.45-1.13c-.37-.34-.38-.84-.68-1.19a2.59,2.59,0,0,1-.23-.64,6.1,6.1,0,0,1-.45-1c-.29-.42-.31-1.06-.61-1.41-.15-.64-.45-1.06-.61-1.62a3.26,3.26,0,0,1-.37-.78,9.16,9.16,0,0,1-.69-1.76c-.24-1.06-1.12-2-1.43-3.1-.3-.28-.24-.78-.53-1a6,6,0,0,0-.53-1.2,8.05,8.05,0,0,0-.91-2.26,4.91,4.91,0,0,1-.68-1.4c-.22-.21-.23-.57-.45-.85a5,5,0,0,0-.38-.91,23.72,23.72,0,0,1-1-2.9,3.38,3.38,0,0,1-.1-1.21c.07,0,.06-.07.06-.21a1.91,1.91,0,0,1,1.27-.39,7.79,7.79,0,0,1,2.28-.2c.15.21.43.06.57.12,1.07.12,2.2-.2,3.28-.15.92,0,1.92,0,2.84,0,.94.19,1.85-.41,2.78-.08a1.49,1.49,0,0,1,.94.34,4.15,4.15,0,0,1,.75,1.76,4.5,4.5,0,0,1,.53,1.05,5.87,5.87,0,0,0,.46,1.2c0,.36.3.63.38,1s.38.84.53,1.27c.36.13.16.56.52.7,0,.21.22.35.3.56s0,.57.23.78c0,.14.15.21.23.35l.08.71c.3.49.6.91.89,1.33,0,.78.75,1.26.48,2a9.78,9.78,0,0,1,1,2,4.53,4.53,0,0,0,.38.85c.08.28.3.49.38.84s.22.42.3.63.15.57.37.78a6.17,6.17,0,0,0,.46,1c.23.78.81,1.26,1,2.12.17,1.13.9,2,1.07,3.1.23.35.24.78.53,1.06s.08.42.3.56.16.49.3.63a2.56,2.56,0,0,0,.39,1.06c.29.28.23.78.6,1.13.14.21.08.56.3.77a12.38,12.38,0,0,0,.76,1.69c.08.36.37.63.45,1s.51.63.38,1.13c.09.42.38.7.46,1.13s.37.56.38.91a.89.89,0,0,0,.58.41,1,1,0,0,0,.78-.3c.27-.44.25-1.08.6-1.58,0-.5.4-.8.39-1.22l.8-2.31c.35-.15.27-.64.47-.93a15.12,15.12,0,0,0,.46-1.65.08.08,0,0,0,.07-.08,3.94,3.94,0,0,0,.32-1.22c-.07-.28.28-.43.2-.71a5.7,5.7,0,0,0,.8-2.16,7.43,7.43,0,0,0,.39-1.15c.22,0,.07-.22.14-.36s.06-.29.13-.36c.35-.37,0-.86.33-1.22a13.37,13.37,0,0,1,.45-1.58,2.44,2.44,0,0,0,.54-1.15c.15,0,.14-.15.21-.3a3.5,3.5,0,0,0,.26-.93,1.35,1.35,0,0,0,.34-.86,8.77,8.77,0,0,0,.73-1.73.81.81,0,0,1,.2-.57c0-.29.2-.51.2-.79a.41.41,0,0,0,.2-.37c.35-.29.19-.78.4-1.15.05-.71.54-1.22.52-2a5,5,0,0,1,.66-1.73c-.07-.21.14-.36.13-.57s.21-.37.2-.58c.13-.57.62-1,.74-1.66.13-.43.41-.86.54-1.37a7.08,7.08,0,0,0,.39-1.15c-.07-.21.21-.28.13-.57.14-.14,0-.35.2-.5.35-.51.47-1,1-1.38.28-.44.92-.45,1.49-.54.5.06,1.2-.17,1.57.17a5.33,5.33,0,0,1,2.35-.06c.72.34,1.27-.32,2-.26l.42-.08c1.43,0,2.64,0,4.06,0a6.31,6.31,0,0,1,.94.4c.08.29.51.56.16.93v.28C182.67,88.48,182.75,88.76,182.61,88.91Z"/>
    <path class="cls-3" d="M229,143.1c-.08.29,0,.57-.22.78a2.3,2.3,0,0,1-1.86.42,4,4,0,0,0-2.28,0c-1.35-.09-2.7,0-4-.11a6.08,6.08,0,0,1-2,0,11.85,11.85,0,0,1-2.28-.09c-.21-.21-.49-.07-.78-.15-2.13-.23-4.21.47-6.12,0H209l-1.57-.09c-.14.07-.36.07-.57.14a22.43,22.43,0,0,0-3.06,0c-1.07,0-2.21.05-3.28,0-.21-.07-.5,0-.71-.07a16.7,16.7,0,0,1-1.71-.23c-.35-.22-.64.21-1,.06l-.15-.07c-1.06-.08-2.21.05-3.2,0-1.14-.37-2.35,0-3.49-.17l-.07-.07c-.5-.08-1-.08-1.49-.16-1.14-.15-2.36.26-3-.81-.28-.57,0-1.21-.2-1.78.08-.57-.13-1.21.16-1.71.16-1.49,0-3.28.26-4.84-.14-.5.08-1.07-.21-1.5a18.52,18.52,0,0,0,.11-3.49,3.22,3.22,0,0,0,.08-1.63,15.53,15.53,0,0,0,.16-1.93c.14-.21.08-.56.15-.78s.15-.57-.06-.85a24.63,24.63,0,0,0,0-3.21c0-.78,0-1.64.1-2.42.14-.35,0-.64,0-1.07a17.88,17.88,0,0,1,.1-3.27c-.13-1-.19-2-.25-3a10.49,10.49,0,0,1,.1-4c0-.07-.07-.22.08-.29-.07-.28-.14-.57.07-.78a4,4,0,0,1,.16-1.85,1.56,1.56,0,0,1-.06-1c.15-.57-.28-1.07,0-1.64-.07-.21.08-.42-.13-.64l0-2.63c-.35-.51.08-1.28-.2-1.79-.2-1.28.24-2.63.11-3.91,0-.93-.13-1.93-.05-2.92.43-.21.43-.71.44-1.14s.43-.35.5-.71a2.77,2.77,0,0,1,1.36-.48c1.85.08,3.7,0,5.63,0,.49.29,1.07-.13,1.63,0a15.35,15.35,0,0,0,1.79,0c.49,0,.92.23,1.35,0,1.42.29,2.85-.26,4.2.1h1l.14.15h1.14c.28.21.71.07,1,.15.79-.14,1.5,0,2.21-.13.07,0,.07.08.07,0h.07a10.29,10.29,0,0,1,1.57,0h.14a15.34,15.34,0,0,0,2.57.17c1.13.22,2.35-.06,3.41.17a19.37,19.37,0,0,0,2.14-.13,5.61,5.61,0,0,0,1-.13c1.49.16,3.06,0,4.63,0,.36-.14.78.15,1.14,0a2.42,2.42,0,0,1,.71.22c.21.07.57,0,.78.22.36-.07.5.29.78.36a.63.63,0,0,0,.42.43c.28.36.21.79.42,1.15a.64.64,0,0,1-.08.71,24.56,24.56,0,0,0,.18,3.92c-.29.42-.08,1.06-.3,1.56a18.31,18.31,0,0,1-.24,3.42c-.29.57-.15,1.35-.87,1.7a9.54,9.54,0,0,1-1.92.13c-.14-.08-.29.14-.36,0a11.56,11.56,0,0,1-1.56-.08l-.07-.07c-2.36,0-4.7,0-7-.28-1.93.06-3.92-.1-5.84-.12l-2-.09a8.28,8.28,0,0,0-1.86.06c-.92-.15-2-.09-2.84-.24-.36,0-.58.14-.93.13v-.07a5.2,5.2,0,0,0-2.07.41c-.29.35-.58.85-.3,1.28a5.81,5.81,0,0,0,.06,1.5c-.29.42.14,1.07-.29,1.49.2.93-.38,1.92.47,2.57a6.73,6.73,0,0,0,1.42.79l.07.08a40,40,0,0,0,5,.18c.36-.21.93-.06,1.36-.06,1.42.09,2.78,0,4.13.11a18.92,18.92,0,0,1,2.13,0c.15.21.36.07.57.07a13.77,13.77,0,0,0,2.92-.11c1.71-.06,3.35.31,5.06.32a6.29,6.29,0,0,0,1.71.16c.21.22.56.15.78.36.07.08.21.29.28.36.06.64.7,1.08.41,1.86,0,.43-.22.92,0,1.35a23.13,23.13,0,0,1,.11,3.14,18.54,18.54,0,0,0,0,2.7c-.36.71.2,1.71-.45,2.35-.14.14-.29.35-.5.35-.36.07-.57.28-.93.28-.5-.22-.93.27-1.5.13-1.06-.15-2.13-.09-3.2-.17a6.88,6.88,0,0,0-1.28-.08c-1.57.19-3.42-.18-5,0-.57.14-1.13-.15-1.7-.08-1.43.06-2.78,0-4.28-.11a23.76,23.76,0,0,1-4.48-.18c-.36-.15-.79.06-1.14-.15a1.52,1.52,0,0,0-1.5.41c-.22.35-.29.85-.58,1.13a3,3,0,0,0,0,1.36,8.3,8.3,0,0,1,.06,1.78c.06.92-.31,1.85-.1,2.63.07.29,0,.64.21.79,1.27.65,3,0,4.41.39a5.82,5.82,0,0,1,2.21.09,18.4,18.4,0,0,1,2.77.17c2.5.09,5.06,0,7.48.21.28.07.64,0,.85.15.64-.14,1.21.15,1.86,0,1.78,0,3.56-.11,5.34-.24a19.44,19.44,0,0,1,2.84.24c.43.29,1.07.3,1.21.87-.22.49.2,1-.16,1.49.14.86-.15,1.71,0,2.57-.15,1.06.13,2.06,0,3.06.13.5.06,1,.2,1.5C229.27,141.11,229,142.11,229,143.1Z"/>
    <path class="cls-3" d="M285.63,143.32a1.05,1.05,0,0,0-.14.5v.07c-.29.07-.43.29-.71.29a.28.28,0,0,1-.22.07c-.07-.07-.21,0-.35-.07l-.07.07c-.93.14-1.86,0-2.85.14-.5-.07-1.07.14-1.57-.14a4.83,4.83,0,0,0-1.42,0c-.43-.14-.86.07-1.36-.07a2,2,0,0,1-1.42-.07h-1.21a.91.91,0,0,0-.64-.07,21.55,21.55,0,0,1-4.77-.22c-.15-.14-.36-.14-.36-.36-.43-.42-.93-.71-1.36-1.06-.21,0-.21-.22-.42-.29a5,5,0,0,1-.86-.85c-.21-.36-.64-.57-.85-1-.5-.5-1.07-1-1.57-1.57a10.35,10.35,0,0,1-1.64-1.85c-.35-.35-.57-.78-.92-1.14a25.88,25.88,0,0,1-2.14-2.56c-.36-.07-.5-.5-.85-.71s-.29-.43-.5-.57c-.43-.43-.71-1.07-1.21-1.43-.15-.35-.5-.5-.79-.71-.14-.43-.64-.71-.92-1.07a4.71,4.71,0,0,0-1.64-.64c-.86,0-1.64-.43-2.49-.14a1,1,0,0,0-1,.5c0,.14-.21.28-.14.42,0,.36-.36.57-.14.86a24.48,24.48,0,0,0,.07,3.35,2.92,2.92,0,0,0-.07,1.14,4.12,4.12,0,0,0-.15,1.35c.15.28,0,.64,0,.92v.65c-.14.78.07,1.7,0,2.63a1.24,1.24,0,0,1,.15,1c.14.43-.15.92.14,1.28a2.14,2.14,0,0,1-1.07,2c-.14.08-.36.08-.5.22-1.21.07-2.28-.29-3.49,0a8.24,8.24,0,0,1-2.63-.07,23.52,23.52,0,0,1-3.14.07c-.21.07-.42-.07-.64.07-.71,0-1.43-.14-2.07-.14a2.52,2.52,0,0,1-.92-.79c-.43-.71,0-1.64-.14-2.42.14-.28-.08-.71.07-1.07.28-.64.07-1.49.28-2.21,0-.28-.21-.56-.07-.85.07-.85-.07-1.92,0-2.78a.81.81,0,0,0,.07-.57,14.78,14.78,0,0,1,0-2.49c0-2.35-.21-4.42,0-6.62a4.92,4.92,0,0,0-.14-1,36.61,36.61,0,0,1,0-3.92,15.29,15.29,0,0,0,.14-1.85c-.14-.57.07-1.35-.07-1.92,0-.14-.07-.29.07-.36-.07-.43,0-.85-.07-1.28s-.14-.64-.14-1h.07a12,12,0,0,0,.14-2.28c-.07-.64-.14-1.35-.21-2,.14-.29-.07-.57,0-.78a7.64,7.64,0,0,0,.14-1.78,1.21,1.21,0,0,0,0-.86c0-.14-.07-.35,0-.5-.07-.71,0-1.42-.07-2.13.14-.08.07-.22.14-.29v-.21a3.51,3.51,0,0,1,0-1.21l-.07-.07a22.48,22.48,0,0,0,.07-3.07c-.07-.35.07-.78,0-1.14a27.3,27.3,0,0,1-.14-3.34,2.48,2.48,0,0,1,0-1.43,5.81,5.81,0,0,1,.28-2.92c.15-.28.22-.64.36-.92.43-.57,1.14-.22,1.64-.57a16.36,16.36,0,0,1,1.85-.08c.07.15.14.08.22.08a.45.45,0,0,0,.42,0l1.43.07a2.8,2.8,0,0,0,1.06.07c.65-.07,1.29,0,1.86-.07,1.64-.15,3.13.21,4.84.21.07-.07.29,0,.43-.07s.07.07.14.07h.07c.78.07,1.57-.14,2.35-.14.43-.07.86.07,1.21-.07a1.56,1.56,0,0,0,.57,0l.07.07c.86.07,1.71-.36,2.57-.14a3.71,3.71,0,0,0,1.28-.08c.92.15,1.78.15,2.71.22a7.53,7.53,0,0,1,2.84,0c.15,0,.29-.07.43,0,1.28.21,2.35-.07,3.63.14a5.34,5.34,0,0,1,2.35.36c.36,0,.72.14,1.14.14,0,.07.22,0,.29.14a11.76,11.76,0,0,0,1.42.64c.5.29,1.14.29,1.57.57.14,0,.28.14.36.22a2.4,2.4,0,0,0,.85.57c.29.14.43.28.71.42.36.43.86.5,1.07,1a5.63,5.63,0,0,1,1.35,1c.29.14.64.28.72.64.21.64,1,.64,1.21,1.28.28.07.28.36.5.43s.21.5.42.71a6.82,6.82,0,0,0,.36.71c.43.43.5.93.93,1.36a6.92,6.92,0,0,1,.64,1.21,2.71,2.71,0,0,0,.28.64,9.44,9.44,0,0,0,.64,2c.22.14,0,.5.22.64,0,.14.14.29.14.5s-.07.43.14.5a2.13,2.13,0,0,0,.14.71c.22.71.14,1.43.29,2.14a18.86,18.86,0,0,1,0,2,.88.88,0,0,0,0,.86,9.14,9.14,0,0,1-.29,2.06c-.14,1-.35,1.93-.57,2.92-.42.57-.07,1.5-.64,2-.07.35-.21.71-.28,1.07a1.52,1.52,0,0,0-.22.35c-.14.5-.57.86-.78,1.35-.43.29-.43.79-.85,1.07a4.58,4.58,0,0,1-1.5,1.78c-.36.36-.5.79-.93,1s-.35.93-.85.85c-.57.29-1,.79-1.64,1.07-.21.36-.64.07-.85.5-.29.14-.43.43-.79.43a.55.55,0,0,0-.28.28,1.24,1.24,0,0,1-1,.5,1.08,1.08,0,0,0-.85.5v.07c-.07.07,0,.22-.15.22a2,2,0,0,0,.22.92c.21.22.28.57.64.64a9.16,9.16,0,0,1,.64.86c.28.21.43.57.86.71.21.36.85.71,1.06,1.14.72.64.86,1.64,1.78,2.06a7.46,7.46,0,0,1,1.14,1.43c.57.28.71,1,1.29,1.35.21.29.49.57.78.93.21.07.28.5.64.64a4.5,4.5,0,0,1,.85,1.21c.29.14.29.36.57.5s.43.28.64.57c.36.5.93,1,1.36,1.49.21.29.64.43.64.86.14.21.28.5.21.64A.26.26,0,0,0,285.63,143.32Zm-14.39-37.53c-.21-.14-.14-.43-.21-.64s-.28-.5-.35-.78c-.36-.29-.22-.72-.57-.93-.29-.78-1.07-.86-1.5-1.5a2.55,2.55,0,0,1-.64-.28c-.22-.14-.57-.29-.86-.43s-.42,0-.57-.21a7.26,7.26,0,0,1-2.2-.29c-.43-.07-.93,0-1.36-.07a2.93,2.93,0,0,0-1.35,0l-2-.07c-1.79.07-3.35.07-5.13.14-.29-.07-.57.15-.93-.07a11.62,11.62,0,0,0-3.13.22c-.14.07-.22.28-.43.21a1.66,1.66,0,0,0-.35,1.42c-.08.5,0,1.07-.08,1.5a22.39,22.39,0,0,0-.14,3.06,1.87,1.87,0,0,0-.07.86l-.07.14a4.6,4.6,0,0,0,.14,1.71c-.07.14-.21.28-.14.5a4.25,4.25,0,0,0-.07,1.35c.07.21,0,.43.07.57.07.71-.07,1.64.5,2.14a11.57,11.57,0,0,0,3.13.21c.29.21.64-.07.93.07.14,0,.35-.07.42,0,1.14,0,2.28.14,3.35.14,1.43-.35,2.85.22,4.27-.07.79.07,1.5-.28,2.21-.14.29-.29.64,0,.93-.14s.71-.36,1.14-.36.85-.5,1.28-.57c.21.07.21-.28.43-.14.42-.43,1-.36,1.21-1,.5-.14.64-.71,1.14-1,.14-.28.43-.49.5-.85-.22-.21.07-.57.07-.86.21-.21.28-.49.5-.71,0-.5.49-1.06.07-1.56A10.43,10.43,0,0,0,271.24,105.79Z"/>
    <path class="cls-3" d="M81,166.7A9.85,9.85,0,0,0,79.05,169c-.14.93-1.06,1.49-1.35,2.35a16.31,16.31,0,0,0-2,2.64c-.08.28-.43.35-.43.63-.21.08-.29.29-.43.5l-.14.29A9.44,9.44,0,0,1,73.36,177c-.43.42-.43,1.06-1,1.42-.5.78-1.21,1.42-1.71,2.21a6.26,6.26,0,0,0-1,1.64c-.5.35-.57,1-1.14,1.35-.14.57-.85.92-.92,1.5a2,2,0,0,0-.5.64,14,14,0,0,0-1.57,2c-.28.71-1.07,1.21-1.35,1.85a10.39,10.39,0,0,0-1.85,2.49c-1.14,1.14-1.71,2.71-3.07,3.78a7.14,7.14,0,0,0-1.56,2.63,1.15,1.15,0,0,0-.15.72c.08.42-.28.78-.28,1.21-.21.42,0,.85-.07,1.35-.07.78.21,1.64.07,2.42.14.14,0,.29.07.43-.14,1,.21,2.14-.07,3.06a32,32,0,0,0,0,4.49c.14.78-.07,1.57.28,2.21.08.57-.14,1-.07,1.56-.21.22-.07.5,0,.79-.14.57-.07,1.28-.57,1.71a1.12,1.12,0,0,1-.71.57,1.33,1.33,0,0,0-1.07,0c-.14,0-.28.07-.35-.07-1.5-.08-3-.08-4.42-.22-1-.07-1.92.14-2.92.07-.78.15-1.92.43-2.63-.14-.5-.71-1.14-1.35-1.07-2.28-.22-.28-.07-.71-.14-1a3.83,3.83,0,0,1-.15-.57c-.07-.35.15-.57.22-.85.14-.93-.15-1.85-.07-2.78-.08-.5.21-1,.07-1.49.07-.08.07-.29.14-.43a12.94,12.94,0,0,1,.07-2.85c-.07-1.64-.5-3.2-.14-4.77a14.79,14.79,0,0,0,0-2.49,1.56,1.56,0,0,0-.29-1.22c-.07-.14-.28-.28-.28-.49-.79-.29-.5-1.21-1.28-1.57-.22-.43-.72-.78-.86-1.28a2.25,2.25,0,0,0-.5-1.14c-.14-.14-.49-.14-.57-.43-.21-.07-.21-.36-.35-.43-.15-.42-.71-.78-.71-1.28-.08-.14-.22-.21-.22-.43-.21-.35-.64-.49-.78-.92a14.35,14.35,0,0,0-1-1.28c-.64-.72-1.07-1.71-1.78-2.43a20.39,20.39,0,0,0-1.71-2.49,7,7,0,0,0-1.21-1.78,17.9,17.9,0,0,0-1.07-1.49,3.57,3.57,0,0,0-.78-1.14c-.14-.5-.64-.86-1-1.21a5.2,5.2,0,0,0-1.14-1.43c-.14-.5-.78-.78-.85-1.21-.22-.57-.86-.64-1-1.21-.14-.14-.21-.43-.43-.57a10.11,10.11,0,0,1-1.42-2.21.9.9,0,0,1-.43-.5,6.8,6.8,0,0,1-1.14-1.63c-.43-.29-.64-.93-1.21-1.07a6.9,6.9,0,0,0-1.35-1.5,7.8,7.8,0,0,0-1.28-1.71,1.51,1.51,0,0,0-.5-.78c.07-.79-.22-1.78.64-2.14a17.88,17.88,0,0,1,2.06-.14c.22.14.57,0,.79.21h1.21c.5-.07,1,.22,1.49.15.29.21.5-.15.79.07l.07-.07a2.85,2.85,0,0,1,1.14.07h1.28l.14.07c.5-.14,1.14.14,1.64-.14a28,28,0,0,1,3.56.07,1.87,1.87,0,0,0,.86.35c.49.36.78.86,1.28,1.21.14.36.57.57.64.93s.78.78,1,1.35a2.62,2.62,0,0,1,.49.72c1.43,1.13,2.07,2.7,3.21,4a2.54,2.54,0,0,1,.93,1c.21.43.64.71.78,1.21a14.61,14.61,0,0,0,1.49,2.07c.15.42.72.85,1.07,1.21a1.36,1.36,0,0,1,.57.57,14.4,14.4,0,0,1,.79,1.42,3.8,3.8,0,0,0,.57.93c.21.57.78,1,.92,1.56s.86.86.93,1.43c.71.57,1.28,1.78,2.28,1.42.57-.35.71-1.07,1.06-1.56.08-.5.72-.65.79-1.07A26.38,26.38,0,0,1,54.91,179c.5-.21.28-.85.85-1.14.65-.71,1.5-1.28,1.78-2.21.5-.42.5-1.21,1.07-1.49.07-.29.29-.43.36-.72.57-.64.71-1.42,1.35-2.06.14-.36.57-.64.79-1.07.49-.64.85-1.35,1.42-2,.36-.72,1.21-1.21,1.5-1.93a2.13,2.13,0,0,0,.57-1c.42-.57,1.14-.93,1.35-1.57.5-1,1.64-.85,2.49-1.14,1.28-.07,2.49,0,3.85-.14a13.9,13.9,0,0,0,3,.35h.07l.07.08c1,0,1.92-.22,2.92-.15.36-.21.86,0,1.28-.14a5.88,5.88,0,0,1,2.21-.07c.36.14.43.5.71.71s.29.86,0,1.14v.14C82.26,165.42,81.4,165.92,81,166.7Z"/>
    <path class="cls-3" d="M133.76,194.26a4.27,4.27,0,0,0-.14.93c.07.64-.36,1.14-.36,1.78a1.7,1.7,0,0,1-.21.85c.07.36-.43.5-.29.86-.07.07-.07.21-.21.28.07.36-.21.5-.28.79s-.43.71-.43,1.14c-.07.64-.64,1.06-.71,1.7a5,5,0,0,0-.72,1.79c-.28.35-.49.85-.78,1.28,0,.43-.57.64-.57,1.14-.07.35-.43.42-.5.78-.28.14-.35.57-.64.78a2,2,0,0,0-.43.57c-.14.29-.49.29-.57.64a5,5,0,0,0-1,1.07c-.43.07-.72.43-1,.57s-.5.36-.64.64-.57.57-.78.86c-.29-.07-.36.28-.57.35-.43.29-.79.43-1.22.72a4.06,4.06,0,0,0-1.28.92,2.14,2.14,0,0,0-1,.43c-.36,0-.5.36-.86.28-.43.15-.71.72-1.21.72a5.49,5.49,0,0,1-1.14.42,8.43,8.43,0,0,0-2,.79c-.29.14-.64-.07-.86.28a5.7,5.7,0,0,1-1.07.43,11.9,11.9,0,0,0-1.63.36c-.29.07-.5.07-.79.14s-.5,0-.78.14a11.07,11.07,0,0,1-1.5.22c-.64.07-1.28,0-2,.07-.64-.15-1.35.14-2-.07-.71.21-1.42-.15-2.06-.08-.29-.21-.78-.14-1.14-.28-.57-.22-1.14.07-1.64-.22a7.07,7.07,0,0,0-1.64-.42,5.92,5.92,0,0,1-1.71-.71,1.28,1.28,0,0,0-.64-.15,2.83,2.83,0,0,0-.71-.28c-.14-.14-.28-.14-.43-.29a12.84,12.84,0,0,0-1.7-.85c-.58-.29-1.07-.78-1.57-1.07-.07-.21-.29-.14-.36-.28s-.43-.15-.5-.36c-.28-.14-.35-.5-.64-.57-.5-.14-.92-.64-1.42-.86-.22-.28-.5-.42-.71-.71a2.48,2.48,0,0,1-.86-.57c-.21-.42-.78-.42-.85-.92-.5-.64-1.29-1.07-1.64-1.86a3.39,3.39,0,0,1-.64-.85,11.62,11.62,0,0,0-.71-1c-.08-.35-.43-.49-.5-.85a3.16,3.16,0,0,0-.43-.57c-.07-.57-.64-.86-.64-1.43-.14-.28-.43-.35-.36-.71-.14-.28-.43-.5-.43-.78-.28-.29-.21-.71-.49-1.07,0-.14-.22-.21-.15-.43-.21-.28-.21-.78-.42-1.07h.07c-.15-.14-.07-.28-.15-.35-.21-.43-.56-.78-.56-1.28a8.44,8.44,0,0,1-.36-1.5c-.14-.28.07-.78-.14-1a20.57,20.57,0,0,1-.22-2.06l-.21-.29v-4.91l.07-.07c.14-.57,0-1.07.14-1.64-.07-.78.22-1.57.22-2.35.14-.14,0-.5.21-.64a5,5,0,0,1,.43-1.5c0-.42.35-.78.35-1.21l.15-.42a33.72,33.72,0,0,1,1.14-2.85c.07,0,0-.07.07-.15.5-.35.5-.92.85-1.42.07-.29.43-.5.5-.78.57-.5.5-1.36,1.14-1.78a6,6,0,0,0,1.07-1.64,3,3,0,0,0,.71-.93c.43-.43.86-.64,1.21-1.07A1.59,1.59,0,0,0,86,169c.29-.29.64-.29.93-.71s.64-.29.85-.64c.36-.22.86-.36,1.07-.72.22.08.29-.14.5-.21.36-.21.64-.64,1.14-.71.29,0,.43-.36.71-.36a5.75,5.75,0,0,1,.86-.43c.28-.07.5-.28.78-.28a4.18,4.18,0,0,1,.5-.29c.07,0,.14-.07.28-.14a13.56,13.56,0,0,0,1.43-.71c.5-.36,1.14-.21,1.71-.5.57,0,1.07-.35,1.71-.35.5-.15,1-.36,1.49-.5.86-.22,1.78-.07,2.71-.36l1.71-.07c.07.14.28,0,.35.14l.22-.07a9.77,9.77,0,0,1,2.85.14c.14-.07.42-.14.57,0a5.87,5.87,0,0,1,1.14.22,1,1,0,0,0,.64.07c.14.14.42,0,.57.07a3.59,3.59,0,0,0,.85.14,1.8,1.8,0,0,1,.57.07c.21.29.64.07.93.29a10.59,10.59,0,0,0,1.28.5c.36,0,.64.28,1.07.35s.5.29.85.29c.43.21.79.64,1.28.71.07.21.29,0,.36.21.43,0,.64.5,1.07.43.35.21.64.43,1,.64.14,0,.21.21.42.21.36.22.57.65,1,.79.28.43.85.57,1.14,1a9.17,9.17,0,0,1,1.28,1.21,22.31,22.31,0,0,1,1.92,1.71c.5.71,1.36,1.28,1.71,2.13.22.14.43.29.43.57.43.43.71.93,1.07,1.36.14.71.85,1.21,1.21,1.85a21.71,21.71,0,0,0,1.14,2.2,1.43,1.43,0,0,0,.57,1.07c.14.64.43,1.21.5,1.78a.91.91,0,0,1,.28.93c.15.14.07.36.22.5s.21.5.28.78a3.27,3.27,0,0,1,.29,1.43c.07.07,0,.28.07.35a11.29,11.29,0,0,0,.35,1.64c.08,1.78,0,3.42,0,5.27A4,4,0,0,0,133.76,194.26Zm-13.89-3.84c-.14-.07,0-.15-.07-.22.36-.07-.07-.35.14-.5a2.36,2.36,0,0,1,0-1c-.21-.57-.14-1.36-.35-1.93.14-.71-.43-1.21-.5-1.85-.28-.43-.5-.92-.78-1.42-.22-.22-.22-.57-.5-.71a26.89,26.89,0,0,0-2.64-3.21c-.35,0-.64-.36-.92-.64-.22-.64-1-.78-1.43-1.21a22.56,22.56,0,0,1-2.21-1.07c-.56-.14-1.14-.36-1.78-.57-.14-.21-.42,0-.64-.14-.78.14-1.35-.43-2.06-.14l-.43-.08a8.3,8.3,0,0,0-2.28-.07c-.28.15-.57,0-.85.22-.36-.07-.79.21-1.14-.07-.22.07-.5,0-.64.28-.57-.07-.79.57-1.36.43-.42.64-1.14.5-1.56,1a5,5,0,0,0-1.36.78c-.35.35-.78.57-1.21.92s-.71.79-1.07,1.22a5.85,5.85,0,0,0-1.49,2,5.41,5.41,0,0,0-.57.93c-.07.28-.29.49-.29.85-.21.07-.21.28-.28.43a2.64,2.64,0,0,0-.43,1.28.78.78,0,0,1-.14.57c0,.57-.36,1.07-.21,1.64a4,4,0,0,0-.15,2.06,7.38,7.38,0,0,0,.07,1.28c0,.29-.14.57.08.79-.22.85.42,1.42.42,2.21a1.12,1.12,0,0,1,.29.5c-.15.49.43.56.28,1.06.29.29.29.72.64.93a6.52,6.52,0,0,0,1,1.42c.14.22.29.43.43.64.35.72,1.28.86,1.42,1.64a10.43,10.43,0,0,1,1.43,1c.57.36.92,1,1.49,1.28a2.44,2.44,0,0,0,1.28.64,6.29,6.29,0,0,0,1.86.86,5.08,5.08,0,0,0,1.49.35c.14.29.5.07.64.29.57-.07,1.07.35,1.64.14a11.06,11.06,0,0,0,3.06-.21c.57.07,1-.29,1.5-.36.43-.36,1.07-.28,1.49-.57s1.14-.28,1.57-.78c.22.07.36-.29.57-.29.29-.43.71-.5,1.07-.85.36-.14.5-.57.85-.71.72-.15,1-1,1.64-1.43.14-.07.07-.28.29-.28.21-.43.71-.79.85-1.21-.14-.5.36-.65.5-1a4.72,4.72,0,0,1,.29-1c.07-.28.28-.64.35-1a3.76,3.76,0,0,0,.5-1.28c.14-.21.28-.57.14-.78.14-.29,0-.57.14-.78-.07-.86.29-1.57.08-2.35Z"/>
    <path class="cls-3" d="M190.75,167.55a1.51,1.51,0,0,0,0,.79,19.85,19.85,0,0,0-.14,2.92c.14.14.07.43.07.64-.07.5,0,1.07-.07,1.57v.07c0,.35.14.71,0,1,.07.29,0,.57.21.79,0,.92-.14,1.92-.14,2.85a2.7,2.7,0,0,0,0,1.06h-.07a21.74,21.74,0,0,0,.07,3.71l.07.07a3.41,3.41,0,0,1-.07,1.49,6,6,0,0,0-.07,1.93c.07.07.07.07.07.14a13.67,13.67,0,0,0-.07,3.78,1.2,1.2,0,0,1,.21.85v1.07c-.21.35,0,.71-.14,1.07a6.1,6.1,0,0,1-.21,1.28c.07.85-.43,1.28-.21,2.14.14.49-.15.92-.15,1.42-.14.14-.07.36-.07.5,0,.5.07,1.07-.28,1.42a2.36,2.36,0,0,1-.15.79c-.21.42-.21.92-.49,1.28a13.3,13.3,0,0,1-.93,2.28c-.64.78-.78,1.92-1.64,2.56-.14.43-.5.78-.64,1.21s-.21.79-.71.93c-.78.64-1.43,1.49-2.21,2.21a6.6,6.6,0,0,1-1.56,1.56c-.15-.14-.22.14-.36.14-.5.5-1.14.79-1.43,1.43-.64.5-1.56.5-2.06,1.21-.57.21-1,.71-1.64.78a2.19,2.19,0,0,1-1.14.43,2.89,2.89,0,0,1-1.28.57c-.93.14-1.57.78-2.57.71a4,4,0,0,1-1.85.29c-.42.35-1,.14-1.42.35-.57-.14-1.14.15-1.64,0a12.15,12.15,0,0,1-4-.07c-.07-.07-.28-.07-.35-.14l-2.64-.21c-1.14.07-1.92-.57-3-.64a3.82,3.82,0,0,1-1.21-.5c-.29.07-.29-.22-.57-.22-.5-.5-1.35-.42-1.92-.92-.29-.57-.86-.5-1.21-1-.22,0-.36-.21-.5-.21a20.06,20.06,0,0,1-2.07-1.64,3.42,3.42,0,0,0-1-.79c-.07-.21-.42,0-.28-.28-.21-.07-.43-.21-.43-.36-.85-.35-1.14-1.21-1.71-1.71a9.22,9.22,0,0,1-1.78-1.92c-.35-.35-.42-.92-.85-1.28-.15-.36-.5-.64-.57-1.07a20.29,20.29,0,0,1-1-2.21c0-.07-.14-.14-.14-.14.14-.35-.36-.57-.29-.93-.14-.21-.07-.49-.35-.64-.14-.49-.36-1-.5-1.49-.36-.29-.36-.86-.71-1.14-.15-.43.07-1-.15-1.35.08-.22-.21-.36-.07-.5a.48.48,0,0,0-.07-.43,8.46,8.46,0,0,0-.28-1.85c-.07-.21,0-.43-.07-.64l-.08-.36c.08-.85-.21-1.57.08-2.35,0-.28-.29-.5-.08-.85s-.28-.72,0-1.14c.08-.43-.21-.86.08-1.21a8.46,8.46,0,0,0-.08-1.86,7.09,7.09,0,0,0-.07-1.78c.22-.28,0-.64.07-.92.29-1.21-.07-2.5,0-3.71a6.46,6.46,0,0,1,.15-1.21c0-.35-.29-.78,0-1.14a19,19,0,0,1-.15-2,3.51,3.51,0,0,0-.14-.85c-.07-.36.14-.72-.07-1.14v-1.22c.14-.35-.14-.71,0-1.13a7.14,7.14,0,0,0,.07-1.22c.14-.28-.07-.64.07-.92a7.67,7.67,0,0,0,.15-2.21c-.15-.21-.08-.5-.15-.71,0-1.14.07-2.21.07-3.35.22-.35.29-.92.79-1l.14-.07c1-.07,1.92,0,2.85-.07.07-.14.21,0,.35,0,.5-.28.93.14,1.36-.14.5-.07,1.07.21,1.56,0,.29.14.72,0,1.07.14a16.61,16.61,0,0,1,2.64,0c.85.14,1.57-.35,2.35,0,.28-.07.43.14.57.29s.14.35.21.5a1.24,1.24,0,0,0,.22.35c-.15.43,0,.86-.15,1.28a14.33,14.33,0,0,1-.07,3.07V168a.07.07,0,0,0-.07.07l.07.15a20,20,0,0,0-.07,3.56c-.14,1,.43,1.85.07,2.84.07.58-.14.93,0,1.43.07,1.5-.07,2.92.07,4.34-.14.86.15,1.71.07,2.5a2.08,2.08,0,0,1,0,1.35,6.35,6.35,0,0,1,0,2.64c-.07.35.08.71-.14,1a16.52,16.52,0,0,0,.14,1.78c.15.29-.21.57,0,.93a15.71,15.71,0,0,1,.15,2.56c.21.29-.07.64.14.86a7.33,7.33,0,0,0,.29,2.56c0,.36.14.5.14.78a14.1,14.1,0,0,0,.42,1.64c.15.22.22.36.43.43a4.41,4.41,0,0,1,.57,1.21c.43.71,1.14,1.07,1.64,1.78a6.43,6.43,0,0,0,1.28,1.14,4.58,4.58,0,0,0,1.36.64c.21.14.49.14.64.29.71.21,1.42.64,2.13.85a2.4,2.4,0,0,1,.79.29c.07-.08.14,0,.21.07a1.62,1.62,0,0,1,1.42-.07,7.28,7.28,0,0,1,2.5-.15c.5,0,.78-.49,1.28-.49.64-.29,1.35-.22,1.92-.57.29-.29.64-.36.93-.65.35-.07.64-.42,1-.64a1,1,0,0,0,1.07-.71c.5-.07.64-.71,1-.92.5-.5.71-1.07,1.21-1.64.29-.5.86-.93.93-1.57.21-.28.07-.64.35-.93,0-.35.36-.56.29-1-.07-.64.28-1.21.28-1.85l.07-.08c-.07-1.06.36-1.92.08-2.92.28-.71,0-1.42.14-2.2v-1.64l.14-.14a11.65,11.65,0,0,1,0-2.21,8.8,8.8,0,0,0,0-1.92c0-1.29-.07-2.78-.14-4.06.35-.57-.22-1.07.14-1.57.07-.43-.14-.86-.07-1.28-.21-.15.07-.36-.07-.5s.14-.22,0-.36a15.24,15.24,0,0,0-.14-1.78,1,1,0,0,1,.07-.92,21.73,21.73,0,0,0-.15-2.21v-1.14a1.29,1.29,0,0,0,0-.78c-.14-.22.22-.36.08-.57.14-.29,0-.65.14-.93a19.43,19.43,0,0,1-.07-2.92,2.33,2.33,0,0,1-.07-1c.14-.07.07-.28.14-.42s.35-.36.64-.36.43-.21.64-.29a3.28,3.28,0,0,0,1.21,0c1.21.08,2.42.15,3.63.15h1.21l.07-.07a21.64,21.64,0,0,1,4.35.14.91.91,0,0,0,.43.07,6.06,6.06,0,0,0,1,.43c.36.14.43.64.5,1.07s0,.71.21,1v1.57C190.68,166.84,190.82,167.27,190.75,167.55Z"/>
    <path class="cls-3" d="M248.61,217.29a1.18,1.18,0,0,0-.13.5v.07c-.28.08-.42.3-.7.3a.24.24,0,0,1-.21.08c-.08-.07-.22,0-.36-.06l-.07.07c-.92.17-1.85,0-2.84.21-.5-.06-1.07.17-1.57-.1a4.9,4.9,0,0,0-1.43,0c-.43-.13-.85.09-1.35,0a2,2,0,0,1-1.43,0l-1.21,0a1,1,0,0,0-.64-.05,22.69,22.69,0,0,1-4.78-.1c-.14-.14-.36-.13-.36-.35a15.42,15.42,0,0,0-1.38-1c-.22,0-.22-.21-.44-.28-.36-.35-.65-.48-.87-.83s-.65-.56-.88-1c-.51-.49-1.09-1-1.6-1.53a9.63,9.63,0,0,1-1.68-1.81c-.37-.35-.59-.77-1-1.12a24.46,24.46,0,0,1-2.19-2.51c-.36-.06-.51-.49-.88-.69s-.29-.42-.51-.56a11,11,0,0,0-1.24-1.39c-.15-.36-.51-.49-.8-.7-.16-.42-.66-.69-.95-1a4.37,4.37,0,0,0-1.66-.6c-.85,0-1.65-.39-2.49-.09a1,1,0,0,0-1,.53c0,.14-.2.29-.13.43,0,.35-.34.57-.12.85a25.66,25.66,0,0,0,.15,3.35,3.13,3.13,0,0,0,0,1.14,4.19,4.19,0,0,0-.12,1.36c.16.28,0,.64,0,.92v.64c-.12.79.12,1.71.07,2.64a1.22,1.22,0,0,1,.16,1c.15.42-.12.93.18,1.28a2.18,2.18,0,0,1-1,2c-.15.07-.36.08-.5.22-1.21.1-2.28-.23-3.49.09a8.28,8.28,0,0,1-2.63,0,25.32,25.32,0,0,1-3.13.15c-.22.07-.43-.07-.64.08-.72,0-1.43-.11-2.07-.09a2.62,2.62,0,0,1-.95-.76c-.44-.7,0-1.64-.2-2.42.14-.29-.08-.71.05-1.07.27-.65,0-1.5.23-2.21,0-.29-.23-.57-.09-.86.05-.85-.12-1.92-.07-2.77a.77.77,0,0,0,.06-.57,14.71,14.71,0,0,1-.06-2.5c-.05-2.35-.32-4.41-.16-6.62a4.26,4.26,0,0,0-.16-1,34.56,34.56,0,0,1-.1-3.92,13.68,13.68,0,0,0,.1-1.85c-.16-.57,0-1.36-.12-1.92,0-.15-.07-.29.07-.36-.08-.43,0-.85-.11-1.28.07-.29-.15-.64-.16-1h.07a11.39,11.39,0,0,0,.09-2.28c-.09-.64-.18-1.35-.27-2,.14-.28-.08-.56,0-.78a8.19,8.19,0,0,0,.1-1.78,1.22,1.22,0,0,0,0-.86,1.16,1.16,0,0,1,0-.49c-.08-.72,0-1.43-.12-2.14.14-.07.07-.22.14-.29v-.21a3.51,3.51,0,0,1,0-1.21l-.07-.07a22.32,22.32,0,0,0,0-3.06c-.08-.36,0-.79,0-1.14a25.91,25.91,0,0,1-.22-3.35,2.39,2.39,0,0,1,0-1.42,5.76,5.76,0,0,1,.22-2.93c.13-.28.2-.64.33-.93.42-.58,1.14-.24,1.63-.61a16.26,16.26,0,0,1,1.85-.12c.07.15.14.07.21.07a.44.44,0,0,0,.43,0l1.43,0a2.75,2.75,0,0,0,1.06,0c.64-.08,1.28,0,1.85-.11,1.64-.18,3.14.14,4.85.1.07-.08.29,0,.43-.09s.07.07.14.07h.07c.79,0,1.56-.18,2.35-.2.42-.08.85.05,1.21-.1.21.07.35,0,.57,0l.07.07c.86.05,1.7-.4,2.56-.21a4,4,0,0,0,1.28-.1c.93.12,1.78.1,2.71.15a7.55,7.55,0,0,1,2.85-.07c.14,0,.28-.08.42,0,1.29.18,2.35-.13,3.64.06a5.37,5.37,0,0,1,2.36.3c.35,0,.71.12,1.14.11,0,.07.21,0,.29.14a12.56,12.56,0,0,0,1.44.6c.5.28,1.15.26,1.58.54.14,0,.29.13.36.2.29.21.51.49.87.55s.43.27.72.41c.37.42.87.48,1.09,1a5.85,5.85,0,0,1,1.38,1c.29.13.65.27.73.62.22.64,1,.62,1.24,1.25.28.07.29.35.5.42s.23.49.45.7a7.11,7.11,0,0,0,.37.7c.44.42.52.92,1,1.33a6.31,6.31,0,0,1,.67,1.2,2.58,2.58,0,0,0,.3.63,9.27,9.27,0,0,0,.69,2c.22.14,0,.5.23.64,0,.14.15.28.15.49.15.14-.06.43.16.5a1.85,1.85,0,0,0,.16.7c.23.71.17,1.43.33,2.13a17.06,17.06,0,0,1,.05,2,.88.88,0,0,0,0,.85,9.87,9.87,0,0,1-.23,2.07c-.12,1-.32,1.93-.5,2.94-.42.58,0,1.49-.6,2-.06.36-.19.72-.26,1.08a1.65,1.65,0,0,0-.2.36c-.13.5-.55.87-.75,1.37-.42.3-.41.8-.83,1.09a4.64,4.64,0,0,1-1.45,1.82c-.35.36-.48.79-.9,1s-.34.93-.84.87c-.56.3-1,.81-1.61,1.11-.21.36-.64.08-.84.52-.29.15-.42.43-.78.44a.54.54,0,0,0-.27.29,1.24,1.24,0,0,1-1,.53,1.09,1.09,0,0,0-.84.52v.07c-.07.07,0,.21-.14.21a2,2,0,0,0,.24.92c.22.21.3.57.66.63.22.28.43.49.66.84s.44.56.87.69c.22.35.87.69,1.09,1.11.73.63.9,1.62,1.83,2a7.78,7.78,0,0,1,1.18,1.39c.57.27.73,1,1.31,1.33.22.28.51.55.81.9.21.07.29.49.65.63a4.53,4.53,0,0,1,.88,1.19c.29.13.3.35.59.48.14.21.43.28.65.56.37.49.95,1,1.39,1.46.22.28.65.41.66.84.15.21.3.49.23.63A.29.29,0,0,0,248.61,217.29Zm-15.28-37.18c-.22-.14-.15-.42-.23-.63s-.3-.5-.37-.78c-.37-.28-.23-.71-.59-.91-.31-.78-1.09-.83-1.54-1.46a2.5,2.5,0,0,1-.64-.27c-.22-.14-.58-.27-.87-.41s-.43,0-.57-.2a7.39,7.39,0,0,1-2.22-.23c-.43-.06-.92,0-1.35,0a3,3,0,0,0-1.36,0l-2,0c-1.78.12-3.34.15-5.12.27-.29-.07-.57.15-.93-.05a11.71,11.71,0,0,0-3.13.29c-.14.07-.21.29-.42.22a1.69,1.69,0,0,0-.32,1.43c-.06.5,0,1.07,0,1.5a22.48,22.48,0,0,0-.07,3.07,1.94,1.94,0,0,0,0,.85l-.07.15a4.52,4.52,0,0,0,.19,1.7c-.07.14-.21.29-.13.5a4.08,4.08,0,0,0,0,1.36c.08.21,0,.42.08.56.09.72,0,1.64.55,2.13a11.73,11.73,0,0,0,3.14.14c.29.2.64-.09.93.05.14,0,.35-.08.43,0,1.14,0,2.28.08,3.35.06,1.41-.39,2.85.14,4.27-.17.78,0,1.48-.33,2.2-.2.28-.29.64,0,.92-.16s.71-.38,1.13-.39c.58.13.85-.52,1.27-.6.21.07.21-.29.43-.15.41-.44,1-.38,1.18-1,.5-.15.63-.72,1.12-1,.13-.29.41-.51.47-.87-.21-.21.06-.57.06-.85.2-.22.27-.51.48-.73,0-.5.47-1.08,0-1.57A12,12,0,0,0,233.33,180.11Z"/>
    <path class="cls-3" d="M76.38,247.84a1.45,1.45,0,0,1-.68.88c-.14,0-.14.15-.28.15a8.17,8.17,0,0,1-1.85.22,31.38,31.38,0,0,1-3.63.14l-.07-.07a5.41,5.41,0,0,1-1.86-.07,21.56,21.56,0,0,0-3,.33c-.28.15-.49,0-.78.1-1.13.11-2.27.09-3.41.2-.36-.06-.79,0-1.14-.1-.14.08-.36-.05-.5,0a3.24,3.24,0,0,0-1.63.35,1.07,1.07,0,0,0-.82.75c-.61.87.07,2-.1,3.06,0,.5.18.92.2,1.49l.1,2.64a1.88,1.88,0,0,1,.12,1.27,7.37,7.37,0,0,0,.16,2.14c0,.92,0,1.85,0,2.7a14.79,14.79,0,0,0,0,2.5,26,26,0,0,0,.13,3.27c-.14,0-.07.08-.14.08.24.56-.1,1,0,1.57.22.2,0,.35,0,.57.25.84-.07,1.78.11,2.7,0,.57.11,1.14.13,1.71a3.64,3.64,0,0,1,.18,1c.19,1.06,0,2.21.27,3.27a10.65,10.65,0,0,1,0,1.49c.09.43-.19.72-.1,1.15-.13.15,0,.35,0,.5,0,.85.21,1.63.24,2.48a21.56,21.56,0,0,1,.33,3c-.07.15-.13.29,0,.43s.3.41.31.7a3.92,3.92,0,0,1-.15,1.86,1.25,1.25,0,0,1-.32.87c-.5,0-.83.46-1.33.48l-2.42.09a2.17,2.17,0,0,0-1.36-.09,23.15,23.15,0,0,1-3.84.15c-.86,0-1.72-.15-2.57-.12l-.08-.06a4.53,4.53,0,0,1-1.64,0c-.44-.27-.94-.54-1-1.11-.24-.77-.06-1.56-.23-2.27a.75.75,0,0,0,0-.57c.07,0,0-.07,0-.14s0-.07,0-.14a17.51,17.51,0,0,0-.11-2.78c.21-.15.05-.5,0-.71-.17-.49.1-.86-.06-1.35a6.93,6.93,0,0,0-.07-1.78c.2-.51-.11-1,0-1.5a14.77,14.77,0,0,0-.24-2.48,11.11,11.11,0,0,0-.09-2.21c0-.71-.05-1.42,0-2.21h.07a40.74,40.74,0,0,0-.24-4.27c-.37-.48-.11-1.2-.35-1.69.1-1.29-.09-2.5,0-3.71-.15-.21,0-.57,0-.72a14.78,14.78,0,0,1,0-2.49,3.61,3.61,0,0,1-.12-1.21c.19-.79-.06-1.63.12-2.42.06-.29-.09-.64.11-.86a13.77,13.77,0,0,1-.11-3c-.17-.78-.06-1.43-.23-2.28-.09-.42-.46-.69-.61-1-.59-.33-1-.74-1.67-.72-1.5,0-3.06.19-4.48.24a10.93,10.93,0,0,0-2.14.09c-1,.18-2,0-3,.11-.43-.19-.85.11-1.28-.09-1.21.12-2.36-.19-3.49.13-1,.11-1.73-.57-2.6-.82-.15-.28-.36-.27-.51-.48a1.82,1.82,0,0,0-.26-1.06c0-.5,0-.86,0-1.28a14.75,14.75,0,0,1,0-2.57c-.09-.35.11-.72,0-1.07.06-.5-.18-1-.12-1.49,0-.71.16-1.36.2-2.08,0-.35.34-.44.47-.66.2-.43.7-.45,1.05-.68,1.56-.2,3.06,0,4.55-.17.51.12,1.06-.26,1.5,0a7.06,7.06,0,0,0,1.77-.28c.78,0,1.49-.13,2.34-.24v.08a17.7,17.7,0,0,1,2.06,0,6.86,6.86,0,0,1,1.29,0,6,6,0,0,0,1.63-.14h.07a38.68,38.68,0,0,1,7-.34c1.22,0,2.7-.17,3.92-.08a4.26,4.26,0,0,0,1.36.16c.14,0,.29.06.43-.09.14,0,.42.06.56-.09l4.84-.18a12.75,12.75,0,0,1,2.35-.17,23.23,23.23,0,0,0,3.2-.12c.14-.15.28-.08.42-.09.23.21.5-.16.79,0a28.33,28.33,0,0,0,4.27-.16c.35-.09.78,0,1.21-.12,0,.14.14,0,.21,0a21.05,21.05,0,0,1,3.07.1,1.23,1.23,0,0,0,.71,0l1.21-.05c.08.14.29.06.29.21.09.42.59.4.74.75,0,.57.33,1,.2,1.49a29,29,0,0,1,.07,3.49c.48,1.48.19,3.2.4,4.76C76.57,247.33,76.37,247.55,76.38,247.84Z"/>
    <path class="cls-3" d="M131.75,293.4a1,1,0,0,0-.15.5V294c-.29.06-.44.27-.72.27a.28.28,0,0,1-.22.06c-.07-.07-.21,0-.35-.08l-.08.07c-.93.12-1.85,0-2.85.08-.49-.09-1.07.11-1.56-.18a4.51,4.51,0,0,0-1.42,0c-.43-.16-.86,0-1.36-.11a2,2,0,0,1-1.42-.1l-1.21,0a1,1,0,0,0-.64-.09,21.77,21.77,0,0,1-4.76-.33c-.14-.14-.36-.15-.35-.36-.42-.44-.91-.73-1.33-1.1-.21,0-.21-.22-.42-.29a4.77,4.77,0,0,1-.83-.88c-.21-.36-.63-.58-.83-1-.49-.51-1-1-1.53-1.6a10,10,0,0,1-1.6-1.89c-.34-.36-.55-.8-.9-1.16a25.15,25.15,0,0,1-2.07-2.62c-.35-.07-.49-.51-.84-.73s-.27-.43-.48-.58a11.85,11.85,0,0,0-1.18-1.45c-.13-.36-.49-.51-.77-.73-.13-.43-.62-.73-.9-1.09a4.44,4.44,0,0,0-1.62-.68c-.85,0-1.63-.47-2.49-.2a1,1,0,0,0-1,.47c0,.15-.22.28-.15.43,0,.35-.37.56-.16.85a25,25,0,0,0,0,3.35,3.1,3.1,0,0,0-.1,1.13,4.51,4.51,0,0,0-.17,1.35c.13.29,0,.64,0,.93l0,.64c-.16.78,0,1.71-.06,2.63a1.27,1.27,0,0,1,.12,1c.13.43-.17.93.11,1.29a2.15,2.15,0,0,1-1.12,2c-.14.06-.35.06-.5.2-1.21,0-2.27-.34-3.49-.08a8.21,8.21,0,0,1-2.63-.14,21.94,21.94,0,0,1-3.14,0c-.21.07-.42-.08-.64.06-.71,0-1.42-.18-2.06-.2a2.51,2.51,0,0,1-.91-.8c-.41-.72,0-1.64-.08-2.42.15-.29,0-.72.09-1.07.31-.63.11-1.49.34-2.2,0-.29-.2-.58-.05-.86.09-.85,0-1.92.07-2.77a.82.82,0,0,0,.08-.57,15,15,0,0,1,.06-2.49c.06-2.35-.11-4.42.16-6.63a5,5,0,0,0-.12-1,36,36,0,0,1,.09-3.91,15,15,0,0,0,.19-1.85c-.13-.57.1-1.35,0-1.92,0-.15-.06-.29.08-.36-.06-.43,0-.85,0-1.28s-.13-.65-.12-1h.07a11.94,11.94,0,0,0,.2-2.28c-.06-.64-.11-1.35-.17-2,.15-.29-.06-.58,0-.79a7.61,7.61,0,0,0,.19-1.77,1.26,1.26,0,0,0,0-.86c0-.14-.07-.36,0-.5-.06-.71,0-1.42,0-2.13.14-.07.07-.22.15-.29v-.21a3.52,3.52,0,0,1,0-1.21l-.07-.07a22.39,22.39,0,0,0,.14-3.06c-.06-.36.09-.78,0-1.14a25.18,25.18,0,0,1-.06-3.35,2.47,2.47,0,0,1,0-1.43,5.77,5.77,0,0,1,.35-2.91c.15-.28.23-.63.38-.92.44-.56,1.15-.18,1.65-.53a16.49,16.49,0,0,1,1.86,0c.06.14.14.07.21.07a.44.44,0,0,0,.43,0l1.42.11a2.65,2.65,0,0,0,1.06.09c.65-.05,1.29,0,1.86,0,1.64-.11,3.13.28,4.83.32.08-.06.29,0,.43-.06s.07.08.14.08h.07c.79.09,1.57-.11,2.36-.09.43-.06.85.09,1.21,0a1.37,1.37,0,0,0,.57,0l.07.08c.85.09,1.72-.32,2.57-.09a3.68,3.68,0,0,0,1.28,0c.92.17,1.77.19,2.7.28a7.62,7.62,0,0,1,2.85.07c.14,0,.28-.07.42,0,1.28.24,2.36,0,3.63.23a5.32,5.32,0,0,1,2.34.41c.36,0,.71.16,1.14.17,0,.07.21,0,.28.15a12.86,12.86,0,0,0,1.41.67c.49.3,1.13.31,1.55.61.15,0,.28.15.35.22.28.22.49.51.84.59s.42.3.71.44c.34.44.84.52,1,1,.57.22.84.66,1.33,1,.28.14.63.3.7.65.2.65,1,.67,1.18,1.31.28.08.27.37.49.44s.2.51.41.72a5.39,5.39,0,0,0,.33.72c.42.44.48.94.9,1.38a7,7,0,0,1,.61,1.22,2.42,2.42,0,0,0,.27.65,9.52,9.52,0,0,0,.59,2c.21.15,0,.5.2.65,0,.14.14.29.13.5.14.14-.08.42.13.5a2.2,2.2,0,0,0,.13.72,19.17,19.17,0,0,1,.23,2.14,18.5,18.5,0,0,1,0,2,.9.9,0,0,0,0,.86,9.54,9.54,0,0,1-.34,2.05c-.16,1-.4,1.92-.64,2.91-.44.56-.1,1.5-.68,2-.08.35-.23.71-.31,1.06a1.51,1.51,0,0,0-.23.35c-.15.5-.59.84-.81,1.34-.43.27-.45.77-.88,1a4.58,4.58,0,0,1-1.54,1.75c-.36.35-.51.77-.95,1s-.38.92-.87.84c-.58.27-1,.76-1.66,1-.23.35-.65.05-.87.48-.29.13-.44.41-.79.4a.59.59,0,0,0-.3.28c-.22.35-.58.41-1,.48a1.07,1.07,0,0,0-.87.47v.08c-.08.07,0,.21-.15.21a2,2,0,0,0,.19.93c.21.22.27.57.63.65.2.29.41.51.62.87s.41.58.84.74c.2.35.83.73,1,1.16.69.66.81,1.66,1.73,2.11a7.56,7.56,0,0,1,1.1,1.45c.57.29.69,1,1.25,1.38.21.29.49.58.77.94.21.08.27.51.62.66a4.76,4.76,0,0,1,.83,1.23c.28.15.27.36.55.51s.42.3.63.59c.35.5.9,1,1.32,1.52.21.29.63.45.62.87.14.22.27.51.2.65A.24.24,0,0,0,131.75,293.4Zm-13.49-37.86c-.21-.15-.14-.43-.2-.65s-.28-.5-.34-.79c-.35-.29-.2-.72-.55-.94-.26-.79-1-.88-1.46-1.53a2.26,2.26,0,0,1-.63-.3,8.22,8.22,0,0,0-.85-.45c-.13-.14-.42,0-.56-.22a7.56,7.56,0,0,1-2.2-.34c-.43-.08-.93,0-1.35-.1a3,3,0,0,0-1.35,0l-2-.11c-1.78,0-3.34,0-5.13,0-.28-.08-.57.13-.92-.1a12,12,0,0,0-3.14.14c-.14.07-.22.28-.43.21a1.65,1.65,0,0,0-.39,1.41c-.08.5,0,1.07-.11,1.5a22.37,22.37,0,0,0-.21,3.06,1.72,1.72,0,0,0-.09.85l-.08.14a4.61,4.61,0,0,0,.1,1.71c-.07.14-.22.28-.15.5a4.22,4.22,0,0,0-.1,1.35c.06.21,0,.42,0,.57.06.71-.1,1.64.45,2.15a11.56,11.56,0,0,0,3.13.28c.28.22.64-.05.92.1s.36-.07.43,0c1.14,0,2.28.19,3.34.22,1.44-.32,2.85.28,4.28,0,.78.09,1.5-.25,2.21-.09.29-.28.64,0,.93-.12s.72-.34,1.15-.33.86-.48,1.29-.54c.21.08.22-.28.43-.13.44-.42,1-.34,1.24-1,.5-.13.65-.7,1.16-1,.15-.28.44-.49.52-.84-.21-.22.08-.57.09-.86.22-.21.29-.49.51-.7,0-.5.53-1.05.11-1.56A11.82,11.82,0,0,0,118.26,255.54Z"/>
    <path class="cls-3" d="M191.73,292.51c-.94-.1-1.92.3-2.92.2a26.78,26.78,0,0,0-4.9.41c-1.8-.42-2.1-2.55-3.08-3.79-1.28-1.66-1.51-3.86-3.62-4.92-.8-.25-1.71.15-2.5,0-2.78,0-5.75.66-8.6.56-1.49.14-2.8-.38-4.28-.11-1.91.37-4-.05-5.83.46-.71,0-1.49.13-2.2.16a30.86,30.86,0,0,0-3,4.54c-.19.65-.6,1.17-.78,1.82-.28.22-.13.43-.19.72-.69.53-.49,1.94-1.71,1.78-2.48.24-5,.28-7.54.31-.72-.26-1.56.21-2.36-.12a24.77,24.77,0,0,1-3.35-.07c-.45-.48-.33-1.13-.49-1.62s.39-.73.37-1.23c.82-.89.92-2,1.66-3,.25-.79.72-1.53,1.05-2.32,1.24-1,1.11-2.47,1.84-3.72.12-.64.67-1.09.93-1.67A54.86,54.86,0,0,0,144,274c.78-1.89,2.28-3.51,3.06-5.33.73-1.38,1.38-2.76,2.18-4.08.23-1.36,1.4-2.41,1.56-3.77.58-1.59,1.73-3,2.38-4.59.05-.36.47-.59.67-.95.45-1.31,1.54-2.42,1.77-3.85.85-1.82,2.14-3.44,2.55-5.38a1.86,1.86,0,0,0,.33-.87c.72-1.53,2.09-2.73,2.45-4.38,1.09-1.26,1.44-3.2,3.19-3.91a2.45,2.45,0,0,1,2.62,1.18c.73.46.84,1.39,1.43,2,.1.71.9,1.11,1,1.82a10.25,10.25,0,0,1,1.41,3.07c1.29,1.73,2.08,3.63,3.36,5.43.61.9,1.15,1.87,1.83,2.77l.52.62a29.7,29.7,0,0,0,2.6,4.17,20.77,20.77,0,0,0,2.52,4.17c1.54,2.65,2.65,5.46,4.6,7.8,0,.85.91,1.24.94,2.1.43,1.69,1.76,3,2.47,4.6,1.5,1.72,1.6,4.14,3.44,5.63.17.71.91,1.25,1.15,2,1.2,1.45,1.85,3.21,3,4.65.25,1,.93,1.89.69,3C196,293.19,193.64,292.36,191.73,292.51Zm-20.36-20c-.26-1.06-1.56-1.58-1.54-2.79a26.52,26.52,0,0,1-3.28-5.21c-.52-.41-.7-1.4-1.55-1.29a15.38,15.38,0,0,0-1.33,2.33c0,.65-.6,1-.72,1.6s-.33.73-.45,1.16c-.54.73-.72,1.53-1.19,2.19-.46,1.08-1.64,1.85-1.66,3.06.24.56.94.32,1.38.51a1.75,1.75,0,0,1,1.2-.19,16.34,16.34,0,0,0,5.92,0c1.2-.33,2.36.33,3.33-.42A1.59,1.59,0,0,0,171.37,272.47Z"/>
    <path class="cls-3" d="M243.05,286.3c-.21.15-.27.51-.62.59a5.29,5.29,0,0,0-.69.66c-.35.16-.63.45-1.05.61s-.77.38-1.12.61-.48.44-.77.38c-.13.36-.56.23-.77.45a7.79,7.79,0,0,1-1.12.68c-.2.3-.63.17-.76.6a18,18,0,0,1-1.83.63c-.2.22-.57.09-.77.31-.35.16-.86,0-1.06.47a3.85,3.85,0,0,1-2,.42,16.86,16.86,0,0,1-1.84.42,6.35,6.35,0,0,1-1.13.25c-1.7.13-3.4.4-5.11.39-.44-.34-.93,0-1.43.05s-1-.25-1.49.05a2.65,2.65,0,0,1-1.66-.44c-.5-.2-1.14-.11-1.65-.45a4.12,4.12,0,0,1-1.43-.23c-.5.09-.8-.26-1.22-.25a5.37,5.37,0,0,0-1.52-.58c-.28.15-.5-.06-.71-.05a1.5,1.5,0,0,1-.44-.27c-.8-.33-1.53-.81-2.25-1.14-.36-.06-.65-.19-.93-.25-.51-.34-.89-.83-1.47-1.16a1.53,1.53,0,0,0-.66-.48,4,4,0,0,0-1.24-.95,10,10,0,0,0-1.77-1.66,26.35,26.35,0,0,1-2.87-2.82c-.3-.35-.25-.85-.61-1.12-.15-.28-.3-.49-.45-.76s-.24-.71-.67-.84c-.1-.64-.68-1-.91-1.46s-.45-.63-.46-1.06c-.15-.13-.16-.35-.23-.56-.37-.34-.11-.92-.48-1.34,0-.57-.81-.82-.76-1.47s-.68-1-.56-1.69a7.76,7.76,0,0,0-.4-1.27c-.22-.42,0-1.06-.26-1.48a2.09,2.09,0,0,0-.17-.64c-.24-.85.16-1.72-.09-2.64a5.38,5.38,0,0,0,0-1.06l.07-.08c-.31-.63,0-1.21-.07-1.92v-.07c0-.57.32-1.15.15-1.86a.78.78,0,0,0,.13-.43,6.38,6.38,0,0,1,.3-1.58,6,6,0,0,1,.25-1.08c.19-.72.45-1.44.64-2.16.06-.35.12-.64.18-1s.48-.52.47-.87c.34-.58.17-1.29.72-1.74.06-.35.41-.58.47-.94.4-.87,1.37-1.54,1.7-2.48,0-.36.48-.59.46-1a8.71,8.71,0,0,0,1.1-1.25c.21-.15.41-.37.63-.38a.93.93,0,0,1,.41-.37c.41-.51.9-1,1.24-1.4,0-.21.14-.14.2-.22.28-.29.55-.73,1-.88.49-.38,1-1.11,1.6-1.2a5,5,0,0,0,1-.6c.35,0,.56-.31.84-.39.27-.36.7-.38,1-.6.61-.88,1.46-.91,2.16-1.5.28,0,.56-.24.84-.25.64-.16,1.13-.46,1.76-.62.62-.67,1.63-.49,2.47-.8.34-.37,1.06-.18,1.41-.41.22.07.35-.08.49-.15a4.21,4.21,0,0,0,1.63-.35c.36.06.64-.16,1-.24a6.45,6.45,0,0,1,1.64-.13c.21-.08.42.06.71.12a22.33,22.33,0,0,1,3.06,0,13.13,13.13,0,0,1,1.65.23.91.91,0,0,1,.65.12c.57.2,1.21,0,1.71.16.86.19,1.73.44,2.59.55a.42.42,0,0,0,.43.2c.36.13.59.48,1,.47.07.14.21.06.36.13s.36.34.65.26c.29.2.72.19,1.08.39.15.21.36.2.58.27s.36.2.58.26a10.14,10.14,0,0,1,2,1.36c.28.06.51.34.87.4s.3.56.66.76l.88.75c.29.06.37.42.59.55a1.25,1.25,0,0,1,.54,1.12c-.27.58-.24,1.3-.8,1.74,0,.22-.34.23-.33.51a2.89,2.89,0,0,0-.83,1,7.78,7.78,0,0,1-.88,1.17c-.27.51-.83.74-1.1,1.25a5.69,5.69,0,0,0-1.11.82c0,.57-.69.73-1,1a4,4,0,0,1-1.05.61c-.43-.06-.71.09-1.13,0-.07.14-.15.07-.22,0a6.78,6.78,0,0,1-1.3-.52c-.37-.56-1-.47-1.53-.88-.42,0-.59-.62-1.08-.53-.22-.21-.57-.05-.87-.26-.28,0-.43-.27-.72-.19s-.79-.33-1.15-.31l-.07-.07a11.32,11.32,0,0,1-2.28-.14c-.3-.27-.79.1-1.08-.17a2,2,0,0,1-1.28,0c-.65-.19-1,.53-1.63.34-.49.23-1,0-1.49.26-.28-.06-.56.24-.91.25a1.51,1.51,0,0,1-.7.45c-.35.23-.64.23-.91.46l-.08-.07c-.06.14-.35.08-.49.16-.35.08-.62.52-.9.67s-.49.37-.77.38l-.84.46c-.35.23-.84.46-.9,1-.21.08-.57,0-.55.37-.07.08-.07.29-.21.37-.41.51-1.32.82-1.51,1.61,0,.08-.14.15-.13.22l-.07.08v.14c-.9.6-.94,1.6-1.56,2.33-.2.36-.25.87-.45,1.23s-.05.71-.25,1.08a5,5,0,0,0-.41,2.72c-.26.65,0,1.35-.21,2.07a1.11,1.11,0,0,0,.16.71,4.86,4.86,0,0,0,.44,2.27c-.06.42.38.69.25,1.13.22.27.16.63.24.92a12.05,12.05,0,0,0,.69,1.33c.44.48.61,1.19,1.2,1.67a3.94,3.94,0,0,1,1,1.46,4.89,4.89,0,0,0,1,.68c.37.41,1,.46,1.25.95s.74.83,1.25,1.17c.57.12,1,.68,1.59.8a4.57,4.57,0,0,0,1.38.59c.14,0,.29.14.43.2a9.32,9.32,0,0,0,2.08.29,14.15,14.15,0,0,0,2.43.13c.07.14.14,0,.21,0a1.09,1.09,0,0,1,.5.06c.42-.16.85,0,1.35-.19a18,18,0,0,0,2.63-.3c.2-.22.56-.24.84-.32.56-.37,1.27-.32,1.75-.77a1.47,1.47,0,0,1,.5-.09c.9-.67,1.58-1.62,2.71-1.87a2.37,2.37,0,0,1,1.4-1.05c.28-.15.48-.44.84-.31s.59.55,1,.53a3.43,3.43,0,0,1,1.17.82,2.72,2.72,0,0,1,.6.62,2.34,2.34,0,0,0,1,.82c.16.42.59.55.82,1a6,6,0,0,1,1.68,1.3c.23.35.73.4,1,.82.21.06.22.35.51.34a8.81,8.81,0,0,1,1.11,1.17c.08.28.51.48.38.92C244.51,285,243.67,285.64,243.05,286.3Z"/>
    <path class="cls-3" d="M297.29,294.61c-.43.12-.84-.32-1.21,0s-.92-.11-1.36.08a15.21,15.21,0,0,0-3.56-.07c-.28-.08-.71-.1-1-.18-.43-.09-.85-.18-1.2-.27a22.33,22.33,0,0,0-3.06-.05c-.44.12-1,0-1.43.08a4.12,4.12,0,0,1-1.85-.07c-.71-.11-1.37.29-2-.09-.43.13-.63-.24-1-.25-.21-.29-.49-.38-.69-.67,0-.43-.54-.67-.67-1.1a2.73,2.73,0,0,0-.62-.38,8.19,8.19,0,0,1-.95-1.32c-.32-.73-1.23-1.12-1.42-1.84a2.59,2.59,0,0,0-.61-.67,1.74,1.74,0,0,0-.68-.74c-.21-.22-.49-.38-.62-.67a5.86,5.86,0,0,1-1.16-1.11,11.91,11.91,0,0,1-1.57-1.71c-.21-.15-.34-.37-.55-.45a2.92,2.92,0,0,1-.89-1c-.21-.15-.48-.38-.48-.59s-.4-.45-.53-.74c-.22,0-.14-.22-.27-.37-.2-.43-.69-.59-.89-1a6.4,6.4,0,0,0-1.24-1.19c-.2-.36-.62-.45-.82-.82-.41-.3-.46-.87-.87-1.25-.21-.15-.33-.58-.69-.6a3.64,3.64,0,0,0-.88-1.17.86.86,0,0,0-.77-.25c-.59.33-.4.91-.63,1.4a10.11,10.11,0,0,1,.06,2.07c-.22.21.05.43-.1.64s.12.57,0,.86.1.79,0,1.28c.14.15,0,.43,0,.64,0,.36,0,.72,0,1.14.06.22-.09.5,0,.79s-.17.56-.11.85L261,284l-.07,1.56.07.15a12.71,12.71,0,0,1-.14,1.7,2.28,2.28,0,0,1,.09,1.36c0,.57.38,1,.14,1.57.13.37-.1.71,0,1.07-.22.21-.16.57-.46.77.06.21-.22.27-.3.41s-.43.06-.58.26a.56.56,0,0,1-.58.05c-.42-.09-.79.25-1.14,0a.89.89,0,0,1-.43.13,6.49,6.49,0,0,0-2.06-.08c-.35-.23-1,0-1.42-.13-.72.18-1.42-.28-2.07-.09a11.42,11.42,0,0,0-3.13-.13c-.2-.15-.49-.09-.7-.17-.57-.17-1.29.16-1.55-.56-.2-.22-.12-.58-.18-.87s0-.78-.09-1.14c.22-.13.08-.35.23-.56a13.78,13.78,0,0,1,.28-1.56c-.13-.36.1-.71-.1-1.07a2.94,2.94,0,0,0,.12-1.14c.15-.06.08-.21.09-.28-.25-1,.22-1.91,0-2.85-.19-.65.19-1.2.08-1.85a4.6,4.6,0,0,0,.2-1.42c0-.85,0-1.71.1-2.56s.36-1.84.33-2.84c.09-.49,0-1,.14-1.56-.21-.15,0-.5-.19-.72.13-1.21.09-2.13.21-3.34-.06-.29,0-.64,0-1h.08c0-.35.16-.63,0-.92.23-.28,0-.57.11-.85a14.27,14.27,0,0,1,.19-3,3.47,3.47,0,0,1-.09-1.22c0-.21-.12-.43,0-.64,0-.86.27-1.56.24-2.41a1.17,1.17,0,0,0,0-.86,4.07,4.07,0,0,0,0-1,8.72,8.72,0,0,1,.06-1.35.1.1,0,0,0,0-.14c0-.29.17-.57,0-.79.23-.41.11-1.06.21-1.55a4.84,4.84,0,0,0,.19-1.35c.08-.21,0-.5.18-.78-.17-1.07,0-2.35-.07-3.57-.19-.64.26-1.2.08-1.92.09-.49-.1-1.07,0-1.57a5.47,5.47,0,0,1-.05-2.14V241l.06-1.42c.15-.14,0-.36,0-.5H249c.09-.5,0-1.08.28-1.49a2.56,2.56,0,0,1,.39-.91c.22-.13.37-.34.58-.33.23-.14.51-.05.66-.19.65-.26,1.2.26,1.85-.07a2.5,2.5,0,0,1,1.42.13l2.21.09a4.94,4.94,0,0,1,1.42.06c.49.17,1-.17,1.57,0,.78.1,1.71.07,2.49.24.26.44.91.32,1.17,1,.05.36-.25.7,0,1-.17.42.18.72,0,1.22-.12,1.06.05,2.14-.13,3.2.19.43-.11.92.08,1.28.08,1.5-.48,3-.25,4.48-.31.56-.13,1.42-.3,2.06a2,2,0,0,0,0,.93,13.81,13.81,0,0,1-.14,1.77,1,1,0,0,1-.1.64c.13.22,0,.57.11.79a15.85,15.85,0,0,1-.25,2.56,8.87,8.87,0,0,1,0,2.42c.06.29.05.64.33.8.49,0,.73-.4,1.16-.45a13.9,13.9,0,0,1,1-1,9.48,9.48,0,0,0,.61-1.05c.3-.34.45-.69.89-.89,0-.71,1-.88.92-1.6.22-.13.38-.48.53-.62a6.91,6.91,0,0,1,1.55-1.29c.38-.62,1.11-1,1.42-1.72.37-.13.17-.56.46-.77a5.46,5.46,0,0,0,.83-1c.23-.56,1-.74,1.12-1.38a3,3,0,0,0,.9-1c.3-.27.38-.63.75-.83.09-.56.88-.74,1.05-1.31.51-.26.54-.9,1.05-1.17.23-.48.74-.75,1-1.24.59-.33.54-1.05,1.2-1.37.37-.35.39-.77.76-1,0-.14.15-.28.16-.42.29-.35.74-.76,1-1.1s.61-1,1.12-1.17c.38-.7,1.08-.45,1.66-.71a3.2,3.2,0,0,0,.72-.19,9,9,0,0,1,2,.23c.85.1,1.72-.08,2.5,0l2.76.33c.49.3,1.07,0,1.56.27a11,11,0,0,0,2.71-.17,8.1,8.1,0,0,1,1.28.2c.21.08.42.16.48.37a2.8,2.8,0,0,1-.07,1.85c-.23.21-.38.49-.6.69-.37.13-.31.63-.74.68a5.69,5.69,0,0,0-1.35,1.59c-.22.2-.38.55-.67.68a14.28,14.28,0,0,1-1.51,1.94c0,.21-.37.34-.38.55-.36.13-.3.56-.74.68a5,5,0,0,1-.91,1.46c-.08.21-.37.27-.52.55s-.67.69-1,1.1-.81.68-.9,1.18c-.38.48-.75,1-1.2,1.44a2.26,2.26,0,0,0-.23.42c-.23.28-.31.56-.68.76-.09.56-.81.68-1,1.24-.22.2-.59.47-.61.83-.59.47-.7,1.4-1.42,1.72-.23.42-.81.47-.82.9-.81.6-1.06,1.52-1.8,2.2-.08.21-.38.42-.46.55a5.6,5.6,0,0,0-1.12,1.38c-.22.21-.31.49-.67.69-.23.42-.81.61-.83,1.18-.23.2-.45.55-.75.82a5,5,0,0,0-.49,1.41c-.08.21.06.43.05.64a3.83,3.83,0,0,0,.25.86c.28.16.19.51.47.74.83.6.86,1.53,1.69,2.06.14.22.26.66.68.74.27.51.76.75,1.1,1.19a1.38,1.38,0,0,1,.6.81l.41.44a7.4,7.4,0,0,1,1.16,1.41,2.09,2.09,0,0,1,.47.66c.28.22.63.31.76.67.55.38.52,1.23,1.29,1.48.42.09.33.58.68.81.06.15.35.23.34.44.34.3.47.66.82.82.47.73,1.31,1,1.64,1.78.48.45.73,1.1,1.14,1.54a1.34,1.34,0,0,0,.41.52c.2.43.69.53.75,1,.26.5.82.67,1,1.18.56.45.82,1.1,1.37,1.48.19.51.91.39,1,1,.07.07.13.14.06.21.63.38.88,1,1.37,1.41a9.48,9.48,0,0,0,.89.9c.47.73,1.73,1.14,1.33,2.26C297.59,294.26,297.57,294.62,297.29,294.61Z"/>
    <path class="cls-3" d="M338.13,275.72c-.2.23,0,.5,0,.72.27.83-.62,1.39-.42,2.24,0,.63-.43,1.09-.46,1.67-.05.36-.25.58-.3.87s-.45.68-.64,1c-.18.58-.5,1.17-.75,1.76h-.07a4.67,4.67,0,0,1-.72,1c-.34.16-.31.66-.74.69-.18.44-.67.69-.86,1.05a2.34,2.34,0,0,1-.39.46c-.2.23-.4.53-.6.75s-.33.31-.54.47a2.64,2.64,0,0,1-.94.84c-.13.23-.34.31-.54.54-.14-.06-.13.15-.27.16a9.78,9.78,0,0,1-1.37.95c-.27.09-.64,0-.83.34a7.36,7.36,0,0,1-1,.49,16.41,16.41,0,0,0-1.8.76c-.36,0-.7.19-1.06.21-.49.18-1.07-.07-1.49.17a12.87,12.87,0,0,1-4.66.74,18.29,18.29,0,0,1-2.15-.15,8.78,8.78,0,0,0-2-.22c-.08-.07-.29,0-.43,0-.57,0-1-.29-1.6-.33a4.74,4.74,0,0,0-1.37-.26c-.31-.34-.8-.17-1.1-.43-.51-.18-1-.22-1.52-.4-.22-.06-.37-.19-.59-.18s-.46-.46-.72-.23c-.43,0-.66-.25-1-.15-.36-.12-.65-.24-1-.36s-.59-.32-.94-.3a13.36,13.36,0,0,1-2.06-.93c-.18-.42-.74-.38-.91-.8a4.06,4.06,0,0,1-.58-2.24c.31-.74.11-1.58.64-2.19.12-.36.39-.59.37-.95.19-.3.17-.58.44-.81s.26-.38.25-.59c.19-.3.17-.65.51-1-.09-.28.05-.36.17-.58s.46-.68.43-1a1.72,1.72,0,0,1,.45-.75c.15,0,.28-.23.34-.37s.17-.66.52-.68c.72,0,.87-.92,1.61-.61a5.54,5.54,0,0,0,1.66.39c.38.33,1,.15,1.47.55.8.23,1.48.9,2.35,1a7,7,0,0,0,1.09.42c.36,0,.59.25.94.16s.6.46,1,.36c.58.1,1,.36,1.61.46s.8.3,1.22.21c.08.13.15,0,.29.05s.43,0,.72.09a8,8,0,0,0,2.28-.15c.42,0,.76-.26,1.19-.29.68-.47,1.07-1.14,1.75-1.54a2.73,2.73,0,0,0,.68-1.62,3.79,3.79,0,0,0-.15-2.34,2.25,2.25,0,0,0-.66-1.32c-.49-.89-1.51-1.18-2.25-1.7-.44,0-.68-.46-1-.5-.47-.61-1.16-.29-1.62-.76-.28,0-.44-.25-.65-.17-.22-.12-.43,0-.58-.17-.37-.12-.81-.31-1.24-.42a4.45,4.45,0,0,0-.81-.37c-.37-.19-.53-.47-1-.37-.09-.14-.22,0-.3-.12-.29-.06-.57,0-.8-.31-.5.11-.95-.29-1.53-.4-.08-.13-.29-.12-.44-.18-.44-.26-.95-.29-1.46-.55-.24-.27-.66-.17-1-.36-.59-.32-1.24-.56-1.83-.81a11.55,11.55,0,0,0-1.64-1c-.46-.47-1.12-.78-1.44-1.33-.22-.13-.24-.35-.32-.55-.47-.62-1.21-1-1.54-1.69-.32-.48-.91-.87-1-1.5-.38-.34-.4-.69-.64-1.1a5.85,5.85,0,0,1-.5-2.26l-.08-.06c.07-1.15-.56-2-.42-3.19-.14-1,.16-1.79.1-2.71.26-.45.15-1,.41-1.39-.11-.63.51-1,.55-1.46.19-.23.1-.58.15-.87,0-.57.66-.83.7-1.33.13-.29.54-.53.52-.82.34-.16.31-.59.58-.82a4,4,0,0,1,1.42-1.31c.52-.68,1.28-1.08,1.81-1.76.27-.23.62-.33.82-.55s.7-.26.74-.69a6.13,6.13,0,0,1,.88-.7,4.92,4.92,0,0,0,1-.43c.29,0,.49-.25.7-.26a1.72,1.72,0,0,0,1.18-.58,5.51,5.51,0,0,1,1.82-.55c.34-.23.84-.12,1.19-.29a24.09,24.09,0,0,0,3.25-.5,4.18,4.18,0,0,1,.93.08l.86-.05.06-.08c.77-.26,1.36,0,2.14,0l.22.13c.43,0,.73.17,1.15.07.45.25.93.08,1.37.26a8.55,8.55,0,0,1,1.8.24c.86-.05,1.47.55,2.18.57a14.57,14.57,0,0,0,1.61.47c.52.39,1.16.35,1.62.75.28.05.44.25.73.23a2,2,0,0,0,.81.38.48.48,0,0,0,.36.12c.65.17.84.8,1.22,1.2a2.12,2.12,0,0,1,0,2.07c-.32.45-.22,1-.47,1.46,0,.29-.4.46-.3.81-.53.67-.26,1.58-.79,2.19.05.78-.49,1.25-.58,2a7.24,7.24,0,0,1-1.17,1.79c-.35.09-.64,0-.9.34-.43,0-.66-.24-1.09-.21-.73-.24-1.19-.78-2-.94-.28.09-.44-.19-.72-.1a3.92,3.92,0,0,0-1.82-.59c-.52-.25-1.28.08-1.67-.46-.29,0-.58-.18-.87-.16-.37-.26-.86,0-1.22-.13a10.93,10.93,0,0,0-3.69.31c-.2.23-.57.11-.77.34-.41.17-.91.13-1.1.57a3.9,3.9,0,0,0-.56,1.25c-.19.3,0,.57-.23.87a1.48,1.48,0,0,0,.52,1.4c.09.28.46.46.55.67a3.12,3.12,0,0,0,1.63,1,6.89,6.89,0,0,0,2.13.79c.15.2.37.18.52.32s.66.24,1,.36.81.37,1.32.48c.22.13.52.4.81.38.23.27.65.1.88.37a4.78,4.78,0,0,0,1.24.42,6.24,6.24,0,0,0,1.09.28c.3.19.72.17,1,.44a8.72,8.72,0,0,1,1.48.69,10.69,10.69,0,0,1,1.62.82c.53.39,1,.57,1.56.89.36.05.53.4.82.59.9.59,1.32,1.56,2.15,2.22a7.2,7.2,0,0,1,1.32,1.62c.11.57.64,1,.88,1.51s.5,1,.88,1.44c.17.42,0,.79.15,1.14a3.71,3.71,0,0,0,.45,1.47,8.11,8.11,0,0,0,.37,1.25,8,8,0,0,1,.09,1.28C338.28,274.78,338.1,275.22,338.13,275.72Z"/>
  </g>
</svg>
