<svg xmlns="http://www.w3.org/2000/svg" viewBox="0 0 400 400"><defs><style>.cls-1{fill:#254a35;}.cls-2{fill:#deca54;}</style></defs><title>CoverYourTracks_logo</title><g id="lime_text" data-name="lime text"><g id="paw"><path class="cls-1" d="M117.85,303.12c34.15,21,22.05,50.34,51.69,59.86,34.29,11,56.36-7.1,67.33-16.32,11.2-9.41,24.24-23.9,19.54-56.6-8-22.84-4.7-32.07-14.93-49.07-6.14-11-14.45-25.2-30.72-39.45s-38.51-34.63-64-37.64c-20-2.36-34.11,7.44-45.69,6.22-13.55-1.43-21.39-10.53-37.48-9.57-25,4.44-32.89,32.37-31.73,48.77,1.4,19.92-5.5,43.68,13,63.78C69.46,299.68,87.58,285.34,117.85,303.12Z"/><path class="cls-1" d="M316.31,286.29c8.19-14.57,14.83-47.32,8.45-53.49-2.63-2.54-16.94,5.25-24.78,9.61C286.32,250,272.46,255.22,269.21,275c-1.26,7.7,2.2,19.2,7.85,26.89,3.6,4.89,13.34,9.45,19.8,7.09C307.37,305.13,308.44,299.93,316.31,286.29Z"/><path class="cls-1" d="M156.47,103.87c-5.37,7.28-14.89,18.58-17.93,33-.95,14.78,3.8,14.88,13.61,18.38,8.38,3,24.86,10.53,33.7,1.81,10.13-10,8.65-16,16.43-32.38,9.76-20.58,32-38,29-42.37S214,73.92,192.35,80.13C182.14,83.06,164.5,93,156.47,103.87Z"/><path class="cls-1" d="M234.93,109.42c-13.09,13.5-36.75,35.33-39.77,55.81-1.56,10.57,6.45,18.51,20,27.54,16.05,10.72,20.49,7.37,31.81,0,15.85-10.32,41-45.61,48.73-67,6.24-17.22,5.16-33.16.72-37.7-3.12-3.19-11.54-3.34-26.43.46C257.69,91.72,244.3,101.2,234.93,109.42Z"/><path class="cls-1" d="M315,214.39c9.26-17.28,12.54-64,0-70.17-9.63-4.76-31.94,31.91-49.32,47.07-7.45,6.51-16,12.26-24.53,18.68s17.53,30.9,36.59,31C294.35,241.05,308.38,226.74,315,214.39Z"/><path class="cls-1" d="M102,89.33c-16,10-26.32,19.84-28.66,38.62.14,10.71,1.23,17.66,10.24,24.94,13.41,8,29.54,8.26,39.76-6.18,7.55-13.41,3.38-7,20-42.6,3.46-7.43,14.37-19.32,8.6-24.86C146.69,74.31,116.62,81.05,102,89.33Z"/><path class="cls-1" d="M156.36,64.12l27.71-13.79c6.86-3.23,12.86,2.14,5.08,7.23s-23.38,19-23.38,19a3.45,3.45,0,0,1-4.45.78l-9-3.94C150.16,72.11,152,67.14,156.36,64.12Z"/><path class="cls-1" d="M222.33,68.2l48.1-31.34c4.54-2.49,4.55,2.56,3.19,4.81L250.8,69.33c-1.56,2.58-7.32,7.92-10.8,6.81l-17.06-4A2.34,2.34,0,0,1,222.33,68.2Z"/><path class="cls-1" d="M311.38,85.21l20.29-46.43a3.75,3.75,0,0,0-6-4.15l-38,36.7a3.74,3.74,0,0,0,2.09,6.42l5.8.75a11.72,11.72,0,0,1,6.15,3.16l4.08,4C306.94,87.28,310.26,87.93,311.38,85.21Z"/><path class="cls-1" d="M329,143.36l9.92-51.92c1-2.36-1.7-6-4.89-1.06l-25.89,43.2c-1.51,3.74,7.15,1.83,11.1,4.24C322.55,139.88,326.93,147.28,329,143.36Z"/><path class="cls-1" d="M337.26,233.18l9.24-43.82a2,2,0,0,0-3.65-1.49l-20.68,32.42a2,2,0,0,0,1.08,3l5.4,1.75a2,2,0,0,1,1.19,1l3.66,7.59A2,2,0,0,0,337.26,233.18Z"/></g><g id="text"><path class="cls-2" d="M96.65,164.59c-.21.15-.28.5-.63.57a5.74,5.74,0,0,0-.71.63c-.35.14-.63.42-1,.56s-.77.35-1.12.56-.49.42-.77.35c-.14.35-.57.21-.78.42a8,8,0,0,1-1.12.64c-.21.28-.63.14-.77.56a18.25,18.25,0,0,1-1.83.56c-.21.21-.56.07-.77.28s-.84,0-1,.42a3.82,3.82,0,0,1-2,.35,16.67,16.67,0,0,1-1.82.35,6.41,6.41,0,0,1-1.13.21c-1.68.07-3.37.28-5,.22-.42-.36-.91,0-1.41,0s-1-.29-1.47,0a2.58,2.58,0,0,1-1.62-.5c-.49-.21-1.12-.14-1.61-.49a4.25,4.25,0,0,1-1.41-.28c-.49.07-.77-.28-1.19-.28a5.49,5.49,0,0,0-1.47-.63c-.28.14-.49-.07-.7-.07a1.65,1.65,0,0,1-.43-.28c-.77-.35-1.47-.84-2.17-1.2-.35-.07-.63-.21-.91-.28-.5-.35-.85-.84-1.41-1.19a1.52,1.52,0,0,0-.63-.49,4.25,4.25,0,0,0-1.19-1,10,10,0,0,0-1.69-1.68A26.7,26.7,0,0,1,54,160c-.28-.35-.21-.84-.56-1.12-.14-.28-.28-.49-.42-.77s-.21-.71-.63-.85c-.07-.63-.63-1-.84-1.47s-.43-.63-.43-1c-.14-.14-.14-.35-.21-.56-.35-.36-.07-.92-.42-1.34,0-.56-.77-.84-.7-1.47s-.63-1.06-.49-1.69a8.46,8.46,0,0,0-.35-1.26c-.21-.42,0-1.06-.21-1.48a2,2,0,0,0-.14-.63c-.21-.84.21-1.68,0-2.6a5.3,5.3,0,0,0,.07-1.05l.07-.07c-.28-.63.07-1.19,0-1.89v-.08c0-.56.35-1.12.21-1.82a.75.75,0,0,0,.14-.42,6.29,6.29,0,0,1,.35-1.55,5.83,5.83,0,0,1,.28-1.05c.21-.7.49-1.4.7-2.11.07-.35.14-.63.21-1s.49-.49.49-.84c.36-.56.21-1.26.78-1.69.07-.35.42-.56.49-.91.42-.84,1.4-1.47,1.75-2.38,0-.36.49-.57.49-1a8.47,8.47,0,0,0,1.13-1.19c.21-.14.42-.35.63-.35a.93.93,0,0,1,.42-.35c.42-.5.91-.92,1.26-1.34,0-.21.14-.14.22-.21.28-.28.56-.7,1-.84.49-.35,1-1,1.61-1.12a4.82,4.82,0,0,0,1-.57c.35,0,.56-.28.84-.35.28-.35.7-.35,1-.56.63-.84,1.48-.84,2.18-1.4.28,0,.56-.21.84-.21.63-.14,1.12-.42,1.75-.56.64-.64,1.62-.43,2.46-.71.35-.35,1.06-.14,1.41-.35.21.07.35-.07.49-.14a4.11,4.11,0,0,0,1.61-.28c.35.07.64-.14,1-.21a6.22,6.22,0,0,1,1.61-.07c.21-.07.42.07.7.14a21.72,21.72,0,0,1,3,.07,11.39,11.39,0,0,1,1.62.28c.28,0,.49,0,.63.14.56.21,1.19,0,1.68.21.85.21,1.69.49,2.53.63a.42.42,0,0,0,.42.21c.35.14.56.5,1,.5.07.14.21.07.36.14s.35.35.63.28c.28.21.7.21,1,.42.14.21.35.21.56.28s.35.21.56.28a9.24,9.24,0,0,1,1.9,1.4c.28.08.49.36.84.43s.28.56.63.77l.85.77c.28.07.35.42.56.56a1.22,1.22,0,0,1,.49,1.13c-.28.56-.28,1.26-.84,1.68,0,.21-.35.21-.35.49a2.82,2.82,0,0,0-.85,1,7.07,7.07,0,0,1-.91,1.12c-.28.49-.84.7-1.12,1.19a6.43,6.43,0,0,0-1.13.77c0,.57-.7.71-1,.92a3.71,3.71,0,0,1-1,.56c-.42-.07-.7.07-1.13,0-.06.14-.14.07-.21,0a6.87,6.87,0,0,1-1.26-.56c-.35-.57-1-.5-1.47-.92-.43,0-.57-.63-1.06-.56-.21-.21-.56-.07-.84-.28-.28,0-.42-.28-.7-.21s-.77-.35-1.13-.35l-.07-.07a11.59,11.59,0,0,1-2.24-.21c-.28-.28-.77.07-1.06-.21a1.94,1.94,0,0,1-1.26,0c-.63-.21-1,.49-1.61.28-.5.21-1-.07-1.48.21-.28-.07-.56.21-.91.21a1.45,1.45,0,0,1-.7.42c-.35.21-.63.21-.91.42l-.08-.07c-.07.14-.35.07-.49.14-.35.07-.63.49-.91.63s-.49.36-.77.36l-.84.42c-.36.21-.85.42-.92.91-.21.07-.56,0-.56.35-.07.07-.07.28-.21.35-.42.49-1.33.77-1.54,1.55,0,.07-.14.14-.14.21l-.07.07v.14c-.92.56-1,1.54-1.62,2.24-.21.35-.28.85-.49,1.2s-.07.7-.28,1.05a4.94,4.94,0,0,0-.49,2.67c-.28.63-.07,1.33-.28,2a1.17,1.17,0,0,0,.14.71,4.73,4.73,0,0,0,.35,2.24c-.07.42.35.71.21,1.13.21.28.14.63.21.91a11.42,11.42,0,0,0,.63,1.33c.42.49.56,1.2,1.12,1.69a3.89,3.89,0,0,1,.92,1.47,4.25,4.25,0,0,0,1,.7c.35.43.91.5,1.19,1s.7.84,1.2,1.19c.56.14,1,.7,1.54.84a5,5,0,0,0,1.33.64c.15,0,.29.14.43.21a9.46,9.46,0,0,0,2,.35,13.87,13.87,0,0,0,2.39.21c.07.14.14,0,.21,0a1,1,0,0,1,.49.07c.42-.14.84,0,1.34-.14a16.83,16.83,0,0,0,2.59-.21c.21-.21.56-.21.85-.28.56-.35,1.26-.29,1.75-.71a1.19,1.19,0,0,1,.49-.07c.91-.63,1.62-1.54,2.74-1.75a2.25,2.25,0,0,1,1.41-1c.27-.15.49-.43.84-.29s.56.57,1,.57a3.37,3.37,0,0,1,1.12.84,2.41,2.41,0,0,1,.56.63,2.42,2.42,0,0,0,1,.84c.14.42.56.57.77,1a5.84,5.84,0,0,1,1.61,1.33c.22.35.71.42,1,.84.21.07.21.35.49.35a8.6,8.6,0,0,1,1,1.2c.07.28.49.49.35.91C98.12,163.4,97.28,164,96.65,164.59Z"/><path class="cls-2" d="M154.51,148.89a4,4,0,0,0-.14.9c.07.62-.34,1.1-.34,1.72a1.59,1.59,0,0,1-.21.82c.07.35-.41.49-.28.83-.07.07-.07.21-.2.28.07.34-.21.48-.28.75,0,.42-.41.69-.41,1.11-.07.62-.62,1-.69,1.65a4.68,4.68,0,0,0-.69,1.72c-.28.35-.48.83-.76,1.24,0,.42-.55.62-.55,1.1s-.41.42-.48.76c-.28.14-.35.55-.62.76a1.5,1.5,0,0,0-.41.55c-.14.28-.49.28-.56.62a4.88,4.88,0,0,0-1,1c-.41.07-.69.42-1,.55-.21.28-.49.35-.62.62s-.55.56-.76.83c-.28-.07-.35.28-.55.35-.42.27-.76.41-1.17.68a3.78,3.78,0,0,0-1.24.9,2.15,2.15,0,0,0-1,.41c-.34,0-.48.35-.82.28-.42.14-.69.69-1.17.69a5.81,5.81,0,0,1-1.11.41,8.09,8.09,0,0,0-1.93.76c-.27.14-.62-.07-.82.27a6.47,6.47,0,0,1-1,.42,12.74,12.74,0,0,0-1.58.34c-.28.07-.48.07-.76.14s-.48,0-.76.14a10.17,10.17,0,0,1-1.44.2c-.62.07-1.24,0-1.93.07-.62-.14-1.31.14-1.93-.07-.69.21-1.38-.13-2-.07-.27-.2-.75-.13-1.1-.27-.55-.21-1.1.07-1.58-.21a6.65,6.65,0,0,0-1.59-.41,5.81,5.81,0,0,1-1.65-.69,1.35,1.35,0,0,0-.62-.14,2.82,2.82,0,0,0-.69-.27c-.14-.14-.27-.14-.41-.28a12.24,12.24,0,0,0-1.66-.83c-.55-.27-1-.75-1.51-1-.07-.2-.28-.14-.35-.27s-.41-.14-.48-.35c-.27-.14-.34-.48-.62-.55-.48-.14-.89-.62-1.38-.83-.2-.27-.48-.41-.68-.68a2.47,2.47,0,0,1-.83-.56c-.21-.41-.76-.41-.83-.89-.48-.62-1.24-1-1.58-1.79a3.67,3.67,0,0,1-.62-.83,8.2,8.2,0,0,0-.69-1c-.07-.35-.41-.48-.48-.83a2.87,2.87,0,0,0-.42-.55c-.06-.55-.62-.83-.62-1.38-.13-.27-.41-.34-.34-.69-.14-.27-.41-.48-.41-.75-.28-.28-.21-.69-.49-1,0-.14-.2-.2-.13-.41-.21-.28-.21-.76-.42-1h.07c-.14-.14-.07-.28-.14-.35-.2-.41-.55-.76-.55-1.24a9.65,9.65,0,0,1-.34-1.45c-.14-.27.07-.75-.14-1a19.38,19.38,0,0,1-.21-2l-.2-.27V143.1l.07-.06c.13-.55,0-1,.13-1.59-.06-.76.21-1.51.21-2.27.14-.14,0-.48.21-.62a5,5,0,0,1,.41-1.45c0-.41.35-.76.35-1.17l.13-.41a7.18,7.18,0,0,1,.42-1.11,6.86,6.86,0,0,1,.69-1.65c.06,0,0-.07.06-.14.49-.34.49-.89.83-1.37.07-.28.41-.49.48-.76.55-.48.49-1.31,1.11-1.72a5.85,5.85,0,0,0,1-1.59,2.93,2.93,0,0,0,.69-.89c.41-.42.82-.62,1.17-1a1.62,1.62,0,0,0,.69-.82c.27-.28.62-.28.89-.69s.62-.28.83-.62.83-.35,1-.69c.21.07.28-.14.48-.21s.62-.62,1.11-.69c.27,0,.41-.34.69-.34a4.48,4.48,0,0,1,.82-.41c.28-.07.48-.28.76-.28a3.43,3.43,0,0,1,.48-.27c.07,0,.14-.07.28-.14a13.65,13.65,0,0,0,1.38-.69c.48-.35,1.1-.21,1.65-.48.55,0,1-.35,1.65-.35s1-.34,1.45-.48c.82-.21,1.72-.07,2.62-.34l1.65-.07c.07.13.27,0,.34.13l.21-.06a9.42,9.42,0,0,1,2.75.13c.14-.07.42-.13.56,0a6.26,6.26,0,0,1,1.1.21,1,1,0,0,0,.62.07c.14.14.41,0,.55.07s.55.07.83.14a2,2,0,0,1,.55.06c.2.28.62.07.89.28a9.56,9.56,0,0,0,1.24.48c.35,0,.62.28,1,.35.27,0,.48.27.82.27.42.21.76.62,1.24.69.07.21.28,0,.35.21.41,0,.62.48,1,.41l1,.62c.14,0,.21.21.42.21.34.2.55.62,1,.76.28.41.83.55,1.1,1a9.18,9.18,0,0,1,1.24,1.17,20.87,20.87,0,0,1,1.86,1.65c.48.69,1.31,1.24,1.66,2.07.2.14.41.28.41.55.41.41.69.9,1,1.31.14.69.83,1.17,1.17,1.79a20.54,20.54,0,0,0,1.11,2.14,1.36,1.36,0,0,0,.55,1c.13.62.41,1.17.48,1.72a.87.87,0,0,1,.27.9c.14.14.07.34.21.48s.21.48.28.76a3.15,3.15,0,0,1,.27,1.38c.07.06,0,.27.07.34a10.47,10.47,0,0,0,.35,1.58c.06,1.73,0,3.31,0,5.1A3.76,3.76,0,0,0,154.51,148.89Zm-13.43-3.72c-.14-.07,0-.14-.07-.21.34-.06-.07-.34.13-.48a2.58,2.58,0,0,1,0-1c-.2-.55-.13-1.31-.34-1.86.14-.69-.41-1.17-.48-1.79-.28-.42-.48-.9-.76-1.38-.21-.21-.21-.55-.48-.69a26,26,0,0,0-2.55-3.1c-.34,0-.62-.34-.9-.62-.2-.62-1-.76-1.37-1.17a22.28,22.28,0,0,1-2.14-1c-.55-.14-1.1-.35-1.72-.55-.14-.21-.41,0-.62-.14-.76.14-1.31-.42-2-.14l-.41-.07a8.19,8.19,0,0,0-2.21-.07c-.27.14-.55,0-.82.21-.35-.07-.76.21-1.1-.07-.21.07-.49,0-.62.28-.56-.07-.76.55-1.31.41-.42.62-1.1.48-1.52,1a5.08,5.08,0,0,0-1.31.76c-.34.34-.75.55-1.17.9s-.69.75-1,1.17a5.74,5.74,0,0,0-1.45,1.93,7.15,7.15,0,0,0-.55.89c-.07.28-.27.48-.27.83-.21.07-.21.27-.28.41a2.65,2.65,0,0,0-.41,1.24.72.72,0,0,1-.14.55c0,.55-.35,1-.21,1.59a4.09,4.09,0,0,0-.14,2,8,8,0,0,0,.07,1.24c0,.28-.13.56.07.76-.2.83.42,1.38.42,2.14a1.12,1.12,0,0,1,.27.48c-.14.48.41.55.28,1,.27.28.27.69.62.9a6.34,6.34,0,0,0,1,1.38c.14.2.28.41.41.62.35.68,1.24.82,1.38,1.58.55.21.9.69,1.38,1s.9,1,1.45,1.24a2.22,2.22,0,0,0,1.24.62,5.94,5.94,0,0,0,1.79.83c.41.28,1,.21,1.44.35.14.27.49.06.62.27.55-.07,1,.35,1.59.14a10.4,10.4,0,0,0,3-.21c.55.07,1-.27,1.45-.34.41-.35,1-.28,1.44-.55s1.1-.28,1.52-.76c.2.07.34-.28.55-.28.27-.41.69-.48,1-.82.35-.14.48-.55.83-.69.69-.14,1-1,1.58-1.38.14-.07.07-.28.28-.28.21-.41.69-.75.83-1.17-.14-.48.34-.62.48-1a5.86,5.86,0,0,1,.27-1c.07-.27.28-.62.35-1a4,4,0,0,0,.48-1.24c.14-.21.27-.55.14-.76.13-.27,0-.55.13-.75-.06-.83.28-1.52.07-2.28Z"/><path class="cls-2" d="M205.78,119.13c-.13.42-.53.77-.45,1.25s-.39.77-.38,1.18a4.82,4.82,0,0,0-.58,1.67,4.51,4.51,0,0,0-.37,1.67c-.39.76-.58,1.66-1,2.43a9.8,9.8,0,0,1-.45,1.32,3.83,3.83,0,0,0-.25.84c0,.41-.26.62-.18,1a1.24,1.24,0,0,0-.2.35c-.19.55-.67,1-.65,1.6-.06.41-.26.62-.25,1-.06.21-.06.41-.26.49v.2c-.13,0-.13.14-.13.21-.2.22-.06.42-.26.63a10,10,0,0,1-.71,1.81,11.46,11.46,0,0,0-1,2.71,5.38,5.38,0,0,0-.39,1.11c-.33.29,0,.9-.38,1.19a8.15,8.15,0,0,0-.38,1.25,2.64,2.64,0,0,1-.19.69,7.17,7.17,0,0,1-.65,1.53c-.18,1-.64,1.81-.76,2.71a2.09,2.09,0,0,1-.52,1.05c-.06.27-.33.49-.32.76a17.77,17.77,0,0,0-1,3.06,7,7,0,0,1-.9,2.37,10.72,10.72,0,0,0-.31,1.45.93.93,0,0,1-.33.63c-.25,1-.63,2-.95,3.06-.26.62-.45,1.32-.78,2,0,.48-.39.9-.44,1.38a1.45,1.45,0,0,1-.26.77c0,.34-.26.56-.25.9-.2.21-.13.49-.33.7,0,.21-.19.42-.19.69-.2.15-.19.49-.32.77a2.06,2.06,0,0,0-.19.69c0,.28-.26.42-.19.77a19,19,0,0,1-.78,1.74c.15.41-.4.56-.39.9-.26.49-.75.37-1.08.65a19.75,19.75,0,0,1-2.9.08c-.75.09-1.57.52-2.4.2a12.66,12.66,0,0,0-2.27.13,12.12,12.12,0,0,0-2.27.06l-1.24.1c-.07-.14-.28-.07-.42-.06-.14-.27-.49-.33-.56-.61-.21-.06-.22-.34-.36-.4a3.3,3.3,0,0,1-.51-1.09c-.28-.27-.22-.62-.43-.82-.37-.68-.39-1.5-.95-2.11a5.42,5.42,0,0,1-.52-1.36c-.37-.75-.66-1.5-1-2.18-.09-.76-.66-1.29-.88-2.05a7.64,7.64,0,0,1-.59-1.36,3.43,3.43,0,0,1-.36-.75c-.64-.46-.59-1.22-.81-1.91-.36-.47-.38-1.23-.73-1.7a9.29,9.29,0,0,0-.59-1.43c-.29-.41-.3-.82-.65-1.16-.14-.13-.08-.48-.29-.61a7.92,7.92,0,0,0-.45-1.16c-.49-.33-.23-1-.65-1.43-.09-.75-.65-1.08-.74-1.84-.14-.2-.08-.48-.36-.54-.07-.14-.08-.34-.15-.55a3.24,3.24,0,0,0-.36-.61c-.29-.47-.44-1-.73-1.57a9.1,9.1,0,0,1-.81-1.83c-.14-.35-.5-.68-.44-1-.15-.41-.36-.75-.44-1.09-.35-.33-.36-.82-.65-1.15a2.2,2.2,0,0,1-.22-.62,5.76,5.76,0,0,1-.44-.95c-.28-.41-.3-1-.59-1.36-.15-.62-.44-1-.59-1.57a3.93,3.93,0,0,1-.36-.75,9,9,0,0,1-.67-1.71c-.23-1-1.08-1.9-1.38-3-.29-.27-.23-.76-.51-1a6.45,6.45,0,0,0-.51-1.16,7.52,7.52,0,0,0-.89-2.18,5,5,0,0,1-.65-1.36c-.21-.21-.22-.55-.44-.82a5,5,0,0,0-.36-.89,20.21,20.21,0,0,1-1-2.8,3.16,3.16,0,0,1-.1-1.17c.07,0,.07-.07.06-.2a1.85,1.85,0,0,1,1.23-.38,8,8,0,0,1,2.2-.2c.15.21.42.06.56.13,1,.11,2.13-.19,3.16-.15s1.86,0,2.76,0c.9.19,1.78-.39,2.68-.06a1.44,1.44,0,0,1,.91.32,4,4,0,0,1,.73,1.7,4.63,4.63,0,0,1,.51,1,6.35,6.35,0,0,0,.44,1.16c0,.35.3.61.37,1s.37.81.52,1.22c.34.13.15.55.5.68,0,.21.21.34.29.54s0,.55.22.75c0,.14.15.21.22.34l.08.69c.29.48.58.88.86,1.29,0,.76.73,1.22.47,1.91a9.68,9.68,0,0,1,.94,1.91,4.94,4.94,0,0,0,.37.82c.07.27.29.47.36.81s.22.41.3.62.15.54.36.75a5.76,5.76,0,0,0,.44.95c.22.75.79,1.22.95,2,.16,1.1.87,1.91,1,3,.21.33.23.75.51,1s.08.41.29.54.15.48.29.61a2.54,2.54,0,0,0,.37,1c.28.27.23.75.58,1.08.14.21.08.55.29.76a11.54,11.54,0,0,0,.74,1.63c.07.34.36.61.43,1s.5.61.38,1.1c.08.41.36.68.44,1.09s.36.54.37.88.35.34.56.4a1,1,0,0,0,.75-.29c.26-.42.25-1,.58-1.53,0-.49.39-.77.38-1.18l.77-2.23c.34-.15.26-.63.46-.91a13.46,13.46,0,0,0,.44-1.59.07.07,0,0,0,.07-.07,4,4,0,0,0,.31-1.18c-.07-.28.27-.42.19-.7a5.39,5.39,0,0,0,.77-2.08,7.47,7.47,0,0,0,.39-1.12c.2,0,.06-.21.13-.35s.06-.27.12-.34c.34-.36.05-.83.32-1.18a12.08,12.08,0,0,1,.44-1.53,2.26,2.26,0,0,0,.52-1.12c.14,0,.14-.14.2-.28a3.28,3.28,0,0,0,.26-.9,1.25,1.25,0,0,0,.32-.83,8.62,8.62,0,0,0,.71-1.68.78.78,0,0,1,.2-.55c0-.28.19-.49.18-.77a.38.38,0,0,0,.2-.35c.34-.28.19-.76.39-1.11,0-.69.52-1.18.5-1.94a4.86,4.86,0,0,1,.64-1.67c-.07-.21.13-.35.12-.56s.2-.34.2-.55c.12-.56.59-1,.71-1.6.13-.42.4-.84.52-1.33a7,7,0,0,0,.39-1.11c-.08-.2.2-.28.12-.55.13-.15,0-.35.19-.49.34-.49.46-1,1-1.34.27-.42.89-.43,1.44-.52.48.06,1.16-.16,1.52.17a5.12,5.12,0,0,1,2.27-.06c.7.33,1.23-.3,1.92-.25l.41-.08c1.38,0,2.55,0,3.93,0a5.42,5.42,0,0,1,.91.39c.07.28.49.54.15.9v.27C205.84,118.72,205.91,119,205.78,119.13Z"/><path class="cls-2" d="M250.62,171.55c-.08.27,0,.55-.22.75a2.18,2.18,0,0,1-1.79.4,4,4,0,0,0-2.21,0c-1.31-.08-2.61,0-3.85-.1a5.93,5.93,0,0,1-1.93,0,11,11,0,0,1-2.2-.09c-.21-.2-.49-.07-.76-.14-2.07-.22-4.07.45-5.93-.05h-.48l-1.51-.08c-.14.07-.35.07-.56.14a21,21,0,0,0-3,0c-1,0-2.13,0-3.17,0-.2-.07-.48,0-.68-.07a15.54,15.54,0,0,1-1.65-.22c-.35-.21-.63.2-1,.06l-.14-.07c-1-.08-2.13.05-3.1,0-1.09-.35-2.27,0-3.37-.17l-.07-.07c-.48-.07-1-.07-1.44-.15-1.11-.14-2.28.26-2.89-.78-.27-.55,0-1.17-.19-1.72.07-.55-.13-1.17.15-1.65.15-1.45,0-3.17.25-4.69-.14-.48.08-1-.2-1.44a18.2,18.2,0,0,0,.1-3.38,3.15,3.15,0,0,0,.09-1.58c.07-.62.14-1.24.15-1.86.14-.21.07-.55.14-.76s.15-.55-.06-.83a23,23,0,0,0,0-3.1c0-.75,0-1.58.09-2.34.14-.34,0-.62,0-1a16.81,16.81,0,0,1,.1-3.17c-.13-1-.19-1.93-.25-2.89a10.48,10.48,0,0,1,.1-3.86c0-.07-.06-.21.08-.27-.07-.28-.14-.56.07-.76a3.87,3.87,0,0,1,.15-1.79c-.06-.35-.2-.62-.06-1,.15-.55-.26-1,0-1.58-.07-.21.07-.41-.13-.62l0-2.55c-.34-.48.08-1.24-.19-1.72-.2-1.24.22-2.55.1-3.79,0-.9-.12-1.86-.05-2.83.42-.2.42-.68.43-1.09s.41-.34.48-.69a2.72,2.72,0,0,1,1.32-.47c1.79.09,3.58,0,5.44,0,.48.28,1-.13,1.58,0a14.26,14.26,0,0,0,1.72,0c.49,0,.9.21,1.31,0,1.38.29,2.76-.25,4.07.1h1l.14.14h1.1c.27.21.69.07,1,.15.76-.14,1.45,0,2.14-.12.07,0,.07.06.07,0H231a10.87,10.87,0,0,1,1.51,0h.14a14.3,14.3,0,0,0,2.48.16c1.1.22,2.27,0,3.3.17a18.35,18.35,0,0,0,2.07-.12,6.35,6.35,0,0,0,1-.13c1.44.15,3,0,4.47,0,.35-.14.76.14,1.1,0a2.49,2.49,0,0,1,.69.21c.21.07.55,0,.76.21.34-.06.48.28.75.35a.64.64,0,0,0,.41.42c.27.35.2.76.41,1.1a.65.65,0,0,1-.08.69,24,24,0,0,0,.17,3.79c-.27.41-.07,1-.28,1.52a17,17,0,0,1-.24,3.3c-.28.55-.15,1.31-.84,1.65a9,9,0,0,1-1.86.12c-.14-.07-.28.13-.34,0a11,11,0,0,1-1.52-.09l-.07-.07c-2.27,0-4.54,0-6.75-.26-1.86,0-3.78-.1-5.64-.12l-1.93-.08a7.66,7.66,0,0,0-1.79.05c-.9-.15-1.93-.09-2.76-.23-.34,0-.55.13-.89.13v-.07a4.86,4.86,0,0,0-2,.4c-.28.34-.56.82-.29,1.23a5,5,0,0,0,.06,1.45c-.28.41.12,1-.29,1.44.2.9-.36,1.86.46,2.49a6.76,6.76,0,0,0,1.37.77l.07.07a39.27,39.27,0,0,0,4.82.18c.34-.21.9-.07,1.31-.06,1.37.08,2.68,0,4,.1a20.42,20.42,0,0,1,2.07,0c.14.21.34.07.55.07a12.85,12.85,0,0,0,2.82-.11c1.66-.05,3.24.3,4.89.32a6.3,6.3,0,0,0,1.65.15c.21.21.55.14.76.35s.2.28.27.35c.06.62.68,1,.4,1.79,0,.42-.21.9,0,1.31a21.59,21.59,0,0,1,.11,3,16.22,16.22,0,0,0,0,2.62c-.35.69.19,1.66-.44,2.27-.14.14-.27.34-.48.34s-.56.27-.9.27c-.48-.21-.9.27-1.45.12-1-.14-2.06-.08-3.1-.16a6.36,6.36,0,0,0-1.23-.08c-1.52.19-3.31-.17-4.83,0-.55.13-1.1-.15-1.65-.09a41.16,41.16,0,0,1-4.13-.1,22.27,22.27,0,0,1-4.34-.18c-.34-.14-.76.07-1.1-.14a1.46,1.46,0,0,0-1.45.4c-.21.34-.28.82-.56,1.09a2.77,2.77,0,0,0,0,1.31,7.82,7.82,0,0,1,.05,1.73,15.91,15.91,0,0,0-.09,2.54c.07.28,0,.62.2.76,1.24.63,2.89,0,4.27.38a5.59,5.59,0,0,1,2.13.09,18.68,18.68,0,0,1,2.69.16c2.41.09,4.89,0,7.23.2.27.07.62,0,.82.15.62-.13,1.17.15,1.8,0,1.72-.05,3.44-.1,5.16-.23a19.76,19.76,0,0,1,2.76.23c.41.28,1,.29,1.16.84-.21.48.2,1-.15,1.44.13.83-.15,1.66,0,2.48-.15,1,.12,2,0,3,.14.48.06,1,.2,1.45C250.91,169.62,250.62,170.58,250.62,171.55Z"/><path class="cls-2" d="M305.42,171.76a1,1,0,0,0-.14.48v.07c-.28.07-.41.28-.69.28a.29.29,0,0,1-.21.06c-.06-.06-.2,0-.34-.06l-.07.06c-.89.14-1.79,0-2.75.14-.49-.07-1,.14-1.52-.14a4.91,4.91,0,0,0-1.38,0c-.41-.13-.82.07-1.31-.06a1.94,1.94,0,0,1-1.37-.07h-1.18a.88.88,0,0,0-.61-.07,20.82,20.82,0,0,1-4.62-.21c-.14-.14-.34-.14-.34-.34-.42-.42-.9-.69-1.31-1-.21,0-.21-.2-.42-.27-.34-.35-.62-.48-.82-.83s-.62-.55-.83-1c-.48-.48-1-1-1.51-1.52a9.7,9.7,0,0,1-1.59-1.79c-.34-.34-.55-.76-.89-1.1a24.27,24.27,0,0,1-2.07-2.48c-.35-.07-.48-.48-.83-.69s-.27-.41-.48-.55a11.85,11.85,0,0,0-1.17-1.38c-.14-.34-.48-.48-.76-.69-.14-.41-.62-.69-.89-1a4.62,4.62,0,0,0-1.59-.62c-.83,0-1.58-.41-2.41-.14a.92.92,0,0,0-1,.48c0,.14-.21.28-.14.42,0,.34-.34.55-.14.82a24.44,24.44,0,0,0,.07,3.24,2.94,2.94,0,0,0-.07,1.1,4.21,4.21,0,0,0-.14,1.31c.14.28,0,.62,0,.9v.62c-.13.76.07,1.65,0,2.55a1.18,1.18,0,0,1,.14,1c.14.41-.14.9.14,1.24a2.08,2.08,0,0,1-1,1.93c-.14.07-.35.07-.49.21a17.25,17.25,0,0,0-3.37,0,8,8,0,0,1-2.55-.07,23.58,23.58,0,0,1-3,.07c-.21.06-.41-.07-.62.06-.69,0-1.38-.13-2-.13a2.56,2.56,0,0,1-.9-.76c-.41-.69,0-1.59-.13-2.34.13-.28-.07-.69.07-1,.27-.62.06-1.44.27-2.13,0-.28-.21-.55-.07-.83.07-.82-.07-1.86,0-2.68a.77.77,0,0,0,.07-.55,14,14,0,0,1,0-2.42c0-2.27-.21-4.27,0-6.4a4.63,4.63,0,0,0-.14-1,34.22,34.22,0,0,1,0-3.79,14.28,14.28,0,0,0,.14-1.79c-.14-.55.07-1.3-.07-1.86,0-.13-.07-.27.07-.34-.07-.41,0-.83-.07-1.24s-.14-.62-.14-1h.07a11.36,11.36,0,0,0,.14-2.21c-.07-.62-.14-1.31-.21-1.93.14-.27-.06-.55,0-.75a7.26,7.26,0,0,0,.14-1.73,1.1,1.1,0,0,0,0-.82c0-.14-.07-.35,0-.49-.07-.69,0-1.37-.07-2.06.14-.07.07-.21.14-.28V132a3.34,3.34,0,0,1,0-1.18l-.07-.06a21,21,0,0,0,.07-3c-.07-.34.07-.75,0-1.1a25.56,25.56,0,0,1-.14-3.24,2.45,2.45,0,0,1,0-1.37,5.57,5.57,0,0,1,.28-2.83c.14-.27.21-.62.34-.89.42-.55,1.11-.21,1.59-.55a15.31,15.31,0,0,1,1.79-.07c.07.13.14.07.21.07a.49.49,0,0,0,.41,0l1.38.06a2.65,2.65,0,0,0,1,.07c.62-.07,1.24,0,1.79-.07,1.59-.13,3,.21,4.69.21.07-.07.27,0,.41-.07s.07.07.14.07h.07c.75.07,1.51-.14,2.27-.14.41-.07.83.07,1.17-.07a1.45,1.45,0,0,0,.55,0l.07.07c.83.07,1.65-.34,2.48-.13a4,4,0,0,0,1.24-.07c.89.13,1.72.13,2.62.2a7.7,7.7,0,0,1,2.75,0c.14,0,.28-.07.42,0,1.24.21,2.27-.07,3.51.14a5.15,5.15,0,0,1,2.27.35c.35,0,.69.13,1.1.13,0,.07.21,0,.28.14a11.24,11.24,0,0,0,1.38.62c.48.28,1.1.28,1.51.55a.6.6,0,0,1,.35.21,2.12,2.12,0,0,0,.82.55c.28.14.42.28.69.41.35.42.83.49,1,1,.56.2.83.62,1.31,1,.28.14.62.28.69.62.21.62,1,.62,1.17,1.24.28.07.28.35.49.42s.2.48.41.68a7.19,7.19,0,0,0,.34.69c.42.42.49.9.9,1.31a6.51,6.51,0,0,1,.62,1.17,2.59,2.59,0,0,0,.27.62,9.46,9.46,0,0,0,.62,1.93c.21.14,0,.48.21.62,0,.14.14.28.14.48s-.07.42.14.48a2.23,2.23,0,0,0,.13.69c.21.69.14,1.38.28,2.07a17.74,17.74,0,0,1,0,1.93.87.87,0,0,0,0,.83,9.1,9.1,0,0,1-.28,2c-.13,1-.34,1.86-.55,2.83-.41.55-.07,1.44-.62,1.93-.07.34-.2.69-.27,1a1.68,1.68,0,0,0-.21.34c-.14.49-.55.83-.76,1.31-.41.28-.41.76-.82,1a4.5,4.5,0,0,1-1.45,1.72c-.34.34-.48.76-.89,1s-.35.9-.83.83c-.55.27-1,.76-1.59,1-.2.35-.62.07-.82.48-.28.14-.41.42-.76.42a.57.57,0,0,0-.28.27c-.2.35-.55.42-1,.49a1,1,0,0,0-.83.48v.07c-.06.07,0,.2-.13.2a2,2,0,0,0,.2.9c.21.21.28.55.62.62a6.4,6.4,0,0,1,.62.83c.28.2.41.55.83.68.21.35.82.69,1,1.11.69.62.83,1.58,1.72,2a7.71,7.71,0,0,1,1.11,1.38c.55.28.68,1,1.24,1.31.2.28.48.55.75.9.21.06.28.48.62.62a4.3,4.3,0,0,1,.83,1.17c.28.13.28.34.55.48s.41.27.62.55c.35.48.9,1,1.31,1.45.21.27.62.41.62.82.14.21.28.48.21.62A.26.26,0,0,0,305.42,171.76Zm-13.92-36.3c-.2-.14-.13-.42-.2-.62s-.28-.48-.35-.76c-.34-.28-.2-.69-.55-.9-.27-.75-1-.82-1.44-1.44a2.49,2.49,0,0,1-.63-.28c-.2-.13-.55-.27-.82-.41s-.42,0-.55-.21a7.18,7.18,0,0,1-2.14-.27c-.41-.07-.89,0-1.31-.07a2.76,2.76,0,0,0-1.31,0l-1.92-.07c-1.73.07-3.24.07-5,.14-.28-.07-.55.14-.9-.07a11.28,11.28,0,0,0-3,.21c-.14.06-.21.27-.41.2a1.62,1.62,0,0,0-.35,1.38c-.07.48,0,1-.07,1.45a22.48,22.48,0,0,0-.13,3,1.74,1.74,0,0,0-.07.83l-.07.13a4.36,4.36,0,0,0,.14,1.66c-.07.13-.21.27-.14.48a4,4,0,0,0-.07,1.31c.07.2,0,.41.07.55.07.69-.07,1.58.48,2.06a10.87,10.87,0,0,0,3,.21c.28.21.62-.07.9.07s.34-.07.41,0c1.1,0,2.2.14,3.24.14,1.38-.35,2.75.2,4.13-.07.76.07,1.45-.28,2.14-.14.27-.27.62,0,.89-.14a5.06,5.06,0,0,1,1.1-.34c.55.14.83-.48,1.24-.55.21.07.21-.28.42-.14.41-.41,1-.34,1.17-1,.48-.14.62-.69,1.1-1,.14-.27.41-.48.48-.82-.21-.21.07-.56.07-.83.21-.21.28-.48.48-.69,0-.48.48-1,.07-1.52A11,11,0,0,0,291.5,135.46Z"/><path class="cls-2" d="M107.48,194.37a9.87,9.87,0,0,0-1.86,2.2c-.13.9-1,1.45-1.3,2.28a15.84,15.84,0,0,0-1.93,2.55c-.07.27-.42.34-.42.61-.2.07-.27.28-.41.49l-.14.27a9.27,9.27,0,0,1-1.31,1.52c-.41.41-.41,1-1,1.38-.48.75-1.17,1.37-1.65,2.13a6,6,0,0,0-1,1.58c-.48.35-.55,1-1.1,1.31-.14.55-.83.9-.9,1.45a2.29,2.29,0,0,0-.48.62,13.08,13.08,0,0,0-1.51,1.93c-.28.69-1,1.17-1.31,1.79a10,10,0,0,0-1.79,2.41c-1.1,1.1-1.66,2.62-3,3.65A7.09,7.09,0,0,0,85,225.09a1.12,1.12,0,0,0-.14.69c.07.41-.27.76-.27,1.17-.21.41,0,.83-.07,1.31-.07.76.2,1.58.07,2.34.13.14,0,.28.07.41-.14,1,.2,2.07-.07,3a29.93,29.93,0,0,0,0,4.34c.13.75-.07,1.51.27,2.13.07.55-.14,1-.07,1.52-.2.2-.07.48,0,.75-.13.56-.07,1.24-.55,1.66a1.11,1.11,0,0,1-.69.55,1.32,1.32,0,0,0-1,0c-.14,0-.28.07-.34-.07-1.45-.07-2.9-.07-4.28-.21-1-.07-1.86.14-2.82.07-.76.14-1.86.41-2.55-.14-.48-.69-1.1-1.3-1-2.2-.21-.28-.07-.69-.14-1s-.07-.35-.14-.56.14-.55.21-.82c.14-.9-.14-1.79-.07-2.69-.07-.48.21-1,.07-1.45.07-.06.07-.27.14-.41a12.05,12.05,0,0,1,.07-2.75c-.07-1.59-.49-3.1-.14-4.62a13.86,13.86,0,0,0,0-2.41,1.48,1.48,0,0,0-.28-1.17c-.07-.14-.27-.28-.27-.48-.76-.28-.48-1.17-1.24-1.52-.21-.41-.69-.76-.83-1.24a2.31,2.31,0,0,0-.48-1.1c-.14-.14-.48-.14-.55-.41-.21-.07-.21-.35-.35-.42-.13-.41-.68-.75-.68-1.24-.07-.13-.21-.2-.21-.41-.21-.34-.62-.48-.76-.9s-.69-.82-1-1.24c-.62-.68-1-1.65-1.73-2.34a19.06,19.06,0,0,0-1.65-2.41,6.81,6.81,0,0,0-1.17-1.72c-.34-.48-.62-1-1-1.45a3.64,3.64,0,0,0-.76-1.1,3.11,3.11,0,0,0-1-1.17,5.18,5.18,0,0,0-1.1-1.38c-.14-.48-.76-.76-.82-1.17s-.83-.62-1-1.17c-.14-.14-.21-.41-.41-.55A10.53,10.53,0,0,1,52.86,199a.87.87,0,0,1-.41-.48,6.12,6.12,0,0,1-1.1-1.58c-.42-.28-.62-.9-1.18-1a6.38,6.38,0,0,0-1.3-1.44,7.9,7.9,0,0,0-1.24-1.66,1.42,1.42,0,0,0-.49-.75c.07-.76-.2-1.73.62-2.07a16.8,16.8,0,0,1,2-.14c.21.14.55,0,.76.21h1.17c.48-.07,1,.21,1.45.14.27.2.48-.14.75.07l.07-.07a2.82,2.82,0,0,1,1.1.07H56.3l.14.06c.48-.13,1.1.14,1.59-.13a27.93,27.93,0,0,1,3.44.07c.28.13.48.34.83.34.48.34.76.83,1.24,1.17.14.35.55.55.62.9s.76.75,1,1.31a2.2,2.2,0,0,1,.48.68c1.38,1.11,2,2.62,3.1,3.86a2.39,2.39,0,0,1,.9,1c.21.41.62.69.76,1.17a13,13,0,0,0,1.44,2c.14.42.69.83,1,1.18a1.38,1.38,0,0,1,.55.55,15.6,15.6,0,0,1,.76,1.37,3.56,3.56,0,0,0,.55.9c.2.55.75,1,.89,1.51s.83.83.9,1.38c.69.55,1.24,1.72,2.2,1.38.55-.34.69-1,1-1.52.07-.48.69-.62.76-1a24.58,24.58,0,0,1,1.79-2.13c.49-.21.28-.83.83-1.11.62-.68,1.45-1.24,1.72-2.13.48-.41.48-1.17,1-1.45.06-.27.27-.41.34-.69.55-.62.69-1.37,1.31-2,.14-.35.55-.62.76-1,.48-.62.82-1.31,1.37-1.93.35-.68,1.17-1.17,1.45-1.86a1.92,1.92,0,0,0,.55-1c.41-.55,1.1-.9,1.31-1.52.48-1,1.58-.82,2.41-1.1,1.24-.07,2.41,0,3.72-.14a13.14,13.14,0,0,0,2.89.35H102l.07.07c1,0,1.86-.21,2.83-.14.34-.21.82,0,1.24-.14a5.65,5.65,0,0,1,2.13-.07c.35.14.41.49.69.69.14.35.28.83,0,1.1v.14C108.72,193.13,107.9,193.61,107.48,194.37Z"/><path class="cls-2" d="M158.53,221a4.55,4.55,0,0,0-.13.89c.07.62-.35,1.1-.35,1.72a1.73,1.73,0,0,1-.2.83c.06.34-.42.48-.28.83-.07.07-.07.2-.21.27.07.35-.2.48-.27.76s-.41.69-.41,1.1c-.07.62-.62,1-.69,1.65a4.8,4.8,0,0,0-.69,1.73c-.28.34-.48.82-.76,1.24,0,.41-.55.62-.55,1.1s-.41.41-.48.76c-.28.13-.35.55-.62.75a1.68,1.68,0,0,0-.42.56c-.13.27-.48.27-.55.62a4.24,4.24,0,0,0-1,1c-.41.07-.69.41-1,.55s-.48.34-.62.62-.55.55-.75.83c-.28-.07-.35.27-.55.34-.42.28-.76.41-1.18.69a3.85,3.85,0,0,0-1.24.9,2,2,0,0,0-1,.41c-.34,0-.48.34-.83.27-.41.14-.69.69-1.17.69a5.13,5.13,0,0,1-1.1.42,7.91,7.91,0,0,0-1.93.75c-.27.14-.62-.06-.83.28a6,6,0,0,1-1,.41,12.79,12.79,0,0,0-1.58.35c-.28.07-.48.07-.76.13s-.48,0-.76.14a10.2,10.2,0,0,1-1.44.21c-.62.07-1.24,0-1.93.07-.62-.14-1.31.14-1.93-.07-.69.21-1.38-.14-2-.07-.27-.21-.76-.14-1.1-.28-.55-.2-1.1.07-1.59-.2a6.61,6.61,0,0,0-1.58-.42,5.5,5.5,0,0,1-1.65-.68,1.38,1.38,0,0,0-.62-.14,3,3,0,0,0-.69-.28c-.14-.13-.28-.13-.42-.27a12.11,12.11,0,0,0-1.65-.83c-.55-.27-1-.76-1.51-1-.07-.21-.28-.14-.35-.28s-.41-.14-.48-.34c-.28-.14-.34-.48-.62-.55-.48-.14-.9-.62-1.38-.83-.2-.28-.48-.41-.69-.69a2.4,2.4,0,0,1-.82-.55c-.21-.41-.76-.41-.83-.9-.48-.62-1.24-1-1.58-1.79a3.34,3.34,0,0,1-.62-.82,9.67,9.67,0,0,0-.69-1c-.07-.34-.42-.48-.48-.82a2.92,2.92,0,0,0-.42-.56c-.07-.55-.62-.82-.62-1.37-.14-.28-.41-.35-.34-.69-.14-.28-.42-.48-.42-.76-.27-.28-.2-.69-.48-1,0-.14-.2-.21-.14-.42-.2-.27-.2-.75-.41-1h.07c-.14-.14-.07-.27-.14-.34-.2-.42-.55-.76-.55-1.24a8.09,8.09,0,0,1-.34-1.45c-.14-.28.07-.76-.14-1a19.38,19.38,0,0,1-.21-2l-.2-.28v-4.75l.06-.07c.14-.55,0-1,.14-1.58-.07-.76.21-1.52.21-2.28.14-.13,0-.48.21-.62a4.6,4.6,0,0,1,.41-1.44c0-.42.34-.76.34-1.17l.14-.42a8.18,8.18,0,0,1,.41-1.1,7.28,7.28,0,0,1,.69-1.65c.07,0,0-.07.07-.14.48-.34.48-.9.83-1.38.07-.27.41-.48.48-.76.55-.48.48-1.3,1.1-1.72a5.61,5.61,0,0,0,1-1.58,2.78,2.78,0,0,0,.68-.9c.42-.41.83-.62,1.18-1,.27-.21.62-.48.68-.83.28-.27.62-.27.9-.69s.62-.27.83-.62c.34-.2.82-.34,1-.68.21.06.28-.14.48-.21s.62-.62,1.1-.69c.28,0,.42-.34.69-.34a4.63,4.63,0,0,1,.83-.42c.27-.07.48-.27.76-.27a2.54,2.54,0,0,1,.48-.28c.07,0,.14-.07.27-.14a10.45,10.45,0,0,0,1.38-.69c.48-.34,1.1-.2,1.66-.48.55,0,1-.34,1.65-.34s1-.35,1.45-.48c.82-.21,1.72-.07,2.61-.35l1.66-.07c.07.14.27,0,.34.14l.21-.07a9.09,9.09,0,0,1,2.75.14c.14-.07.42-.14.55,0a6.2,6.2,0,0,1,1.11.21,1,1,0,0,0,.62.06c.13.14.41,0,.55.07s.55.07.82.14a1.65,1.65,0,0,1,.55.07c.21.28.62.07.9.28a10.54,10.54,0,0,0,1.24.48c.34,0,.62.27,1,.34s.48.28.83.28c.41.2.76.62,1.24.69.07.2.27,0,.34.2.42,0,.62.49,1,.42.34.2.62.41,1,.62.14,0,.21.2.41.2.35.21.56.62,1,.76.27.41.83.55,1.1,1A9.14,9.14,0,0,1,149,197a20.87,20.87,0,0,1,1.86,1.65c.48.69,1.31,1.24,1.65,2.07.21.13.42.27.42.55a15.13,15.13,0,0,1,1,1.31c.14.68.83,1.17,1.17,1.79a20.33,20.33,0,0,0,1.1,2.13,1.41,1.41,0,0,0,.55,1c.14.62.42,1.18.49,1.73a.86.86,0,0,1,.27.89c.14.14.07.35.21.48.07.28.2.49.27.76a3.08,3.08,0,0,1,.28,1.38c.07.07,0,.28.07.34a11.69,11.69,0,0,0,.34,1.59c.07,1.72,0,3.31,0,5.1A4,4,0,0,0,158.53,221Zm-13.43-3.72c-.13-.07,0-.14-.07-.21.35-.07-.06-.34.14-.48a2.27,2.27,0,0,1,0-1c-.2-.55-.14-1.31-.34-1.86.14-.69-.42-1.17-.48-1.79-.28-.41-.49-.89-.76-1.38-.21-.2-.21-.55-.48-.68a26.2,26.2,0,0,0-2.55-3.1c-.35,0-.62-.35-.9-.62-.21-.62-1-.76-1.38-1.17a21,21,0,0,1-2.13-1c-.55-.14-1.1-.34-1.72-.55-.14-.21-.42,0-.62-.14-.76.14-1.31-.41-2-.13l-.41-.07c-.69-.28-1.52,0-2.21-.07-.27.14-.55,0-.82.2-.35-.06-.76.21-1.11-.06-.2.06-.48,0-.62.27-.55-.07-.75.55-1.31.41-.41.62-1.1.49-1.51,1a4.92,4.92,0,0,0-1.31.76c-.34.34-.76.55-1.17.89s-.69.76-1,1.17a5.62,5.62,0,0,0-1.45,1.93,5.44,5.44,0,0,0-.55.9c-.07.27-.28.48-.28.82-.2.07-.2.28-.27.42a2.59,2.59,0,0,0-.42,1.24.78.78,0,0,1-.13.55c0,.55-.35,1-.21,1.58a3.9,3.9,0,0,0-.14,2,7,7,0,0,0,.07,1.24c0,.28-.14.55.07.76-.21.82.41,1.38.41,2.13a1.13,1.13,0,0,1,.28.49c-.14.48.41.55.27,1,.28.27.28.69.62.89a6.16,6.16,0,0,0,1,1.38l.41.62c.35.69,1.24.83,1.38,1.59.55.2.89.68,1.38,1s.89,1,1.44,1.24a2.43,2.43,0,0,0,1.24.62,6.19,6.19,0,0,0,1.79.83,5.3,5.3,0,0,0,1.45.34c.14.28.48.07.62.28.55-.07,1,.34,1.59.13a10.78,10.78,0,0,0,3-.2c.55.07,1-.28,1.44-.35.42-.34,1-.27,1.45-.55s1.1-.27,1.51-.76c.21.07.35-.27.56-.27.27-.42.68-.48,1-.83.34-.14.48-.55.83-.69.68-.13,1-1,1.58-1.37.14-.07.07-.28.28-.28.2-.41.68-.76.82-1.17-.14-.48.35-.62.48-1a5,5,0,0,1,.28-1c.07-.28.28-.62.34-1a3.92,3.92,0,0,0,.49-1.24c.13-.21.27-.55.13-.76.14-.28,0-.55.14-.76-.07-.83.28-1.51.07-2.27Z"/><path class="cls-2" d="M213.66,195.2a1.37,1.37,0,0,0,0,.75,18.7,18.7,0,0,0-.14,2.83c.14.14.07.41.07.62-.07.48,0,1-.07,1.51V201c0,.35.14.69,0,1,.07.27,0,.55.2.75,0,.9-.13,1.86-.13,2.76a2.55,2.55,0,0,0,0,1h-.07a20.26,20.26,0,0,0,.07,3.58l.07.07a3.55,3.55,0,0,1-.07,1.45,5.54,5.54,0,0,0-.07,1.86c.07.07.07.07.07.14a12.76,12.76,0,0,0-.07,3.65,1.17,1.17,0,0,1,.2.82v1c-.2.34,0,.69-.13,1a5.69,5.69,0,0,1-.21,1.24c.07.83-.41,1.24-.21,2.07.14.48-.13.89-.13,1.37-.14.14-.07.35-.07.49,0,.48.07,1-.28,1.37a2.39,2.39,0,0,1-.14.76c-.2.42-.2.9-.48,1.24a12.92,12.92,0,0,1-.89,2.21c-.62.75-.76,1.86-1.59,2.48-.14.41-.48.75-.62,1.17s-.2.75-.69.89c-.75.62-1.37,1.45-2.13,2.14a6.41,6.41,0,0,1-1.52,1.51c-.14-.13-.2.14-.34.14-.48.48-1.1.76-1.38,1.38-.62.48-1.51.48-2,1.17-.55.21-1,.69-1.58.76a2.24,2.24,0,0,1-1.1.41,2.88,2.88,0,0,1-1.24.55c-.9.14-1.52.76-2.48.69a3.84,3.84,0,0,1-1.79.28c-.42.34-1,.13-1.38.34-.55-.14-1.1.14-1.59,0a11.85,11.85,0,0,1-3.85-.07c-.07-.07-.28-.07-.35-.14l-2.55-.2c-1.1.07-1.86-.55-2.89-.62a3.66,3.66,0,0,1-1.17-.48c-.28.06-.28-.21-.55-.21-.48-.48-1.31-.41-1.86-.9-.28-.55-.83-.48-1.17-1-.21,0-.35-.21-.48-.21a19.72,19.72,0,0,1-2-1.58,3.33,3.33,0,0,0-1-.76c-.06-.21-.41,0-.27-.28-.21-.06-.41-.2-.41-.34-.83-.34-1.11-1.17-1.66-1.65a8.63,8.63,0,0,1-1.72-1.86c-.34-.35-.41-.9-.83-1.24-.13-.35-.48-.62-.55-1a19.67,19.67,0,0,1-1-2.13c0-.07-.14-.14-.14-.14.14-.34-.34-.55-.28-.9-.13-.2-.06-.48-.34-.62-.14-.48-.34-1-.48-1.44-.35-.28-.35-.83-.69-1.1-.14-.42.07-1-.14-1.31.07-.21-.21-.35-.07-.48a.46.46,0,0,0-.07-.42,7.92,7.92,0,0,0-.27-1.79c-.07-.2,0-.41-.07-.62l-.07-.34a8.22,8.22,0,0,1,.07-2.28c0-.27-.28-.48-.07-.82s-.28-.69,0-1.1c.07-.42-.21-.83.07-1.18a7.82,7.82,0,0,0-.07-1.79,7.09,7.09,0,0,0-.07-1.72c.21-.27,0-.62.07-.89.28-1.18-.07-2.42,0-3.59a6,6,0,0,1,.14-1.17c0-.34-.28-.75,0-1.1a17.89,17.89,0,0,1-.14-1.93,3.36,3.36,0,0,0-.14-.82c-.07-.35.14-.69-.07-1.11v-1.17c.14-.34-.13-.69,0-1.1s0-.76.07-1.17-.07-.62.07-.9A7.13,7.13,0,0,0,163,195c-.14-.21-.07-.48-.14-.69,0-1.1.07-2.14.07-3.24.21-.34.28-.89.76-1l.14-.07c1-.07,1.86,0,2.75-.07.07-.14.21,0,.35,0,.48-.28.89.14,1.3-.14.49-.07,1,.21,1.52,0,.28.14.69,0,1,.14a15.5,15.5,0,0,1,2.55,0c.83.14,1.52-.34,2.28,0,.27-.07.41.14.55.28s.13.34.2.48a1.44,1.44,0,0,0,.21.34c-.14.42,0,.83-.14,1.24a13.94,13.94,0,0,1-.07,3v.35a.07.07,0,0,0-.07.07l.07.14a19.63,19.63,0,0,0-.07,3.44c-.13,1,.42,1.79.07,2.75.07.56-.13.9,0,1.38.07,1.45-.07,2.83.07,4.2-.14.83.14,1.66.07,2.41a2.1,2.1,0,0,1,0,1.31,6.26,6.26,0,0,1,0,2.55c-.07.35.07.69-.14,1a15.48,15.48,0,0,0,.14,1.72c.14.27-.21.55,0,.89a14.8,14.8,0,0,1,.14,2.48c.2.28-.07.62.14.83a7.12,7.12,0,0,0,.27,2.48c0,.34.14.48.14.76a13.12,13.12,0,0,0,.41,1.58c.14.21.21.35.42.42a4.59,4.59,0,0,1,.55,1.17c.41.69,1.1,1,1.58,1.72a6.63,6.63,0,0,0,1.24,1.1,4.78,4.78,0,0,0,1.31.62c.21.14.48.14.62.28.69.2,1.38.62,2.07.82a2.39,2.39,0,0,1,.75.28c.07-.07.14,0,.21.07a1.59,1.59,0,0,1,1.38-.07,7,7,0,0,1,2.41-.14c.48,0,.76-.48,1.24-.48.62-.28,1.31-.21,1.86-.55.27-.28.62-.35.89-.62.35-.07.62-.42,1-.62a1,1,0,0,0,1-.69c.48-.07.62-.69,1-.9.48-.48.68-1,1.17-1.58.27-.48.82-.9.89-1.52.21-.27.07-.62.35-.89,0-.35.34-.55.27-1-.07-.62.28-1.17.28-1.79l.07-.07c-.07-1,.34-1.86.07-2.82.27-.69,0-1.38.13-2.14v-1.58l.14-.14a11.65,11.65,0,0,1,0-2.13,8.26,8.26,0,0,0,0-1.86c0-1.24-.07-2.69-.14-3.93.35-.55-.2-1,.14-1.51.07-.42-.14-.83-.07-1.24-.2-.14.07-.35-.07-.49s.14-.2,0-.34a14.22,14.22,0,0,0-.13-1.72,1,1,0,0,1,.07-.9c-.14-.76.06-1.44-.14-2.13v-1.11a1.36,1.36,0,0,0,0-.75c-.14-.21.2-.35.07-.55.13-.28,0-.62.13-.9a19.36,19.36,0,0,1-.06-2.82,2.36,2.36,0,0,1-.07-1c.13-.07.07-.27.13-.41.21-.21.35-.35.62-.35s.42-.2.62-.27a3.28,3.28,0,0,0,1.17,0c1.18.07,2.35.14,3.52.14h1.17l.07-.07a21.71,21.71,0,0,1,4.2.13.85.85,0,0,0,.41.07,5.81,5.81,0,0,0,1,.42c.34.13.41.62.48,1s0,.69.2,1v1.52C213.59,194.51,213.72,194.92,213.66,195.2Z"/><path class="cls-2" d="M269.62,243.3a.9.9,0,0,0-.13.48v.07c-.27.08-.41.29-.68.29a.31.31,0,0,1-.21.08c-.07-.07-.2,0-.34-.06l-.07.07c-.89.16-1.79,0-2.75.2-.48-.06-1,.16-1.52-.1a4.56,4.56,0,0,0-1.38,0c-.41-.13-.82.09-1.31,0a1.9,1.9,0,0,1-1.37,0l-1.18,0a.9.9,0,0,0-.62-.06,21.18,21.18,0,0,1-4.62-.09c-.14-.14-.34-.13-.35-.34a16.5,16.5,0,0,0-1.33-1c-.21,0-.21-.2-.42-.27a4.72,4.72,0,0,1-.85-.8c-.21-.34-.63-.54-.85-.95-.49-.47-1-.94-1.55-1.48a9.3,9.3,0,0,1-1.62-1.75c-.36-.34-.57-.74-.93-1.08a25.28,25.28,0,0,1-2.12-2.43c-.35-.06-.5-.47-.85-.67s-.28-.4-.49-.54c-.42-.4-.71-1-1.2-1.35-.15-.34-.5-.47-.78-.67-.15-.41-.64-.67-.92-1a4.4,4.4,0,0,0-1.6-.58c-.82,0-1.59-.37-2.41-.08a.93.93,0,0,0-.95.51c0,.13-.2.28-.13.41,0,.35-.33.56-.12.83a24,24,0,0,0,.15,3.24,2.91,2.91,0,0,0,0,1.1,4.18,4.18,0,0,0-.11,1.31c.14.27,0,.62,0,.9v.62c-.11.76.11,1.65.06,2.54a1.22,1.22,0,0,1,.17,1c.14.41-.12.89.16,1.23a2.07,2.07,0,0,1-1,1.95c-.14.08-.35.08-.48.22-1.17.1-2.21-.22-3.37.08a7.79,7.79,0,0,1-2.55,0,23.64,23.64,0,0,1-3,.14c-.21.07-.42-.06-.62.08-.69,0-1.38-.1-2-.09a2.36,2.36,0,0,1-.91-.74c-.43-.67,0-1.58-.2-2.33.13-.28-.08-.69.05-1,.26-.62,0-1.45.22-2.14,0-.27-.22-.54-.09-.82,0-.83-.11-1.86-.06-2.69a.76.76,0,0,0,0-.55,13.72,13.72,0,0,1,0-2.41c-.06-2.27-.31-4.27-.16-6.41a4.1,4.1,0,0,0-.16-1,34.42,34.42,0,0,1-.09-3.78,14.8,14.8,0,0,0,.1-1.8c-.16-.55,0-1.31-.12-1.86,0-.13-.07-.27.06-.34-.08-.41,0-.83-.1-1.24s-.15-.62-.16-1h.07a11.48,11.48,0,0,0,.09-2.21c-.09-.62-.17-1.3-.26-1.92.14-.28-.08-.55,0-.76a7.1,7.1,0,0,0,.09-1.72,1.14,1.14,0,0,0,0-.83c0-.14-.07-.34,0-.48-.08-.69,0-1.38-.12-2.07.14-.07.07-.21.14-.28v-.2a3.29,3.29,0,0,1,0-1.17l-.07-.07a20.89,20.89,0,0,0,0-3c-.08-.35.05-.76,0-1.1a25.89,25.89,0,0,1-.21-3.24,2.38,2.38,0,0,1,0-1.37,5.59,5.59,0,0,1,.21-2.83c.13-.28.19-.63.33-.91.39-.56,1.09-.23,1.56-.59.63,0,1.17-.16,1.79-.11.08.14.14.07.21.06a.4.4,0,0,0,.41,0l1.39,0a2.59,2.59,0,0,0,1,0c.62-.08,1.24,0,1.79-.11,1.58-.17,3,.14,4.69.1.06-.07.27,0,.41-.08s.07.07.14.06h.06c.76.05,1.52-.17,2.27-.19.42-.08.83.05,1.17-.1a1.27,1.27,0,0,0,.55,0l.07.07c.83.05,1.65-.39,2.48-.2a3.72,3.72,0,0,0,1.24-.1c.9.12,1.72.1,2.62.15a7.44,7.44,0,0,1,2.75-.07c.14,0,.28-.08.42,0,1.24.18,2.27-.12,3.51,0a5.28,5.28,0,0,1,2.28.29c.35,0,.7.12,1.11.11,0,.07.21,0,.28.14a11.72,11.72,0,0,0,1.39.58c.49.27,1.11.25,1.53.52.14,0,.28.13.35.2.28.2.49.47.84.53s.42.26.69.39c.36.41.84.47,1.06.94a6,6,0,0,1,1.33.93c.28.14.63.27.71.61.22.61,1,.59,1.2,1.21.27.06.28.34.49.4s.22.48.43.68a6.73,6.73,0,0,0,.36.68c.42.4.5.88.93,1.29a6.08,6.08,0,0,1,.64,1.15,2.88,2.88,0,0,0,.29.62,9.39,9.39,0,0,0,.67,1.91c.21.13,0,.48.22.61,0,.14.15.28.15.48s-.06.42.15.48a2.27,2.27,0,0,0,.15.69,20.53,20.53,0,0,1,.33,2.06,18,18,0,0,1,.05,1.92.85.85,0,0,0,0,.83,9.87,9.87,0,0,1-.23,2c-.12,1-.3,1.87-.49,2.84-.39.56,0,1.45-.57,1.94-.06.35-.19.7-.25,1a1.55,1.55,0,0,0-.2.35c-.12.49-.53.84-.72,1.33-.41.28-.4.77-.81,1.05a4.34,4.34,0,0,1-1.4,1.76c-.34.35-.46.77-.87,1s-.33.91-.81.85c-.54.29-.94.78-1.56,1.07-.2.35-.62.08-.81.5-.27.15-.41.43-.75.43a.59.59,0,0,0-.27.29,1.23,1.23,0,0,1-.95.5,1.05,1.05,0,0,0-.82.5v.07c-.06.07,0,.21-.13.21a2,2,0,0,0,.23.89c.21.2.29.55.64.61a8.16,8.16,0,0,1,.63.81c.29.2.43.54.85.67.21.34.84.67,1.06,1.07.7.61.86,1.57,1.77,2a7.62,7.62,0,0,1,1.13,1.35c.56.26.71.95,1.27,1.28.21.27.5.54.78.88.21.06.29.47.63.6a4.49,4.49,0,0,1,.86,1.15c.28.13.28.34.56.47s.42.27.63.54c.36.47.92.94,1.35,1.41.21.27.63.4.64.81.14.21.28.48.22.62A.22.22,0,0,0,269.62,243.3Zm-14.79-36c-.21-.13-.14-.41-.22-.62s-.28-.47-.36-.74c-.35-.27-.22-.69-.57-.89-.29-.75-1.06-.8-1.48-1.41a2.4,2.4,0,0,1-.63-.26c-.21-.13-.56-.26-.83-.39s-.42,0-.56-.19a7.52,7.52,0,0,1-2.14-.23c-.42-.06-.9,0-1.31,0a2.87,2.87,0,0,0-1.31,0l-1.93,0c-1.72.11-3.23.15-5,.26-.28-.06-.55.15-.9-.05a11.34,11.34,0,0,0-3,.28c-.13.07-.2.28-.41.22a1.64,1.64,0,0,0-.31,1.38c0,.49,0,1,0,1.45a20.94,20.94,0,0,0-.07,3,1.86,1.86,0,0,0,0,.83l-.06.14a4.49,4.49,0,0,0,.17,1.65c-.06.14-.2.28-.12.49a4,4,0,0,0,0,1.31c.07.2,0,.41.08.55.09.68,0,1.58.53,2a11,11,0,0,0,3,.13c.28.2.62-.08.9.05.13,0,.34-.08.41,0,1.1,0,2.21.09,3.24.06,1.37-.38,2.76.14,4.13-.17.76.05,1.44-.31,2.13-.18.27-.29.62,0,.89-.16s.68-.36,1.1-.37.81-.51,1.22-.59c.21.07.2-.28.41-.14.41-.43,1-.37,1.15-1,.48-.15.6-.7,1.08-1,.13-.27.4-.49.46-.83-.21-.21.06-.56,0-.83.2-.21.27-.49.47-.7,0-.48.45-1.05,0-1.52A9.72,9.72,0,0,0,254.83,207.34Z"/><path class="cls-2" d="M103,272.84a1.39,1.39,0,0,1-.65.86c-.14,0-.13.14-.27.14a7.64,7.64,0,0,1-1.79.21,31.59,31.59,0,0,1-3.51.14l-.07-.07a5,5,0,0,1-1.79-.07,21.65,21.65,0,0,0-2.89.32c-.27.15-.48,0-.75.1-1.1.11-2.2.08-3.3.19-.35-.05-.76,0-1.11-.09-.13.07-.34-.06-.48,0a3.11,3.11,0,0,0-1.57.33,1.07,1.07,0,0,0-.8.72c-.59.85.07,1.93-.09,3,0,.48.17.89.19,1.44l.1,2.55a1.92,1.92,0,0,1,.12,1.24,7.16,7.16,0,0,0,.14,2.06c0,.89,0,1.79,0,2.62a13.72,13.72,0,0,0,0,2.41,24.46,24.46,0,0,0,.12,3.17c-.13,0-.06.07-.13.07.23.54-.1,1,0,1.52.21.2,0,.34,0,.55.24.82-.07,1.72.1,2.61,0,.55.11,1.1.13,1.65a3.9,3.9,0,0,1,.18,1c.18,1,0,2.14.26,3.16a11.77,11.77,0,0,1,0,1.45c.08.41-.18.7-.1,1.11-.13.14,0,.34,0,.48,0,.83.2,1.58.23,2.4a20.12,20.12,0,0,1,.32,2.89c-.07.13-.13.28,0,.41s.3.4.31.67a3.79,3.79,0,0,1-.14,1.8c-.06.28,0,.63-.31.84-.49,0-.81.45-1.3.47l-2.34.09a2,2,0,0,0-1.31-.09,21.74,21.74,0,0,1-3.72.14c-.82,0-1.66-.14-2.48-.11l-.07-.06a4.26,4.26,0,0,1-1.59,0c-.42-.26-.91-.52-.94-1.07-.23-.75,0-1.51-.22-2.2a.75.75,0,0,0,0-.55c.07,0,0-.07,0-.13s0-.07,0-.14a17.56,17.56,0,0,0-.1-2.69c.2-.14,0-.48,0-.68-.16-.48.1-.84-.05-1.31a7.44,7.44,0,0,0-.07-1.72c.19-.49-.1-1,0-1.45a12.92,12.92,0,0,0-.23-2.4,11.12,11.12,0,0,0-.08-2.14c0-.69,0-1.38,0-2.14H71c.08-1.38-.18-2.75-.23-4.12-.36-.47-.12-1.17-.34-1.65.09-1.24-.09-2.4,0-3.58-.15-.2,0-.55,0-.69a13.86,13.86,0,0,1,0-2.41,3.4,3.4,0,0,1-.12-1.17c.18-.77-.06-1.58.12-2.35.06-.28-.09-.62.1-.83a13.47,13.47,0,0,1-.11-2.89c-.16-.75,0-1.38-.22-2.2-.09-.41-.44-.67-.59-1-.56-.32-1-.72-1.61-.7-1.45,0-3,.19-4.34.24a10.9,10.9,0,0,0-2.06.08c-1,.18-1.93,0-2.89.11-.42-.19-.83.1-1.25-.09-1.16.12-2.28-.18-3.37.13-1,.11-1.68-.55-2.51-.8-.15-.27-.36-.26-.5-.46a1.78,1.78,0,0,0-.25-1c0-.49,0-.83,0-1.25a14.71,14.71,0,0,1,0-2.48c-.09-.34.11-.69,0-1,0-.49-.17-1-.12-1.44a19.54,19.54,0,0,1,.2-2c0-.34.33-.43.46-.64.19-.42.67-.44,1-.66,1.51-.19,3,0,4.41-.17.49.12,1-.24,1.45,0a6.64,6.64,0,0,0,1.71-.28c.76,0,1.44-.12,2.27-.22V263a16.67,16.67,0,0,1,2,0c.41,0,.89-.11,1.24,0a6,6,0,0,0,1.58-.13h.07a36.18,36.18,0,0,1,6.74-.33c1.17,0,2.61-.17,3.79-.08a4.25,4.25,0,0,0,1.32.15c.13,0,.27.06.41-.08s.41.05.54-.09l4.68-.18a12,12,0,0,1,2.27-.16A23.4,23.4,0,0,0,90,262c.13-.14.27-.08.41-.08.21.2.48-.16.76,0a29.25,29.25,0,0,0,4.13-.16c.34-.08.76,0,1.17-.12,0,.14.14,0,.2,0a21,21,0,0,1,3,.09,1.16,1.16,0,0,0,.69,0l1.17,0c.07.13.28.05.28.19.09.41.57.39.72.73,0,.55.31,1,.19,1.44a27.24,27.24,0,0,1,.07,3.38c.46,1.43.18,3.09.38,4.6C103.22,272.35,103,272.57,103,272.84Z"/><path class="cls-2" d="M156.59,316.91a1.09,1.09,0,0,0-.15.48v.07c-.28.06-.42.26-.69.26a.29.29,0,0,1-.21.06c-.07-.07-.21,0-.35-.08l-.07.07c-.89.12-1.79,0-2.75.07-.48-.08-1,.12-1.52-.17a4.5,4.5,0,0,0-1.37,0c-.41-.15-.83.05-1.31-.1a1.92,1.92,0,0,1-1.38-.1l-1.17,0a.94.94,0,0,0-.61-.09,21,21,0,0,1-4.61-.31c-.14-.14-.34-.15-.34-.35-.4-.43-.88-.71-1.28-1.07-.21,0-.2-.21-.41-.28-.34-.36-.61-.5-.81-.85s-.6-.56-.8-1c-.47-.5-1-1-1.48-1.55a9.64,9.64,0,0,1-1.54-1.83c-.34-.35-.53-.77-.87-1.12a25.67,25.67,0,0,1-2-2.53c-.34-.08-.47-.5-.81-.71s-.26-.42-.47-.56a11.08,11.08,0,0,0-1.13-1.41c-.13-.34-.47-.49-.75-.7-.12-.42-.6-.71-.87-1.06a4.51,4.51,0,0,0-1.57-.65c-.82,0-1.57-.46-2.4-.2a.93.93,0,0,0-1,.46c0,.14-.21.27-.14.41,0,.34-.36.54-.16.82a25.07,25.07,0,0,0,0,3.24,2.74,2.74,0,0,0-.09,1.1,4.18,4.18,0,0,0-.17,1.31c.13.27,0,.62,0,.89l0,.62c-.16.76,0,1.65-.06,2.55a1.24,1.24,0,0,1,.12,1c.12.41-.16.89.1,1.24a2,2,0,0,1-1.08,1.9c-.13.07-.34.06-.48.2-1.17,0-2.2-.33-3.38-.08a7.94,7.94,0,0,1-2.54-.13,21.89,21.89,0,0,1-3,0c-.21.06-.42-.08-.63,0-.68,0-1.37-.17-2-.18a2.46,2.46,0,0,1-.88-.78c-.39-.7,0-1.59-.08-2.35.15-.27,0-.69.09-1,.29-.61.11-1.44.33-2.13,0-.27-.19-.55-.05-.83.09-.82,0-1.86.06-2.68a.77.77,0,0,0,.09-.55,14,14,0,0,1,0-2.41c.06-2.27-.1-4.27.15-6.41a4.49,4.49,0,0,0-.11-1,33.85,33.85,0,0,1,.09-3.79,16.17,16.17,0,0,0,.18-1.79c-.13-.55.1-1.3,0-1.86,0-.14-.06-.27.08-.34-.06-.41,0-.82,0-1.24s-.12-.62-.11-1h.07a11.94,11.94,0,0,0,.19-2.2c-.06-.62-.11-1.31-.16-1.93.14-.27-.06-.55,0-.76a7.13,7.13,0,0,0,.18-1.72c.15-.27.08-.48,0-.82,0-.14-.06-.35,0-.48,0-.69,0-1.38,0-2.07.14-.07.08-.21.15-.27V276a3.28,3.28,0,0,1,0-1.17l-.07-.07a21,21,0,0,0,.14-3c-.06-.35.09-.76,0-1.1a23.59,23.59,0,0,1-.06-3.24,2.3,2.3,0,0,1,0-1.38,5.53,5.53,0,0,1,.34-2.82c.14-.27.22-.61.37-.88.42-.55,1.1-.18,1.59-.52a15.44,15.44,0,0,1,1.8,0c.06.14.13.07.2.07a.43.43,0,0,0,.41,0l1.38.1a2.49,2.49,0,0,0,1,.09c.62-.05,1.24,0,1.79,0,1.59-.1,3,.28,4.68.31.07-.06.28,0,.41-.05s.07.07.14.07h.07c.76.09,1.52-.1,2.27-.08a6.38,6.38,0,0,0,1.18-.05c.2.08.34,0,.55,0l.07.07c.82.09,1.66-.31,2.48-.08a3.7,3.7,0,0,0,1.24,0c.89.16,1.72.18,2.61.27a7.35,7.35,0,0,1,2.76.06c.13,0,.27-.06.41,0,1.23.24,2.27,0,3.51.22a5.28,5.28,0,0,1,2.26.4c.35,0,.69.16,1.1.17,0,.06.21,0,.27.14a12.88,12.88,0,0,0,1.36.65c.48.29,1.1.3,1.51.59.13,0,.27.14.34.21.27.22.47.5.81.57s.41.29.68.43c.33.43.81.5,1,1a5.76,5.76,0,0,1,1.28,1c.28.14.62.29.68.63.19.63,1,.65,1.14,1.27.27.08.27.35.47.42s.2.49.4.7a5.92,5.92,0,0,0,.33.7c.4.42.46.91.86,1.33a6.5,6.5,0,0,1,.59,1.18,2.8,2.8,0,0,0,.26.63,9.48,9.48,0,0,0,.58,1.94c.2.15,0,.49.19.63,0,.14.13.28.13.48s-.08.42.12.49a2.36,2.36,0,0,0,.12.69,20.8,20.8,0,0,1,.23,2.07,15.2,15.2,0,0,1-.05,1.93.9.9,0,0,0,0,.83,8.53,8.53,0,0,1-.32,2c-.16,1-.39,1.85-.62,2.81-.42.54-.1,1.44-.66,1.91-.08.34-.22.69-.3,1a1.82,1.82,0,0,0-.22.34c-.14.48-.56.81-.78,1.29-.42.27-.43.75-.85,1-.43.61-.79,1.36-1.49,1.69-.35.34-.5.75-.92.94s-.36.89-.84.81c-.56.26-1,.73-1.61,1-.22.34-.62.06-.84.47-.28.13-.42.4-.77.39a.57.57,0,0,0-.28.27c-.21.34-.56.4-1,.46a1,1,0,0,0-.83.46v.07c-.08.07,0,.21-.15.2a1.86,1.86,0,0,0,.19.9c.2.22.26.56.6.64a7.27,7.27,0,0,1,.6.84c.27.21.4.56.81.71.2.35.81.71,1,1.12.67.64.79,1.61,1.67,2a7.06,7.06,0,0,1,1.07,1.41c.55.28.67,1,1.21,1.33.2.28.47.57.74.92.2.07.26.48.6.63a4.22,4.22,0,0,1,.8,1.19c.27.15.27.35.54.5s.41.28.61.56c.33.49.87,1,1.27,1.48.2.28.61.43.6.84.14.21.27.49.2.62A.24.24,0,0,0,156.59,316.91Zm-13.05-36.62c-.2-.14-.13-.42-.19-.62s-.27-.49-.33-.77c-.34-.28-.19-.69-.53-.91-.26-.76-1-.85-1.41-1.48a2.26,2.26,0,0,1-.61-.29c-.21-.14-.55-.29-.82-.43s-.41,0-.55-.22a7.14,7.14,0,0,1-2.13-.33c-.41-.08-.89,0-1.3-.1a2.78,2.78,0,0,0-1.31,0l-1.93-.11c-1.72,0-3.23,0-5,0-.27-.08-.55.12-.89-.09a11.63,11.63,0,0,0-3,.13c-.14.07-.21.27-.41.2a1.61,1.61,0,0,0-.38,1.37c-.08.48,0,1-.1,1.44a21,21,0,0,0-.21,3,1.65,1.65,0,0,0-.09.83l-.07.13a4.36,4.36,0,0,0,.1,1.66c-.08.13-.22.27-.15.48a3.93,3.93,0,0,0-.1,1.3c.06.21,0,.42.05.56.06.69-.1,1.58.44,2.07a10.8,10.8,0,0,0,3,.28c.27.21.62,0,.89.09s.35-.06.42,0c1.1,0,2.2.19,3.23.22,1.39-.31,2.75.27,4.14,0,.75.08,1.45-.25,2.13-.09.28-.27.62,0,.9-.12s.7-.33,1.11-.32.84-.46,1.25-.52c.21.08.22-.27.42-.13.42-.4,1-.32,1.19-.93.49-.13.64-.68,1.13-.94.14-.27.42-.47.5-.82-.2-.21.08-.55.09-.82.21-.2.29-.48.5-.68,0-.48.5-1,.1-1.51A11.09,11.09,0,0,0,143.54,280.29Z"/><path class="cls-2" d="M214.6,316.05c-.91-.1-1.85.28-2.82.19a25.91,25.91,0,0,0-4.74.4c-1.74-.41-2-2.47-3-3.67-1.24-1.61-1.47-3.73-3.51-4.75-.76-.25-1.65.13-2.41,0-2.69,0-5.56.64-8.32.55-1.44.13-2.7-.37-4.14-.11-1.85.35-3.86,0-5.64.44-.69,0-1.44.13-2.13.16a31.87,31.87,0,0,0-2.92,4.39c-.18.63-.57,1.13-.75,1.76-.27.22-.12.42-.18.69-.67.51-.47,1.88-1.65,1.73-2.41.23-4.82.26-7.3.3-.7-.25-1.51.2-2.28-.12a23.13,23.13,0,0,1-3.24-.07c-.43-.46-.32-1.09-.48-1.57s.38-.7.36-1.18c.8-.86.89-2,1.61-2.89.24-.77.7-1.48,1-2.25,1.2-.95,1.07-2.39,1.78-3.59.11-.63.65-1.06.9-1.63a51.73,51.73,0,0,0,3.66-6.62c.75-1.83,2.2-3.4,3-5.16.7-1.34,1.34-2.67,2.11-3.95.22-1.32,1.35-2.33,1.5-3.64.56-1.54,1.68-2.9,2.3-4.44.06-.35.46-.57.66-.93.43-1.25,1.48-2.33,1.7-3.72.83-1.76,2.07-3.32,2.48-5.2a1.9,1.9,0,0,0,.31-.84c.69-1.48,2-2.64,2.37-4.24,1.06-1.21,1.39-3.09,3.09-3.78a2.36,2.36,0,0,1,2.53,1.14c.71.45.81,1.35,1.39,1.94.09.69.87,1.07,1,1.75a10.63,10.63,0,0,1,1.36,3c1.24,1.67,2,3.5,3.25,5.24.59.88,1.11,1.82,1.76,2.69l.51.6a26.39,26.39,0,0,0,2.51,4,20.21,20.21,0,0,0,2.44,4c1.49,2.56,2.56,5.27,4.45,7.54,0,.82.88,1.2.91,2,.41,1.64,1.7,2.89,2.39,4.45,1.44,1.66,1.54,4,3.32,5.45.17.68.88,1.2,1.12,2,1.16,1.4,1.78,3.1,2.94,4.5.25.95.9,1.82.67,2.87C218.76,316.71,216.45,315.9,214.6,316.05Zm-19.69-19.39c-.25-1-1.51-1.52-1.49-2.69a25.84,25.84,0,0,1-3.17-5c-.5-.4-.68-1.35-1.5-1.25a13.71,13.71,0,0,0-1.29,2.26c0,.62-.58,1-.69,1.54s-.32.7-.44,1.12c-.52.71-.7,1.48-1.15,2.12-.44,1-1.58,1.79-1.6,3,.22.54.9.31,1.33.5a1.69,1.69,0,0,1,1.16-.19,15.69,15.69,0,0,0,5.72,0c1.16-.32,2.29.32,3.23-.41A1.65,1.65,0,0,0,194.91,296.66Z"/><path class="cls-2" d="M264.24,310c-.2.14-.26.49-.61.57-.19.22-.47.36-.66.64-.34.15-.61.44-1,.59s-.74.37-1.08.59-.47.43-.74.37c-.13.35-.55.22-.75.44a8.14,8.14,0,0,1-1.08.65c-.2.29-.61.16-.74.58a16.84,16.84,0,0,1-1.77.61c-.2.21-.55.09-.75.3s-.82,0-1,.45a3.65,3.65,0,0,1-1.92.41,15.8,15.8,0,0,1-1.78.41,6.09,6.09,0,0,1-1.09.24c-1.65.13-3.3.39-5,.38-.43-.34-.9,0-1.38,0s-1-.24-1.44.05a2.51,2.51,0,0,1-1.6-.43c-.49-.19-1.11-.1-1.6-.42a4.39,4.39,0,0,1-1.39-.23c-.48.08-.77-.25-1.18-.24a5.35,5.35,0,0,0-1.47-.57c-.27.15-.48-.05-.69,0a1.42,1.42,0,0,1-.42-.27c-.77-.31-1.47-.77-2.17-1.09-.35-.06-.63-.19-.91-.25-.49-.33-.85-.8-1.42-1.12a1.48,1.48,0,0,0-.63-.46,4.07,4.07,0,0,0-1.2-.93,9.55,9.55,0,0,0-1.71-1.59A25.6,25.6,0,0,1,222.3,307c-.29-.34-.24-.82-.59-1.09-.15-.27-.29-.47-.44-.74s-.23-.68-.65-.8c-.09-.62-.65-.95-.87-1.42s-.44-.61-.45-1c-.14-.13-.15-.34-.23-.54-.35-.34-.1-.9-.46-1.3,0-.55-.78-.8-.73-1.42s-.66-1-.54-1.63a8,8,0,0,0-.39-1.23c-.22-.41,0-1-.25-1.44a2,2,0,0,0-.16-.62c-.24-.82.15-1.66-.09-2.54a5.2,5.2,0,0,0,0-1l.06-.07c-.29-.61,0-1.17-.06-1.86v-.07c0-.55.3-1.11.14-1.79a.77.77,0,0,0,.13-.42,5.9,5.9,0,0,1,.29-1.53,5.77,5.77,0,0,1,.24-1c.18-.7.43-1.39.62-2.09.05-.35.11-.62.17-1s.47-.5.45-.84c.33-.57.17-1.25.71-1.68,0-.35.39-.56.45-.91.38-.84,1.32-1.49,1.64-2.4,0-.35.46-.57.45-1a8.75,8.75,0,0,0,1.06-1.21c.2-.14.4-.36.61-.36a.83.83,0,0,1,.4-.36c.4-.5.86-.93,1.19-1.35,0-.21.14-.15.2-.22.27-.28.53-.7.94-.86.47-.36.93-1.06,1.54-1.15a4.72,4.72,0,0,0,.95-.58c.34,0,.54-.3.81-.38.27-.35.68-.36,1-.58.59-.85,1.41-.88,2.09-1.45.27,0,.54-.23.81-.24.62-.15,1.09-.45,1.71-.61.6-.64,1.57-.46,2.38-.77.33-.35,1-.17,1.37-.39.21.06.34-.08.47-.15a4.13,4.13,0,0,0,1.58-.33c.34.06.61-.16,1-.24a6.06,6.06,0,0,1,1.59-.12c.2-.08.41,0,.69.11a20.89,20.89,0,0,1,3,0,11,11,0,0,1,1.6.22c.27,0,.48,0,.62.12.56.18,1.17,0,1.66.15.83.18,1.67.42,2.5.53a.4.4,0,0,0,.42.19c.35.13.56.47,1,.46.07.13.21.06.35.12s.35.33.63.25c.28.2.69.19,1,.38.15.2.35.2.56.26s.35.19.56.26a9.5,9.5,0,0,1,1.91,1.31c.28.06.49.33.84.38s.29.55.64.74l.86.73c.27.06.35.4.57.53a1.19,1.19,0,0,1,.51,1.09c-.25.56-.23,1.25-.77,1.68,0,.2-.33.22-.32.49a2.87,2.87,0,0,0-.8,1,6.43,6.43,0,0,1-.85,1.13c-.26.5-.81.72-1.07,1.21a6.09,6.09,0,0,0-1.07.8c0,.55-.67.71-1,.93a3.79,3.79,0,0,1-1,.58c-.41,0-.68.09-1.1,0-.06.14-.13.07-.21,0a7,7,0,0,1-1.25-.51c-.37-.54-1-.45-1.48-.85-.41,0-.57-.6-1-.51-.22-.2-.55-.05-.84-.25-.27,0-.42-.26-.69-.18-.42-.06-.77-.32-1.12-.31l-.07-.07a10.73,10.73,0,0,1-2.21-.13c-.28-.26-.75.1-1-.17a1.86,1.86,0,0,1-1.23,0c-.63-.18-.95.52-1.58.33-.47.23-1,0-1.44.26-.28-.06-.54.22-.89.24a1.41,1.41,0,0,1-.67.43c-.34.22-.61.23-.88.45l-.07-.07c-.07.14-.34.08-.48.15-.34.08-.6.51-.87.65s-.47.36-.75.37l-.81.44c-.34.22-.81.45-.87.93-.2.08-.55,0-.53.36-.07.07-.06.28-.2.35-.4.5-1.28.81-1.46,1.57,0,.07-.14.14-.13.21l-.07.07v.14c-.87.58-.91,1.55-1.5,2.26-.2.35-.25.83-.44,1.18s-.05.69-.25,1.05a4.88,4.88,0,0,0-.39,2.63c-.25.63,0,1.31-.21,2a1.13,1.13,0,0,0,.17.69,4.64,4.64,0,0,0,.41,2.19c-.05.41.37.68.25,1.09.21.27.16.62.23.89a13.24,13.24,0,0,0,.67,1.29c.43.47.59,1.15,1.16,1.61a3.92,3.92,0,0,1,.94,1.42,4,4,0,0,0,1,.65c.36.4.91.46,1.2.93s.72.8,1.21,1.13c.56.12,1,.65,1.54.77a4.93,4.93,0,0,0,1.33.58c.14,0,.29.13.42.19a10,10,0,0,0,2,.28,13.23,13.23,0,0,0,2.35.12c.07.14.14,0,.21,0a.92.92,0,0,1,.48.05c.41-.15.83,0,1.3-.18a16.54,16.54,0,0,0,2.54-.3c.2-.21.55-.22.82-.3.54-.36,1.23-.32,1.7-.75a1.13,1.13,0,0,1,.48-.08c.87-.65,1.53-1.57,2.62-1.81a2.22,2.22,0,0,1,1.35-1c.27-.14.47-.43.81-.3s.57.53,1,.52a3.25,3.25,0,0,1,1.13.79,2.51,2.51,0,0,1,.57.6,2.25,2.25,0,0,0,1,.79c.15.41.57.53.79.94a5.91,5.91,0,0,1,1.63,1.25c.22.34.7.39,1,.8.21.06.22.33.49.32a8.94,8.94,0,0,1,1.08,1.14c.08.27.49.46.37.88C265.64,308.82,264.83,309.4,264.24,310Z"/><path class="cls-2" d="M316.7,318.08c-.42.12-.82-.31-1.18,0s-.89-.11-1.31.08a14.22,14.22,0,0,0-3.44-.07c-.28-.08-.69-.1-1-.18s-.82-.17-1.17-.26a22.44,22.44,0,0,0-3-.05c-.42.12-1,0-1.38.08a3.87,3.87,0,0,1-1.79-.07c-.68-.1-1.32.29-1.93-.08-.41.12-.61-.23-.95-.25-.2-.28-.47-.36-.66-.64s-.53-.65-.65-1.07a2.73,2.73,0,0,0-.6-.36,7.69,7.69,0,0,1-.92-1.28c-.31-.71-1.19-1.09-1.37-1.78a2.62,2.62,0,0,0-.59-.65c-.13-.35-.4-.5-.66-.72s-.47-.36-.6-.64a5.83,5.83,0,0,1-1.13-1.08,11.62,11.62,0,0,1-1.51-1.65c-.2-.15-.33-.36-.54-.43a3,3,0,0,1-.86-.94c-.2-.14-.46-.36-.45-.57s-.4-.43-.53-.71c-.2,0-.13-.21-.26-.35-.19-.42-.66-.58-.86-.93a6.26,6.26,0,0,0-1.19-1.16c-.19-.35-.6-.44-.79-.79-.4-.29-.45-.84-.85-1.21-.2-.14-.32-.56-.67-.58a3.38,3.38,0,0,0-.84-1.13.81.81,0,0,0-.75-.24c-.57.32-.38.88-.61,1.35a10.23,10.23,0,0,1,.06,2c-.22.19.05.41-.1.61s.11.56,0,.83.1.76,0,1.24c.14.14,0,.41,0,.62s0,.69,0,1.11c.06.2-.09.47,0,.76s-.16.54-.1.82l-.08.06-.06,1.52.06.14a12.13,12.13,0,0,1-.13,1.65,2.11,2.11,0,0,1,.08,1.31c0,.55.37,1,.15,1.52.12.35-.1.69,0,1-.21.19-.16.54-.44.74.06.21-.22.26-.29.4s-.42.05-.57.25a.55.55,0,0,1-.55.05c-.41-.09-.77.24-1.1,0a1,1,0,0,1-.42.12,6.39,6.39,0,0,0-2-.08c-.33-.22-1,0-1.37-.13-.7.18-1.37-.26-2-.08a11.45,11.45,0,0,0-3-.13c-.21-.14-.48-.08-.69-.16-.54-.16-1.25.15-1.49-.54-.2-.22-.12-.56-.17-.84s0-.76-.1-1.11c.21-.13.09-.34.23-.54a11,11,0,0,1,.27-1.5c-.12-.35.1-.69-.09-1a2.93,2.93,0,0,0,.11-1.1c.14-.06.08-.2.08-.27-.23-1,.21-1.86,0-2.76-.18-.63.18-1.17.07-1.79a4.32,4.32,0,0,0,.2-1.37c0-.83,0-1.66.1-2.48s.34-1.78.32-2.74c.08-.48,0-1,.13-1.51-.2-.15,0-.49-.18-.7.12-1.17.08-2.07.2-3.23-.06-.28,0-.62,0-1h.07c0-.34.16-.61,0-.89.22-.27,0-.55.1-.82a13.3,13.3,0,0,1,.19-2.89,3.26,3.26,0,0,1-.09-1.18c0-.2-.12-.42,0-.62,0-.83.26-1.51.23-2.34a1.16,1.16,0,0,0,0-.82,5.05,5.05,0,0,0,0-1,8.16,8.16,0,0,1,.05-1.31.1.1,0,0,0,0-.14c-.06-.27.16-.54,0-.75a5.62,5.62,0,0,0,.2-1.51,4.5,4.5,0,0,0,.19-1.3c.08-.21,0-.48.17-.75-.17-1,0-2.28-.07-3.45-.18-.63.26-1.17.08-1.86.09-.48-.09-1,0-1.52a5.13,5.13,0,0,1-.06-2.07v-.07l.06-1.37c.15-.14,0-.35,0-.49H270c.09-.48,0-1,.27-1.44a2.4,2.4,0,0,1,.38-.88c.21-.13.36-.33.56-.32s.49-.05.63-.18c.63-.25,1.16.25,1.8-.07a2.34,2.34,0,0,1,1.37.13l2.13.09a4.64,4.64,0,0,1,1.38.05c.48.16,1-.16,1.52,0,.75.1,1.65.06,2.4.23.26.43.88.32,1.13.95.06.34-.23.68,0,1-.15.41.18.7,0,1.17-.12,1,.05,2.07-.13,3.1.19.42-.11.89.08,1.24.08,1.46-.46,2.88-.25,4.34-.29.54-.12,1.37-.28,2a2,2,0,0,0,0,.9,15.16,15.16,0,0,1-.14,1.72,1,1,0,0,1-.1.62c.13.21,0,.55.11.76a14.76,14.76,0,0,1-.24,2.47,8.76,8.76,0,0,1,0,2.35c.06.28.05.62.31.77.49,0,.71-.39,1.13-.44a12.83,12.83,0,0,1,.93-1,7.65,7.65,0,0,0,.6-1c.29-.34.44-.67.86-.86,0-.69.93-.86.89-1.55.21-.13.36-.47.51-.6a6.24,6.24,0,0,1,1.5-1.25c.37-.6,1.07-1,1.38-1.67.35-.12.16-.54.44-.74a5.52,5.52,0,0,0,.8-.93c.22-.54,1-.72,1.09-1.33a2.88,2.88,0,0,0,.86-1c.29-.26.37-.61.73-.8.09-.55.85-.72,1-1.27.5-.25.52-.87,1-1.13.22-.47.71-.72.94-1.2.57-.32.52-1,1.16-1.33.36-.33.37-.74.73-1,0-.14.15-.27.16-.41.28-.33.71-.73.94-1.06s.59-.95,1.08-1.13c.37-.68,1.05-.44,1.61-.69a2.68,2.68,0,0,0,.7-.18A9.11,9.11,0,0,1,306,263c.82.11,1.66-.06,2.41,0l2.68.31c.47.3,1,.05,1.5.27a10.4,10.4,0,0,0,2.63-.17,8.72,8.72,0,0,1,1.23.19c.2.08.41.16.47.37a2.69,2.69,0,0,1-.08,1.79c-.21.2-.36.46-.57.66s-.31.61-.72.66a5.61,5.61,0,0,0-1.31,1.53c-.21.2-.36.54-.64.67a14.08,14.08,0,0,1-1.46,1.87c0,.2-.36.33-.37.53-.35.13-.29.54-.71.66a4.78,4.78,0,0,1-.89,1.41c-.08.21-.35.26-.5.53s-.65.67-.94,1.07-.79.66-.88,1.14c-.36.46-.73.93-1.16,1.4a2,2,0,0,0-.22.4c-.22.27-.3.54-.65.73-.09.55-.79.66-.95,1.2-.21.2-.57.46-.58.81-.57.45-.68,1.35-1.38,1.66-.22.41-.78.45-.79.87-.79.58-1,1.47-1.75,2.13-.07.2-.36.4-.43.53a5.29,5.29,0,0,0-1.09,1.34c-.22.2-.3.47-.65.66-.22.4-.78.59-.81,1.14-.21.2-.43.53-.72.8a4.66,4.66,0,0,0-.47,1.36c-.07.2.05.41,0,.62a4,4,0,0,0,.25.84c.27.15.18.49.45.71.8.58.84,1.48,1.64,2,.13.21.25.63.66.72.26.49.73.72,1.06,1.14a1.38,1.38,0,0,1,.58.79c.14.14.27.28.4.43a7.51,7.51,0,0,1,1.12,1.35,2.06,2.06,0,0,1,.45.64c.27.22.61.3.73.65.54.37.51,1.2,1.25,1.43.42.09.33.57.66.79.06.14.34.22.33.43.33.28.45.64.79.79.46.71,1.28,1,1.59,1.72.46.43.71,1.06,1.11,1.49a1.29,1.29,0,0,0,.39.5c.19.42.67.51.72.93.26.49.8.65,1,1.14.53.44.78,1.06,1.32,1.43.18.49.88.38.92.94.07.07.14.14.07.21.6.37.85,1,1.32,1.36a7.75,7.75,0,0,0,.86.86c.45.71,1.68,1.11,1.29,2.19C317,317.74,317,318.09,316.7,318.08Z"/><path class="cls-2" d="M356.19,299.81c-.19.22,0,.48,0,.69.26.81-.6,1.35-.41,2.17,0,.61-.42,1.06-.45,1.62,0,.34-.24.56-.29.84s-.44.65-.62,1a17.64,17.64,0,0,1-.72,1.7h-.07a4.65,4.65,0,0,1-.69.94c-.34.16-.31.64-.72.67-.18.43-.65.66-.83,1a2.46,2.46,0,0,1-.38.44c-.2.22-.39.51-.58.73s-.32.3-.52.45a2.77,2.77,0,0,1-.91.82c-.13.21-.33.29-.52.51-.14-.06-.13.15-.27.16a8.33,8.33,0,0,1-1.32.91c-.27.09-.62.05-.8.33a6,6,0,0,1-.94.48,18.67,18.67,0,0,0-1.75.74c-.34,0-.67.18-1,.2-.47.17-1-.07-1.44.17a12.68,12.68,0,0,1-4.5.71,19.81,19.81,0,0,1-2.09-.14,8.74,8.74,0,0,0-1.94-.22c-.08-.06-.28,0-.42,0-.55,0-1-.28-1.54-.31-.43-.25-.9-.15-1.33-.26-.3-.32-.77-.16-1.06-.41-.49-.18-1-.22-1.48-.39-.21-.06-.35-.18-.56-.17s-.44-.45-.7-.23c-.42,0-.64-.23-1-.14-.35-.12-.64-.24-1-.35s-.57-.31-.92-.29a12.9,12.9,0,0,1-2-.9c-.16-.4-.71-.37-.88-.77a3.91,3.91,0,0,1-.55-2.17c.29-.71.1-1.53.62-2.11.11-.36.37-.58.35-.92.19-.29.17-.57.43-.79s.25-.36.24-.57c.19-.29.16-.63.49-.93-.09-.27.05-.35.17-.56s.44-.65.42-1a1.63,1.63,0,0,1,.43-.72c.14,0,.27-.22.33-.36s.16-.63.5-.66c.7,0,.84-.88,1.55-.58a5.28,5.28,0,0,0,1.62.37c.36.32,1,.15,1.41.53.78.23,1.44.87,2.27,1a7.82,7.82,0,0,0,1.07.41c.34,0,.56.24.9.15s.58.44,1,.35c.56.1,1,.34,1.55.45s.78.29,1.19.19c.08.14.14,0,.28.05s.41,0,.69.1a8.11,8.11,0,0,0,2.2-.15c.41,0,.74-.25,1.16-.28.66-.46,1-1.11,1.69-1.5a2.6,2.6,0,0,0,.66-1.56,3.61,3.61,0,0,0-.15-2.26,2,2,0,0,0-.64-1.27c-.47-.87-1.45-1.15-2.17-1.65-.42,0-.66-.44-1-.49-.46-.59-1.13-.27-1.57-.73-.28,0-.43-.24-.63-.16-.22-.12-.42,0-.56-.17-.36-.12-.78-.3-1.21-.41a4.52,4.52,0,0,0-.78-.36c-.36-.18-.51-.45-.92-.35-.08-.13-.21,0-.28-.12-.28-.05-.56,0-.78-.3-.48.11-.92-.28-1.48-.38-.07-.13-.28-.12-.42-.18-.43-.25-.92-.28-1.42-.53-.22-.26-.63-.16-.92-.35-.57-.31-1.21-.54-1.78-.78a11.71,11.71,0,0,0-1.58-.93c-.44-.46-1.08-.76-1.39-1.29-.22-.13-.23-.33-.31-.53-.46-.59-1.17-1-1.49-1.63-.31-.46-.89-.84-.93-1.46-.36-.32-.39-.66-.62-1.06a5.86,5.86,0,0,1-.49-2.18l-.07-.06c.06-1.11-.55-2-.41-3.08-.13-1,.16-1.74.1-2.63.25-.43.14-1,.4-1.34-.11-.61.49-.93.52-1.42.2-.22.1-.55.16-.83,0-.55.63-.81.67-1.29.12-.28.52-.52.5-.79.33-.16.31-.58.57-.8a3.87,3.87,0,0,1,1.36-1.26c.51-.66,1.25-1.05,1.76-1.71.26-.22.6-.31.79-.53s.67-.25.71-.67a8.52,8.52,0,0,1,.86-.68,4.85,4.85,0,0,0,1-.41c.27,0,.46-.24.67-.25a1.69,1.69,0,0,0,1.14-.56,5.22,5.22,0,0,1,1.76-.53c.33-.23.82-.12,1.15-.28a24.24,24.24,0,0,0,3.15-.49,4,4,0,0,1,.9.08l.82-.05.07-.08c.74-.25,1.31.06,2.07,0l.21.12c.42,0,.7.16,1.11.06.43.25.9.08,1.33.26a7.49,7.49,0,0,1,1.74.23c.83-.05,1.42.53,2.11.55a12.93,12.93,0,0,0,1.55.45c.51.38,1.12.34,1.56.73.28.05.43.25.71.23a2,2,0,0,0,.78.36.47.47,0,0,0,.35.12c.64.16.81.77,1.19,1.16a2.09,2.09,0,0,1,0,2c-.32.44-.21,1-.46,1.41,0,.28-.38.44-.29.78-.51.66-.25,1.54-.76,2.12.05.76-.47,1.21-.57,1.9a6.64,6.64,0,0,1-1.13,1.74c-.33.09-.61,0-.87.33-.41,0-.64-.23-1.05-.21-.7-.23-1.15-.75-1.92-.91-.27.09-.43-.17-.7-.09a3.7,3.7,0,0,0-1.76-.57c-.5-.25-1.24.08-1.62-.45-.28,0-.56-.17-.84-.15-.36-.25-.83,0-1.18-.13a10.25,10.25,0,0,0-3.57.31c-.19.22-.55.1-.74.32-.4.16-.89.13-1.06.55a3.77,3.77,0,0,0-.55,1.21c-.18.29,0,.56-.22.85a1.4,1.4,0,0,0,.51,1.34c.08.27.44.46.52.66a3.07,3.07,0,0,0,1.59,1,6.63,6.63,0,0,0,2.05.76c.15.2.36.18.5.31s.64.24,1,.35.78.37,1.27.47c.22.12.51.38.79.36.22.26.63.1.85.36a4.49,4.49,0,0,0,1.2.41,6,6,0,0,0,1.05.27c.29.19.71.16.93.42a9.84,9.84,0,0,1,1.43.67,10.85,10.85,0,0,1,1.56.79c.51.38,1,.56,1.51.87.35.05.51.38.8.57.86.56,1.27,1.5,2.07,2.14a7,7,0,0,1,1.28,1.57c.1.55.62,1,.86,1.47s.48,1,.85,1.39c.16.4,0,.76.14,1.09a3.52,3.52,0,0,0,.44,1.43,7.88,7.88,0,0,0,.35,1.21,7.39,7.39,0,0,1,.09,1.24C356.34,298.9,356.16,299.33,356.19,299.81Z"/></g></g></svg>