<svg xmlns="http://www.w3.org/2000/svg" viewBox="0 0 136.405 25.096">
  <defs>
    <style>
      .cls-1 {
        fill: #ec1e1e;
      }
    </style>
  </defs>
  <g id="Group_188" data-name="Group 188" transform="translate(0 0.1)">
    <g id="Group_186" data-name="Group 186" transform="translate(34.53 -0.1)">
      <path id="Path_126" data-name="Path 126" class="cls-1" d="M153.1.3h2.415V1.383h-1.354V3.256h.97V4.407h-.97V6.371h1.354V7.454H153.1Z" transform="translate(-153.077 -0.21)"/>
      <path id="Path_127" data-name="Path 127" class="cls-1" d="M166.3.3h1.061V6.461h1.4v.97H166.3Z" transform="translate(-163.298 -0.21)"/>
      <path id="Path_128" data-name="Path 128" class="cls-1" d="M179.6.3h2.415V1.383h-1.354V3.256h.97V4.407h-.97V6.371h1.354V7.454H179.6Z" transform="translate(-173.597 -0.21)"/>
      <path id="Path_129" data-name="Path 129" class="cls-1" d="M195.521,4.685v.97a1.673,1.673,0,0,1-.181.767,1.185,1.185,0,0,1-.429.519,1.247,1.247,0,0,1-.812.248,1.2,1.2,0,0,1-.812-.248,1.261,1.261,0,0,1-.406-.519,2.019,2.019,0,0,1-.181-.767v-4.2a1.745,1.745,0,0,1,.181-.767,1.557,1.557,0,0,1,.406-.542A1.446,1.446,0,0,1,194.1-.1a1.247,1.247,0,0,1,.812.248,1.243,1.243,0,0,1,.429.542,2.019,2.019,0,0,1,.181.767v.97h-.993v-.97a.582.582,0,0,0-.158-.451.363.363,0,0,0-.248-.068.338.338,0,0,0-.316.271.842.842,0,0,0-.045.271v4.2a.68.68,0,0,0,.158.451.276.276,0,0,0,.2.068.332.332,0,0,0,.361-.271.842.842,0,0,0,.045-.271v-.97Z" transform="translate(-183.74 0.1)"/>
      <path id="Path_130" data-name="Path 130" class="cls-1" d="M206.6,1.383V.3h3.047V1.383h-.993V7.432h-1.061V1.383Z" transform="translate(-194.503 -0.21)"/>
      <path id="Path_131" data-name="Path 131" class="cls-1" d="M224,7.432l-.542-3h-.293v3H222.1V.3h1.061c1.264,0,1.805.7,1.805,2.054a1.962,1.962,0,0,1-.587,1.625l.677,3.453Zm-.835-3.972a.758.758,0,0,0,.5-.158,1.139,1.139,0,0,0,.293-.9,1.139,1.139,0,0,0-.293-.9.727.727,0,0,0-.5-.135Z" transform="translate(-206.505 -0.21)"/>
      <path id="Path_132" data-name="Path 132" class="cls-1" d="M240.421,5.655a1.674,1.674,0,0,1-.181.767,1.185,1.185,0,0,1-.429.519A1.247,1.247,0,0,1,239,7.19a1.2,1.2,0,0,1-.812-.248,1.261,1.261,0,0,1-.406-.519,2.02,2.02,0,0,1-.181-.767v-4.2a1.746,1.746,0,0,1,.181-.767,1.557,1.557,0,0,1,.406-.542A1.446,1.446,0,0,1,239-.1a1.247,1.247,0,0,1,.812.248,1.243,1.243,0,0,1,.429.542,2.019,2.019,0,0,1,.181.767Zm-1.061-4.2a.674.674,0,0,0-.135-.451.344.344,0,0,0-.542.2.841.841,0,0,0-.045.271v4.2a.674.674,0,0,0,.135.451.276.276,0,0,0,.2.068.316.316,0,0,0,.316-.271.841.841,0,0,0,.045-.271v-4.2Z" transform="translate(-218.507 0.1)"/>
      <path id="Path_133" data-name="Path 133" class="cls-1" d="M254.528,3.73l-.09-.339h-.068v4.04h-.97V.3h.948L255.363,4l.09.339h.068V.3h.97V7.432h-.925Z" transform="translate(-230.741 -0.21)"/>
      <path id="Path_134" data-name="Path 134" class="cls-1" d="M270.8.3h1.061V7.432H270.8Z" transform="translate(-244.214 -0.21)"/>
      <path id="Path_135" data-name="Path 135" class="cls-1" d="M281.621,4.685v.97a1.673,1.673,0,0,1-.181.767,1.185,1.185,0,0,1-.429.519,1.247,1.247,0,0,1-.812.248,1.2,1.2,0,0,1-.812-.248,1.261,1.261,0,0,1-.406-.519,2.019,2.019,0,0,1-.181-.767v-4.2a1.745,1.745,0,0,1,.181-.767,1.556,1.556,0,0,1,.406-.542A1.446,1.446,0,0,1,280.2-.1a1.247,1.247,0,0,1,.812.248,1.243,1.243,0,0,1,.429.542,2.019,2.019,0,0,1,.181.767v.97h-.993v-.97a.582.582,0,0,0-.158-.451.363.363,0,0,0-.248-.068.338.338,0,0,0-.316.271.841.841,0,0,0-.045.271v4.2a.68.68,0,0,0,.158.451.276.276,0,0,0,.2.068.332.332,0,0,0,.361-.271.841.841,0,0,0,.045-.271v-.97Z" transform="translate(-250.409 0.1)"/>
      <path id="Path_136" data-name="Path 136" class="cls-1" d="M155.415,40.861h-1.354v1.873h.97v1.083h-.97v3.092H153V39.8h2.415Z" transform="translate(-153 -30.795)"/>
      <path id="Path_137" data-name="Path 137" class="cls-1" d="M168.2,46.909l-.564-3h-.271v3H166.3V39.8h1.061c1.264,0,1.805.7,1.805,2.054a1.962,1.962,0,0,1-.587,1.625l.677,3.453H168.2Zm-.835-3.972a.758.758,0,0,0,.5-.158,1.536,1.536,0,0,0,0-1.805.727.727,0,0,0-.5-.135Z" transform="translate(-163.298 -30.795)"/>
      <path id="Path_138" data-name="Path 138" class="cls-1" d="M184.621,45.155a1.673,1.673,0,0,1-.181.767,1.185,1.185,0,0,1-.429.519,1.247,1.247,0,0,1-.812.248,1.2,1.2,0,0,1-.812-.248,1.261,1.261,0,0,1-.406-.519,2.02,2.02,0,0,1-.181-.767v-4.2a1.746,1.746,0,0,1,.181-.767,1.557,1.557,0,0,1,.406-.542,1.446,1.446,0,0,1,.812-.248,1.294,1.294,0,0,1,1.241.79,2.019,2.019,0,0,1,.181.767Zm-1.061-4.2a.674.674,0,0,0-.135-.451.344.344,0,0,0-.542.2.842.842,0,0,0-.045.271v4.2a.674.674,0,0,0,.135.451.276.276,0,0,0,.2.068.316.316,0,0,0,.316-.271.841.841,0,0,0,.045-.271v-4.2Z" transform="translate(-175.3 -30.485)"/>
      <path id="Path_139" data-name="Path 139" class="cls-1" d="M198.806,43.208l-.09-.339h-.045v4.04h-.97V39.8h.948l1.016,3.7.09.339h.068V39.8h.97v7.132h-.948Z" transform="translate(-187.612 -30.795)"/>
      <path id="Path_140" data-name="Path 140" class="cls-1" d="M213.3,40.783V39.7h3.047v1.083h-.993v6.048h-1.061V40.783Z" transform="translate(-199.691 -30.718)"/>
      <path id="Path_141" data-name="Path 141" class="cls-1" d="M228.9,39.8h1.061v7.132H228.9Z" transform="translate(-211.77 -30.795)"/>
      <path id="Path_142" data-name="Path 142" class="cls-1" d="M237.2,39.8h2.415v1.083h-1.354v1.873h.97v1.151h-.97v1.963h1.354v1.083H237.2Z" transform="translate(-218.197 -30.795)"/>
      <path id="Path_143" data-name="Path 143" class="cls-1" d="M252.518,46.909l-.564-3h-.293v3H250.6V39.8h1.061c1.264,0,1.805.7,1.805,2.054a1.962,1.962,0,0,1-.587,1.625l.677,3.453h-1.038Zm-.835-3.972a.758.758,0,0,0,.5-.158,1.536,1.536,0,0,0,0-1.805.727.727,0,0,0-.5-.135Z" transform="translate(-228.573 -30.795)"/>
      <path id="Path_144" data-name="Path 144" class="cls-1" d="M155.515,80.283h-1.354v1.873h.97v1.061h-.97v3.092H153.1V79.2h2.415Z" transform="translate(-153.077 -61.303)"/>
      <path id="Path_145" data-name="Path 145" class="cls-1" d="M168.821,84.555a1.673,1.673,0,0,1-.181.767,1.185,1.185,0,0,1-.429.519,1.247,1.247,0,0,1-.812.248,1.2,1.2,0,0,1-.812-.248,1.261,1.261,0,0,1-.406-.519,2.02,2.02,0,0,1-.181-.767v-4.2a1.746,1.746,0,0,1,.181-.767,1.557,1.557,0,0,1,.406-.542,1.446,1.446,0,0,1,.812-.248,1.294,1.294,0,0,1,1.241.79,2.019,2.019,0,0,1,.181.767Zm-1.061-4.2a.674.674,0,0,0-.135-.451.344.344,0,0,0-.542.2.842.842,0,0,0-.045.271v4.2a.674.674,0,0,0,.135.451.276.276,0,0,0,.2.068.316.316,0,0,0,.316-.271.842.842,0,0,0,.045-.271v-4.2Z" transform="translate(-163.066 -60.993)"/>
      <path id="Path_146" data-name="Path 146" class="cls-1" d="M184.621,79.2v5.665a1.673,1.673,0,0,1-.181.767,1.185,1.185,0,0,1-.429.519,1.247,1.247,0,0,1-.812.248,1.2,1.2,0,0,1-.812-.248,1.261,1.261,0,0,1-.406-.519,2.02,2.02,0,0,1-.181-.767V79.2h1.061v5.665a.674.674,0,0,0,.135.451.276.276,0,0,0,.2.068.316.316,0,0,0,.316-.271.842.842,0,0,0,.045-.271V79.2Z" transform="translate(-175.3 -61.303)"/>
      <path id="Path_147" data-name="Path 147" class="cls-1" d="M198.928,82.608l-.09-.339h-.068v4.04h-.97V79.2h.948l1.016,3.7.09.339h.068V79.2h.97v7.132h-.948Z" transform="translate(-187.689 -61.303)"/>
      <path id="Path_148" data-name="Path 148" class="cls-1" d="M215.2,86.332V79.2h.835c.97,0,1.512.2,1.783.745a7.162,7.162,0,0,1,.316,2.821,7.1,7.1,0,0,1-.316,2.821c-.293.542-.812.745-1.783.745Zm1.061-1.061c.361,0,.564-.045.677-.384a2.81,2.81,0,0,0,.09-.767V81.367a3.088,3.088,0,0,0-.09-.767c-.113-.339-.316-.384-.677-.384Z" transform="translate(-201.162 -61.303)"/>
      <path id="Path_149" data-name="Path 149" class="cls-1" d="M229.9,86.332l1.083-7.132h1.286l1.083,7.132h-1.016l-.2-1.444h-1.016l-.2,1.444Zm1.783-4.807-.023-.181h-.068l-.023.181-.293,2.257H232Z" transform="translate(-212.545 -61.303)"/>
      <path id="Path_150" data-name="Path 150" class="cls-1" d="M244.6,80.283V79.2h3.047v1.083h-.993v6.048h-1.061V80.283Z" transform="translate(-223.927 -61.303)"/>
      <path id="Path_151" data-name="Path 151" class="cls-1" d="M260.7,79.2h1.061v7.132H260.7Z" transform="translate(-236.394 -61.303)"/>
      <path id="Path_152" data-name="Path 152" class="cls-1" d="M271.521,84.555a1.674,1.674,0,0,1-.181.767,1.185,1.185,0,0,1-.429.519,1.247,1.247,0,0,1-.812.248,1.2,1.2,0,0,1-.812-.248,1.261,1.261,0,0,1-.406-.519,2.019,2.019,0,0,1-.181-.767v-4.2a1.745,1.745,0,0,1,.181-.767,1.557,1.557,0,0,1,.406-.542,1.446,1.446,0,0,1,.813-.248,1.294,1.294,0,0,1,1.241.79,2.019,2.019,0,0,1,.181.767Zm-1.038-4.2a.674.674,0,0,0-.135-.451.344.344,0,0,0-.542.2.841.841,0,0,0-.045.271v4.2a.674.674,0,0,0,.135.451.276.276,0,0,0,.2.068.316.316,0,0,0,.316-.271.842.842,0,0,0,.045-.271v-4.2Z" transform="translate(-242.588 -60.993)"/>
      <path id="Path_153" data-name="Path 153" class="cls-1" d="M285.628,82.608l-.09-.339h-.068v4.04h-.97V79.2h.948l1.016,3.7.09.339h.068V79.2h.97v7.132h-.948Z" transform="translate(-254.822 -61.303)"/>
    </g>
    <g id="Group_187" data-name="Group 187" transform="translate(0 0.013)">
      <path id="Path_154" data-name="Path 154" d="M0,.4V25.293H32.77V18.184H10.675V16.4H32.77V9.292H10.675V7.509H32.77V.4Z" transform="translate(0 -0.4)"/>
      <path id="Path_155" data-name="Path 155" d="M306.2.4V25.293h10.675V16.4h22.072V9.292H316.875V7.509h22.072V.4Z" transform="translate(-237.095 -0.4)"/>
      <path id="Path_156" data-name="Path 156" d="M459.2.4V25.293h10.675V16.4H491.97V9.292H469.875V7.509H491.97V.4Z" transform="translate(-355.565 -0.4)"/>
    </g>
  </g>
</svg>
