<svg xmlns="http://www.w3.org/2000/svg" width="1400" height="1040" viewBox="0 0 1400 1040">
  <defs>
    <style>
      .cls-1 {
        fill: #2e243f;
      }

      .cls-2 {
        fill: #254a35;
      }

      .cls-3 {
        fill: #86bcd1;
      }

      .cls-4 {
        fill: #4d8061;
      }

      .cls-5 {
        fill: #f6ad0f;
      }

      .cls-6 {
        fill: #d3473d;
      }

      .cls-7 {
        fill: #f5efeb;
      }
    </style>
  </defs>
  <title>CYT_static_illo</title>
  <g id="v2">
    <g id="small_deer-2" data-name="small deer">
      <g id="Layer_10" data-name="Layer 10">
        <g>
          <path class="cls-1" d="M1046.89,339.14c11.73-7.4,20.51-17.87,24.32-30.76,21.58-73,24.27-146.12-3.38-218.41-4.24-11.09-9-26.26-21.7-27.42-15-1.37-16.8,15.67-21.27,26.15a1101.8,1101.8,0,0,0-52.31,154.2c-5.39,20.59-5.92,41.7-2.93,62.79C975.71,348.57,1011.31,363.94,1046.89,339.14Z"/>
          <path class="cls-1" d="M944.14,50.25C897.35,89.37,856,127.9,829,179.09c-22.2,42.15-16.86,84,11.79,98.69,24.23,12.43,74.06-9.69,91.09-44.54,28.35-58,46.53-120,64.17-182,5.31-18.66-1.82-26.3-20.39-18.13C963.56,38.44,952.32,45.74,944.14,50.25Z"/>
          <path class="cls-1" d="M870.43,358.13c-8.82-9.87-18.1-20.79-33-10.62S819,372.82,827.66,388c7.88,13.79,21.54,19.31,36.65,10.56C882.15,388.2,877.89,373.36,870.43,358.13Z"/>
          <path class="cls-1" d="M916,423.35c11.44,9,26,15.83,40.5,5.85,11.17-7.66,18.13-21.38,7.42-34.19-13.15-15.73-30.09-10.82-44.53-1.66C909,400,907,410.85,916,423.35Z"/>
        </g>
        <g>
          <path class="cls-1" d="M218,733c-2.67-13.61-1.08-27.18,5.69-38.8C262,628.38,313.33,576.3,384.9,546.81c11-4.52,25.26-11.49,34.83-3,11.26,10,.13,23-4.42,33.42A1104.08,1104.08,0,0,1,339,721.05c-11.29,18-26.28,32.92-43.68,45.21C260,791.25,224.35,775.89,218,733Z"/>
          <path class="cls-1" d="M498.65,609.55c3.64,60.88,4,117.42-14.73,172.15-15.43,45.08-49.55,69.91-79.89,59.14-25.67-9.1-43.76-60.53-30.1-96.83,22.76-60.42,55.39-116.18,88.39-171.54,9.93-16.66,20.38-16.73,27.17,2.39C493.92,587.32,496.32,600.5,498.65,609.55Z"/>
          <path class="cls-1" d="M325.23,874.4c13.24-.35,27.55-1.09,30.37,16.72S349.84,921.9,332.88,926c-15.44,3.72-28.83-2.43-32.83-19.42C295.32,886.51,309,879.42,325.23,874.4Z"/>
          <path class="cls-1" d="M246.49,886c-14.43-2.12-29.33-8-32-25.46-2.09-13.38,3.12-27.85,19.78-28.85,20.47-1.22,28.52,14.47,31.77,31.26C268.36,875.1,261.8,884,246.49,886Z"/>
        </g>
      </g>
    </g>
    <g id="big_deer" data-name="big deer">
      <path class="cls-2" d="M430.87,235.14C378.75,145.68,203.29,52.85,156.78,58c-6.31.7-9.55,8-5.49,12.4,163,177.21,143,242.6,131.61,248.86-9.91,5.48-83.75,4.48-165.7-229.44-1.88-5.39-9.42-6-13-1.1-28,38.63-30.79,221.63,27.42,321.53,53.86,92.43,132.8,103,186.58,81.74a24.6,24.6,0,0,0,14.85-17.24L342,444.54c5.38-15.47,16.19-20.66,32.71-20.23l28.65,6.15a23.78,23.78,0,0,0,21-6C458.47,392.67,478.07,316.15,430.87,235.14Z"/>
      <path class="cls-2" d="M1161.44,688.35c-68-78-257.82-136.18-302.53-122.37-6.07,1.88-7.88,9.64-3.06,13.21,193.49,143.36,186.07,211.35,176.1,219.65-8.7,7.24-81.41,20.16-205.92-194.16-2.87-4.93-10.38-4.12-12.94,1.36-20.22,43.21,11.48,223.47,87.45,310.62,70.3,80.65,149.83,76.21,198.64,45.16a24.6,24.6,0,0,0,11.33-19.73l3.08-31.35c2.37-16.21,12-23.34,28.32-26l29.29.65a23.77,23.77,0,0,0,19.5-9.86C1218.2,837.87,1223.05,759,1161.44,688.35Z"/>
    </g>
    <g id="bird">
      <g>
        <polygon class="cls-3" points="482.31 888.19 459.42 859.45 460.02 858.93 484.7 886.16 482.31 888.19"/>
        <polygon class="cls-3" points="483.25 888.73 455.5 883.07 455.63 882.29 483.75 885.63 483.25 888.73"/>
        <polygon class="cls-3" points="481.93 887.17 483.17 858.88 483.97 858.88 485.07 887.18 481.93 887.17"/>
        <polygon class="cls-3" points="483.76 885.06 497.18 902.66 496.57 903.17 481.37 887.09 483.76 885.06"/>
      </g>
      <g>
        <polygon class="cls-3" points="464.93 801.2 440.33 773.9 440.9 773.35 467.19 799.03 464.93 801.2"/>
        <polygon class="cls-3" points="465.9 801.67 437.86 797.71 437.94 796.92 466.21 798.55 465.9 801.67"/>
        <polygon class="cls-3" points="464.49 800.2 464.01 771.89 464.8 771.84 467.62 800.02 464.49 800.2"/>
        <polygon class="cls-3" points="466.19 797.98 480.65 814.73 480.07 815.28 463.93 800.15 466.19 797.98"/>
      </g>
      <g>
        <polygon class="cls-3" points="395.56 805.28 370.96 777.98 371.53 777.42 397.82 803.11 395.56 805.28"/>
        <polygon class="cls-3" points="396.53 805.75 368.49 801.79 368.57 801 396.84 802.63 396.53 805.75"/>
        <polygon class="cls-3" points="395.12 804.28 394.64 775.97 395.43 775.92 398.25 804.1 395.12 804.28"/>
        <polygon class="cls-3" points="396.81 802.06 411.28 818.81 410.7 819.36 394.55 804.23 396.81 802.06"/>
      </g>
      <g>
        <polygon class="cls-3" points="301.71 713.89 277.11 686.59 277.69 686.04 303.97 711.72 301.71 713.89"/>
        <polygon class="cls-3" points="302.69 714.37 274.64 710.41 274.72 709.62 303 711.25 302.69 714.37"/>
        <polygon class="cls-3" points="301.27 712.9 300.79 684.58 301.58 684.53 304.4 712.72 301.27 712.9"/>
        <polygon class="cls-3" points="302.97 710.68 317.43 727.42 316.86 727.98 300.71 712.85 302.97 710.68"/>
      </g>
      <g>
        <polygon class="cls-3" points="234.7 620.31 216.19 588.56 216.87 588.14 237.36 618.64 234.7 620.31"/>
        <polygon class="cls-3" points="235.56 620.97 208.92 611.37 209.16 610.62 236.5 617.98 235.56 620.97"/>
        <polygon class="cls-3" points="234.48 619.25 239.78 591.43 240.57 591.54 237.58 619.7 234.48 619.25"/>
        <polygon class="cls-3" points="236.59 617.41 247.33 636.76 246.66 637.18 233.93 619.08 236.59 617.41"/>
      </g>
      <g>
        <polygon class="cls-3" points="197.92 524.33 185.6 489.71 186.34 489.42 200.84 523.19 197.92 524.33"/>
        <polygon class="cls-3" points="198.64 525.14 174.23 510.79 174.6 510.09 200.12 522.38 198.64 525.14"/>
        <polygon class="cls-3" points="197.9 523.25 208.25 496.89 209 497.15 200.86 524.27 197.9 523.25"/>
        <polygon class="cls-3" points="200.31 521.84 207.29 542.84 206.55 543.13 197.39 522.98 200.31 521.84"/>
      </g>
      <g>
        <polygon class="cls-3" points="230.47 449.9 222.54 414.02 223.31 413.82 233.51 449.13 230.47 449.9"/>
        <polygon class="cls-3" points="231.08 450.79 208.64 433.52 209.1 432.87 232.89 448.23 231.08 450.79"/>
        <polygon class="cls-3" points="230.58 448.82 244.13 423.95 244.84 424.3 233.39 450.21 230.58 448.82"/>
        <polygon class="cls-3" points="233.15 447.72 237.47 469.43 236.7 469.62 230.11 448.5 233.15 447.72"/>
      </g>
      <g>
        <polygon class="cls-3" points="316.8 643.22 292.2 615.91 292.77 615.37 319.06 641.04 316.8 643.22"/>
        <polygon class="cls-3" points="317.77 643.69 289.73 639.73 289.81 638.94 318.08 640.57 317.77 643.69"/>
        <polygon class="cls-3" points="316.36 642.22 315.88 613.91 316.67 613.86 319.49 642.04 316.36 642.22"/>
        <polygon class="cls-3" points="318.06 640 332.52 656.75 331.94 657.3 315.79 642.17 318.06 640"/>
      </g>
      <g>
        <polygon class="cls-3" points="266.85 548.78 251.24 515.51 251.95 515.15 269.64 547.36 266.85 548.78"/>
        <polygon class="cls-3" points="267.64 549.52 241.96 537.59 242.27 536.85 268.85 546.63 267.64 549.52"/>
        <polygon class="cls-3" points="266.72 547.71 274.48 520.47 275.26 520.66 269.77 548.44 266.72 547.71"/>
        <polygon class="cls-3" points="268.99 546.07 277.96 566.3 277.25 566.66 266.19 547.49 268.99 546.07"/>
      </g>
      <g>
        <polygon class="cls-3" points="375.86 726.37 351.26 699.07 351.83 698.52 378.12 724.2 375.86 726.37"/>
        <polygon class="cls-3" points="376.83 726.85 348.79 722.89 348.87 722.1 377.14 723.73 376.83 726.85"/>
        <polygon class="cls-3" points="375.42 725.38 374.94 697.06 375.73 697.02 378.55 725.2 375.42 725.38"/>
        <polygon class="cls-3" points="377.12 723.16 391.58 739.91 391 740.46 374.85 725.33 377.12 723.16"/>
      </g>
      <g>
        <polygon class="cls-3" points="551.24 869.45 527.12 841.72 527.7 841.18 553.53 867.32 551.24 869.45"/>
        <polygon class="cls-3" points="552.2 869.94 524.23 865.49 524.33 864.7 552.57 866.82 552.2 869.94"/>
        <polygon class="cls-3" points="550.82 868.45 550.83 840.13 551.62 840.09 553.95 868.32 550.82 868.45"/>
        <polygon class="cls-3" points="552.55 866.25 566.72 883.25 566.13 883.79 550.25 868.38 552.55 866.25"/>
      </g>
    </g>
    <g id="fox-2" data-name="fox">
      <g>
        <path class="cls-4" d="M497.17,457.13c-1.12-3.93-1.43-7,.7-9s11.12.09,18.43,4.14q12.21,6.87,15.32,17.87a7.1,7.1,0,0,1-1.19,6.28,9.53,9.53,0,0,1-5.19,3.87q-6.43,1.83-14.75-3a27,27,0,0,1-12.25-16.33Z"/>
        <path class="cls-4" d="M573.05,428.19a15,15,0,0,1,6.56-4.61c2-.58,3.7-.16,4.65.89.67.76,1.27,2.48,2.13,5.53q3.6,12.71-.27,23.55-3.18,9.82-10.22,11.81a14.84,14.84,0,0,1-7.5-.21c-3-.71-4.66-1.86-5.11-3.43C560.27,451.07,562.81,441.08,573.05,428.19Z"/>
        <path class="cls-4" d="M543,432.74a21.45,21.45,0,0,1-6.18-17c.52-5.86-1.19-11.38,2.18-14.26a10.53,10.53,0,0,1,6-2.43c2.39-.24,7.93,1.53,9.32,3q7,7.35,5.69,20.1-1.29,11.44-6.59,16l-.47.4q-3.75.68-7.52-3.26Z"/>
        <path class="cls-4" d="M533.52,435.48a14.6,14.6,0,0,1-1.55,5.25q-1.31,2.56-3.12,2.73c-.86.07-2.47-.4-4.85-1.39q-9.91-4.14-14.22-12.44c-2.73-4.86-4.5-10.55-2.51-14.48a21.05,21.05,0,0,1,5.14-6.39c2.2-1.67,5.59-2.28,6.82-1.77C527.53,410.45,531.77,421.73,533.52,435.48Z"/>
        <path class="cls-4" d="M490.11,438.26a2.1,2.1,0,0,1,1.29-1.44,2.32,2.32,0,0,1,2,.48,3.53,3.53,0,0,1,1.4,2,2.79,2.79,0,0,1-.12,1.93,1.89,1.89,0,0,1-1.24,1.17,2.72,2.72,0,0,1-2.1-.37,2.8,2.8,0,0,1-1.43-1.63A3.38,3.38,0,0,1,490.11,438.26Z"/>
        <path class="cls-4" d="M578.8,411.63a2.1,2.1,0,0,1,1.29-1.44,2.32,2.32,0,0,1,2,.48,3.57,3.57,0,0,1,1.4,2,2.79,2.79,0,0,1-.12,1.93,1.9,1.9,0,0,1-1.24,1.18,2.72,2.72,0,0,1-2.1-.37,2.81,2.81,0,0,1-1.43-1.64A3.38,3.38,0,0,1,578.8,411.63Z"/>
        <path class="cls-4" d="M513.19,396.61a2.1,2.1,0,0,1,1.29-1.44,2.32,2.32,0,0,1,2,.48,3.58,3.58,0,0,1,1.41,2,2.85,2.85,0,0,1-.13,1.93,1.9,1.9,0,0,1-1.24,1.18,3.23,3.23,0,0,1-3.52-2A3.37,3.37,0,0,1,513.19,396.61Z"/>
        <path class="cls-4" d="M538,390.08a2.07,2.07,0,0,1,1.28-1.43,2.31,2.31,0,0,1,2,.48,3.5,3.5,0,0,1,1.41,2,2.76,2.76,0,0,1-.12,1.92,1.93,1.93,0,0,1-1.24,1.18,2.71,2.71,0,0,1-2.1-.37,2.8,2.8,0,0,1-1.43-1.63A3.41,3.41,0,0,1,538,390.08Z"/>
        <path class="cls-4" d="M543.5,469.53,541,476.26a8.34,8.34,0,0,1-3.91,4.42L529,484.89c-5.57,2.92-6.42,10-1.55,14.65s13.16,3.95,16.07,1.94c0,0,7.56-6.19,13.71-7.86S574,493,574,493c3.81.41,11.52-4.44,11.38-11.44-.13-6.51-3.51-9.93-11.17-9.35l-8,.13a8.31,8.31,0,0,1-5.65-1.69L555.79,466C552.93,462.92,545.47,464.32,543.5,469.53Z"/>
      </g>
      <g>
        <path class="cls-4" d="M424.77,342.45c-1.53-3.79-3.18-6.43-6.07-6.68s-8.73,6.87-12,14.56q-5.44,12.92-1.16,23.5a7.06,7.06,0,0,0,4.79,4.24,9.53,9.53,0,0,0,6.47-.12q6.19-2.51,9.8-11.44a27,27,0,0,0-.33-20.4Z"/>
        <path class="cls-4" d="M347.06,366.06a15.09,15.09,0,0,0-8,.38c-2,.79-3,2.14-3.13,3.55-.06,1,.52,2.73,1.71,5.68q4.94,12.24,14.64,18.45,8.52,5.81,15.31,3.07a14.91,14.91,0,0,0,5.8-4.76q2.85-3.57,1.94-5.84C371.18,376.32,363.05,370,347.06,366.06Z"/>
        <path class="cls-4" d="M373.63,351.23a21.46,21.46,0,0,0-5.52-17.2c-4-4.31-6-9.72-10.46-9.94a10.56,10.56,0,0,0-6.22,1.76c-2,1.27-5.33,6.06-5.54,8.06q-1,10.11,7.82,19.38,8,8.25,15,8.59l.63,0q3.36-1.77,3.93-7.19Z"/>
        <path class="cls-4" d="M382.77,347.61a14.51,14.51,0,0,0,4.44,3.2q2.61,1.23,4.14.25,1.08-.72,3-4.08,5.31-9.33,3.62-18.54c-.83-5.51-2.9-11.1-6.89-13a21.08,21.08,0,0,0-8-1.91c-2.77,0-5.82,1.63-6.47,2.79C372.17,324.16,375.73,335.67,382.77,347.61Z"/>
        <path class="cls-4" d="M416.13,325.25a2.11,2.11,0,0,0-1.9-.34,2.29,2.29,0,0,0-1.29,1.61,3.56,3.56,0,0,0,.09,2.41,2.84,2.84,0,0,0,1.28,1.45,1.9,1.9,0,0,0,1.7.17,3.24,3.24,0,0,0,1.56-3.74A3.37,3.37,0,0,0,416.13,325.25Z"/>
        <path class="cls-4" d="M332.37,356.5a2.11,2.11,0,0,0-1.9-.35,2.31,2.31,0,0,0-1.29,1.61,3.53,3.53,0,0,0,.1,2.42,2.78,2.78,0,0,0,1.27,1.45,1.92,1.92,0,0,0,1.71.17,3.26,3.26,0,0,0,1.55-3.75A3.34,3.34,0,0,0,332.37,356.5Z"/>
        <path class="cls-4" d="M373.78,305.27a2.11,2.11,0,0,0-1.9-.35,2.31,2.31,0,0,0-1.29,1.61,3.59,3.59,0,0,0,.09,2.42A2.84,2.84,0,0,0,372,310.4a1.89,1.89,0,0,0,1.7.17,2.72,2.72,0,0,0,1.43-1.58,2.77,2.77,0,0,0,.13-2.17A3.45,3.45,0,0,0,373.78,305.27Z"/>
        <path class="cls-4" d="M354,313.52a2.09,2.09,0,0,0-1.89-.34,2.3,2.3,0,0,0-1.3,1.61,3.5,3.5,0,0,0,.1,2.41,2.75,2.75,0,0,0,1.28,1.45,1.89,1.89,0,0,0,1.7.17,2.73,2.73,0,0,0,1.43-1.57,2.77,2.77,0,0,0,.12-2.17A3.31,3.31,0,0,0,354,313.52Z"/>
        <path class="cls-4" d="M397.44,380.88l6.11,3.78a8.3,8.3,0,0,0,5.8,1.09l8.93-1.59c6.19-1.11,11.18,3.94,10.21,10.62s-8,11.19-11.51,11.38c0,0-9.78-.26-15.65,2.19s-13.6,9.8-13.6,9.8c-2.76,2.66-11.83,3.55-16-2.07-3.88-5.22-3.31-10,3.1-14.23l6.37-4.77a8.35,8.35,0,0,0,3.43-4.81l.94-6.64C385.94,381.44,392.69,378,397.44,380.88Z"/>
      </g>
      <g>
        <path class="cls-4" d="M509.28,590.58c-1.62-3.75-3.33-6.35-6.23-6.54s-8.57,7.08-11.69,14.84q-5.13,13-.62,23.52a7.1,7.1,0,0,0,4.89,4.12,9.49,9.49,0,0,0,6.47-.27q6.13-2.64,9.54-11.65a27.1,27.1,0,0,0-.8-20.4Z"/>
        <path class="cls-4" d="M432.14,616a15.07,15.07,0,0,0-8,.56c-1.95.84-3,2.21-3.05,3.63,0,1,.58,2.72,1.84,5.63q5.2,12.13,15.06,18.11,8.65,5.61,15.38,2.72a15,15,0,0,0,5.69-4.9q2.76-3.63,1.8-5.88C456.48,625.68,448.21,619.53,432.14,616Z"/>
        <path class="cls-4" d="M458.35,600.54a21.47,21.47,0,0,0-5.91-17.07c-4.09-4.22-6.26-9.58-10.69-9.69a10.65,10.65,0,0,0-6.18,1.9c-2,1.32-5.18,6.18-5.35,8.19q-.83,10.13,8.27,19.18,8.22,8.07,15.18,8.25h.63q3.31-1.84,3.77-7.27Z"/>
        <path class="cls-4" d="M467.41,596.71a14.48,14.48,0,0,0,4.52,3.1q2.63,1.16,4.14.15c.71-.49,1.66-1.88,2.88-4.15q5.08-9.45,3.19-18.62c-.95-5.49-3.16-11-7.19-12.81a20.9,20.9,0,0,0-8-1.73c-2.77.1-5.78,1.77-6.41,2.94C456.27,573.51,460.09,584.93,467.41,596.71Z"/>
        <path class="cls-4" d="M500.24,573.59a2.08,2.08,0,0,0-1.9-.3,2.32,2.32,0,0,0-1.26,1.63,3.59,3.59,0,0,0,.15,2.42,2.81,2.81,0,0,0,1.32,1.42,1.88,1.88,0,0,0,1.7.13,3.24,3.24,0,0,0,1.47-3.78A3.36,3.36,0,0,0,500.24,573.59Z"/>
        <path class="cls-4" d="M417.23,606.76a2.1,2.1,0,0,0-1.91-.3,2.3,2.3,0,0,0-1.25,1.64,3.45,3.45,0,0,0,.15,2.41,2.79,2.79,0,0,0,1.31,1.42,1.9,1.9,0,0,0,1.71.13,2.73,2.73,0,0,0,1.39-1.61,2.79,2.79,0,0,0,.08-2.17A3.41,3.41,0,0,0,417.23,606.76Z"/>
        <path class="cls-4" d="M457.44,554.59a2.12,2.12,0,0,0-1.9-.31,2.33,2.33,0,0,0-1.26,1.64,3.59,3.59,0,0,0,.15,2.42,2.83,2.83,0,0,0,1.31,1.42,1.9,1.9,0,0,0,1.71.13,2.73,2.73,0,0,0,1.39-1.61,2.79,2.79,0,0,0,.08-2.17A3.36,3.36,0,0,0,457.44,554.59Z"/>
        <path class="cls-4" d="M437.9,563.3A2.06,2.06,0,0,0,436,563a2.31,2.31,0,0,0-1.26,1.64,3.59,3.59,0,0,0,.15,2.42,2.83,2.83,0,0,0,1.31,1.42,1.93,1.93,0,0,0,1.71.13A2.73,2.73,0,0,0,439.3,567a2.79,2.79,0,0,0,.08-2.17A3.31,3.31,0,0,0,437.9,563.3Z"/>
        <path class="cls-4" d="M482.85,629.63l6.19,3.64a8.27,8.27,0,0,0,5.82,1l8.9-1.8c6.16-1.25,11.26,3.68,10.45,10.39s-7.73,11.36-11.25,11.64c0,0-9.78,0-15.6,2.55S474,667.12,474,667.12c-2.69,2.72-11.74,3.82-16-1.7-4-5.14-3.54-9.92,2.77-14.3L467,646.2a8.26,8.26,0,0,0,3.32-4.88l.78-6.67C471.36,630.45,478,626.83,482.85,629.63Z"/>
      </g>
      <g>
        <path class="cls-4" d="M480.19,186.4c-.49-4.05-1.4-7-4.14-8s-10.21,4.39-15.38,11q-8.58,11.07-7.19,22.41a7.1,7.1,0,0,0,3.54,5.32,9.46,9.46,0,0,0,6.28,1.56q6.65-.81,12.42-8.51a27,27,0,0,0,4.95-19.8Z"/>
        <path class="cls-4" d="M399,189.15a15.1,15.1,0,0,0-7.84-1.7c-2.11.26-3.47,1.29-3.94,2.63-.32.95-.21,2.77.18,5.92q1.6,13.09,9.38,21.6c4.5,5.21,9.15,7.52,14,6.92a15,15,0,0,0,6.83-3.1q3.68-2.71,3.37-5.14C419.68,205.29,413.46,197.07,399,189.15Z"/>
        <path class="cls-4" d="M428.52,181.68a21.44,21.44,0,0,0-.89-18c-2.75-5.19-3.32-10.95-7.54-12.3a10.65,10.65,0,0,0-6.46.09c-2.3.7-6.72,4.48-7.44,6.36q-3.63,9.5,2.56,20.74,5.63,10,12.26,12.16l.6.2c2.47-.57,4.36-2.54,5.65-5.93Z"/>
        <path class="cls-4" d="M438.29,180.55a14.51,14.51,0,0,0,3.46,4.23q2.21,1.86,3.94,1.31,1.21-.41,3.93-3.17,7.53-7.65,8.28-17c.63-5.54.06-11.47-3.31-14.32a21,21,0,0,0-7.21-3.9c-2.68-.68-6,.08-7,1C434.1,155.15,434.57,167.19,438.29,180.55Z"/>
        <path class="cls-4" d="M476.29,167.56a2.11,2.11,0,0,0-1.75-.83,2.33,2.33,0,0,0-1.66,1.22,3.49,3.49,0,0,0-.53,2.36,2.81,2.81,0,0,0,.86,1.74,1.91,1.91,0,0,0,1.6.6,2.74,2.74,0,0,0,1.79-1.16,2.81,2.81,0,0,0,.68-2.06A3.41,3.41,0,0,0,476.29,167.56Z"/>
        <path class="cls-4" d="M387.3,176.12a2.07,2.07,0,0,0-1.74-.82,2.32,2.32,0,0,0-1.67,1.22,3.58,3.58,0,0,0-.53,2.36,2.79,2.79,0,0,0,.86,1.73,1.91,1.91,0,0,0,1.6.6,3.22,3.22,0,0,0,2.47-3.21A3.3,3.3,0,0,0,387.3,176.12Z"/>
        <path class="cls-4" d="M440.53,137.32a2.09,2.09,0,0,0-1.74-.83,2.33,2.33,0,0,0-1.67,1.22,3.57,3.57,0,0,0-.53,2.37,2.81,2.81,0,0,0,.86,1.73,1.91,1.91,0,0,0,1.6.6,3.24,3.24,0,0,0,2.47-3.22A3.34,3.34,0,0,0,440.53,137.32Z"/>
        <path class="cls-4" d="M419.33,140.2a2.08,2.08,0,0,0-1.74-.83,2.34,2.34,0,0,0-1.67,1.22,3.61,3.61,0,0,0-.53,2.36,2.81,2.81,0,0,0,.86,1.74,1.92,1.92,0,0,0,1.6.6,3.24,3.24,0,0,0,2.47-3.22A3.28,3.28,0,0,0,419.33,140.2Z"/>
        <path class="cls-4" d="M443.87,216.47l4.92,5.23a8.31,8.31,0,0,0,5.33,2.56l9,.76c6.27.53,9.78,6.7,7.12,12.9s-10.6,8.75-14.06,8c0,0-9.38-2.77-15.69-1.92S424.87,250,424.87,250c-3.35,1.87-12.35.38-14.93-6.13-2.4-6-.62-10.51,6.67-12.94l7.39-3a8.32,8.32,0,0,0,4.55-3.76l2.63-6.17C432.62,214,440,212.44,443.87,216.47Z"/>
      </g>
      <g>
        <path class="cls-4" d="M352.12,61.06c-1-4-2.24-6.8-5.07-7.46s-9.61,5.59-13.95,12.74q-7.19,12-4.43,23.11a7.08,7.08,0,0,0,4.15,4.86,9.54,9.54,0,0,0,6.43.79q6.48-1.62,11.3-10a27,27,0,0,0,2.52-20.25Z"/>
        <path class="cls-4" d="M271.88,73.58a15.08,15.08,0,0,0-8-.74c-2.06.51-3.29,1.7-3.6,3.08-.2,1,.13,2.78.9,5.86q3.18,12.81,11.92,20.32,7.63,6.93,14.73,5.17a14.82,14.82,0,0,0,6.41-3.9c2.21-2.09,3.13-3.93,2.73-5.51C294.33,87.12,287.17,79.7,271.88,73.58Z"/>
        <path class="cls-4" d="M300.26,62.61a21.44,21.44,0,0,0-3.06-17.8c-3.35-4.83-4.62-10.47-9-11.3a10.57,10.57,0,0,0-6.41.87c-2.19,1-6.12,5.25-6.61,7.21q-2.44,9.85,5,20.27,6.79,9.3,13.64,10.6l.62.12c2.38-.85,4-3,4.9-6.56Z"/>
        <path class="cls-4" d="M309.82,60.31a14.55,14.55,0,0,0,3.95,3.78c1.6,1.06,3,1.33,4.06.83.78-.37,1.95-1.58,3.53-3.63q6.54-8.49,6.17-17.85c0-5.57-1.33-11.39-5-13.81a21.24,21.24,0,0,0-7.63-3c-2.74-.35-6,.81-6.8,1.86C302.6,35.6,304.51,47.49,309.82,60.31Z"/>
        <path class="cls-4" d="M346,42.83a2.07,2.07,0,0,0-1.83-.61,2.32,2.32,0,0,0-1.5,1.41,3.54,3.54,0,0,0-.25,2.41,2.79,2.79,0,0,0,1.07,1.61,1.91,1.91,0,0,0,1.66.41,2.75,2.75,0,0,0,1.64-1.36,2.8,2.8,0,0,0,.43-2.13A3.37,3.37,0,0,0,346,42.83Z"/>
        <path class="cls-4" d="M258.67,62.07a2.07,2.07,0,0,0-1.83-.61,2.28,2.28,0,0,0-1.5,1.41,3.53,3.53,0,0,0-.25,2.41,2.82,2.82,0,0,0,1.07,1.61,1.9,1.9,0,0,0,1.66.41,2.69,2.69,0,0,0,1.63-1.37,2.74,2.74,0,0,0,.43-2.12A3.29,3.29,0,0,0,258.67,62.07Z"/>
        <path class="cls-4" d="M306.83,17.12a2.1,2.1,0,0,0-1.83-.61,2.3,2.3,0,0,0-1.5,1.42,3.53,3.53,0,0,0-.25,2.41A2.86,2.86,0,0,0,304.31,22a2,2,0,0,0,1.67.41A2.75,2.75,0,0,0,307.61,21a2.76,2.76,0,0,0,.43-2.13A3.37,3.37,0,0,0,306.83,17.12Z"/>
        <path class="cls-4" d="M286.13,22.54a2.07,2.07,0,0,0-1.83-.61,2.32,2.32,0,0,0-1.5,1.41,3.54,3.54,0,0,0-.25,2.41,2.82,2.82,0,0,0,1.07,1.62,1.9,1.9,0,0,0,1.66.4,2.75,2.75,0,0,0,1.64-1.36,2.8,2.8,0,0,0,.43-2.13A3.41,3.41,0,0,0,286.13,22.54Z"/>
        <path class="cls-4" d="M319.7,95.3l5.51,4.6a8.35,8.35,0,0,0,5.59,1.89l9.08-.34c6.28-.23,10.51,5.47,8.62,12s-9.47,10-13,9.66c0,0-9.64-1.62-15.8,0s-14.84,7.79-14.84,7.79c-3.1,2.26-12.21,1.87-15.55-4.28-3.12-5.71-1.89-10.36,5.05-13.66l7-3.83a8.33,8.33,0,0,0,4.07-4.28l1.86-6.45C308.23,94.24,315.4,91.75,319.7,95.3Z"/>
      </g>
    </g>
    <g id="antelope-2" data-name="antelope">
      <path class="cls-5" d="M607.91,687.28q3.08-13.1,6.61-25.83,4.22-10.8,9.42-11.52c1.07-.15,2.31.9,3.7,3.15q6.5,11.35,6.54,11.76,13.08,20.63,25.9,18.84,22.42-3.13,19.19-26.36-1.28-9.23-10-39.64c-5.82-20.28-13.1-36.41-19.46-50.83-4.17-9.47-19.46-38.62-32.81-42-4-1-18.23-1.37-24,7.07-12.38,18-15.67,36.46-22,66.72-6.4,30.58-7,54.58-3.66,78.35q3.9,28,23.14,25.35Q603.25,700.58,607.91,687.28Z"/>
      <path class="cls-5" d="M590.6,201.92q3.43-13,7.32-25.63,4.51-10.68,9.74-11.26c1.07-.12,2.28,1,3.61,3.26q6.18,11.53,6.21,11.93,12.49,21,25.36,19.56,22.51-2.5,19.92-25.82-1-9.24-8.9-39.9c-5.26-20.43-12.09-36.76-18-51.35-3.9-9.58-18.38-39.15-31.63-42.87C600.26,38.73,586,38,580,46.23c-12.89,17.66-16.69,36-23.86,66.09-7.25,30.39-8.49,54.36-5.84,78.21q3.12,28.13,22.42,26Q585.56,215.09,590.6,201.92Z"/>
      <path class="cls-5" d="M710.48,973.38q-3.29-13-7-25.72-4.4-10.73-9.6-11.37-1.62-.19-3.66,3.21c-4.2,7.64-6.31,11.58-6.35,11.86q-12.75,20.82-25.6,19.24-22.47-2.77-19.6-26.06,1.14-9.22,9.39-39.78c5.5-20.37,12.53-36.62,18.66-51.13,4-9.53,18.85-38.93,32.15-42.49,3.94-1,18.2-1.66,24.14,6.69,12.67,17.81,16.25,36.21,23,66.37,6.88,30.48,7.83,54.47,4.89,78.28q-3.47,28.1-22.73,25.72Q715.36,986.61,710.48,973.38Z"/>
      <path class="cls-5" d="M722.77,437.44q-3.88-12.87-8.22-25.36-4.89-10.51-10.13-10.91c-1.07-.08-2.24,1.05-3.49,3.38q-5.76,11.74-5.79,12.14-11.76,21.42-24.66,20.43-22.59-1.69-20.82-25.1.71-9.27,7.51-40.18c4.53-20.61,10.79-37.17,16.22-52,3.57-9.71,17-39.77,30.11-43.95,3.89-1.24,18.1-2.52,24.43,5.54,13.5,17.19,17.94,35.4,26.16,65.21,8.31,30.11,10.4,54,8.58,78q-2.13,28.22-21.49,26.76Q728.27,450.43,722.77,437.44Z"/>
    </g>
    <g id="cat">
      <g>
        <path class="cls-6" d="M1068.91,113.61c2-2.88,3.87-5.93,6.15-8.6,5.19-6.07,11.74-6,16.81,0,7.82,9.2,9,29.38,2.32,39.68-3.73,5.76-8.69,9.25-15.79,7.85s-9.51-7-10.81-13.09c-.89-4.22-1-8.61-1.5-12.93Z"/>
        <path class="cls-6" d="M1124.24,186.36c-7.1,10-13.36,9.56-22.17,8.1-4.69-.78-10.27-7.93-11.67-13.74-1.51-6.26,4.92-12.39,9-15.76,8.91-7.33,16.28-7.29,25.28-14.48,5.82-4.66,10.38-4,13.8,3,5.06,10.37,12.17,13.37,17.14,23.81,2.24,4.7,5.72,13.19,1.58,18.16-4,4.76-12.4,9.09-17.26,7.27C1132.05,199.73,1125.48,198.46,1124.24,186.36Z"/>
        <path class="cls-6" d="M1181,102.1c-2.15,7.91-4.9,14.75-10,20.35-7.65,8.38-18,6.15-21.82-4.6-4.31-12.22,2.48-36,12.52-43.85,5.7-4.45,13-2.5,17.12,4.79C1183.13,86.44,1182.23,94.61,1181,102.1Z"/>
        <path class="cls-6" d="M1138.33,95.62c-1.57,6.47-3.68,12.76-8.27,17.76-7.78,8.47-18.66,6.38-21.86-4.59-4.07-14-1.76-27.37,7-39.17,3.78-5.14,9.25-8.1,15.9-6.18,6,1.74,7.07,7.35,7.84,12.49A52,52,0,0,1,1138.33,95.62Z"/>
        <path class="cls-6" d="M1202.39,150.33c-2.27,7.07-4.51,14.44-10.19,20.08-7.55,7.48-17.84,5.63-22.14-4-5.87-13.12,5.67-37.57,19.6-41.48,6.66-1.88,10.59,1.4,12.67,7.25S1203.55,144.1,1202.39,150.33Z"/>
        <path class="cls-6" d="M1130.37,46.51c-2.4-.7-3.5-2.27-3-4.78s2-4,4.43-3.49A3.82,3.82,0,0,1,1135,43C1134.58,45.58,1132.74,46.35,1130.37,46.51Z"/>
        <path class="cls-6" d="M1079.18,85.34c-2.39-.7-3.49-2.27-3-4.78s1.95-4,4.44-3.5a3.83,3.83,0,0,1,3.24,4.72C1083.39,84.41,1081.55,85.18,1079.18,85.34Z"/>
        <path class="cls-6" d="M1202.9,112.36c-2.39-.7-3.49-2.26-3.05-4.77s2-4,4.43-3.5a3.82,3.82,0,0,1,3.25,4.72C1207.11,111.43,1205.27,112.21,1202.9,112.36Z"/>
        <path class="cls-6" d="M1172.9,47.13a3.94,3.94,0,0,1,2.55,5.24c-.58,2.11-2.08,3.43-4.21,2.93-2.3-.54-3.76-2.12-3.22-4.83S1170.51,47.16,1172.9,47.13Z"/>
      </g>
      <g>
        <path class="cls-6" d="M1109.85,546.87c-1.29-3.42-2.33-7-3.92-10.24-3.62-7.46-10.22-9.08-16.88-4.41-10.26,7.19-16.72,27.14-12.73,39.24,2.23,6.75,6.3,11.56,13.8,12s11.38-4.51,14.28-10.31c2-4,3.29-8.37,4.9-12.58Z"/>
        <path class="cls-6" d="M1035.22,605.41c4.52,11.91,10.91,13.1,20.14,14,4.91.45,12.39-5.27,15.32-10.74,3.16-5.89-1.69-13.73-4.93-18.19-7-9.69-14.44-11.59-21.58-21.17-4.63-6.2-9.38-6.75-14.64-.63-7.81,9.08-15.73,10.24-23.45,19.41-3.48,4.13-9.2,11.75-6.35,17.82,2.72,5.81,10.07,12.37,15.43,11.82C1023.88,616.79,1030.81,617.24,1035.22,605.41Z"/>
        <path class="cls-6" d="M1000.34,505.94c.08,8.5,1,16.09,4.71,23.05,5.48,10.42,16.48,10.9,23.11,1.1,7.53-11.14,6.94-36.81-1.08-47.31-4.55-6-12.4-5.92-18.44.32C1002.3,489.65,1001.05,498.09,1000.34,505.94Z"/>
        <path class="cls-6" d="M1044.86,510.61c-.12,6.91.36,13.78,3.65,20,5.6,10.55,17.07,11.29,23.15,1.12,7.77-13,8.94-27,3.3-41.15-2.46-6.15-7.17-10.55-14.35-10.37-6.52.17-9,5.53-11.14,10.48A54.1,54.1,0,0,0,1044.86,510.61Z"/>
        <path class="cls-6" d="M966.2,548.75c.44,7.69.75,15.68,5,22.83,5.61,9.49,16.43,10.33,23.26,1.81,9.34-11.64,4.16-39.2-8.8-46.79-6.2-3.63-11-1.36-14.62,4S966.68,542.19,966.2,548.75Z"/>
        <path class="cls-6" d="M1065.73,463.39c2.59-.07,4.11-1.36,4.32-4s-.91-4.53-3.54-4.68a4,4,0,0,0-4.49,3.89C1061.75,461.35,1063.4,462.62,1065.73,463.39Z"/>
        <path class="cls-6" d="M1107,515.79c2.59-.07,4.1-1.36,4.31-4s-.9-4.53-3.53-4.68a4,4,0,0,0-4.5,3.89C1103,513.75,1104.61,515,1107,515.79Z"/>
        <path class="cls-6" d="M975.65,510.49c2.59-.07,4.1-1.35,4.31-4s-.9-4.53-3.53-4.68a4,4,0,0,0-4.5,3.89C971.66,508.46,973.31,509.72,975.65,510.49Z"/>
        <path class="cls-6" d="M1022.87,452.87c-2.68.35-4,1.92-3.94,4.58,0,2.28,1.19,4,3.47,4.06,2.45.06,4.33-1.15,4.5-4S1025.26,453.52,1022.87,452.87Z"/>
      </g>
      <g>
        <path class="cls-6" d="M1274.24,397.86c-.18-3.65-.09-7.35-.61-10.95-1.17-8.2-7-11.77-14.72-9.36-12,3.72-24.21,20.75-24.11,33.48.06,7.12,2.47,12.93,9.47,15.66s12.21-.83,16.75-5.46c3.13-3.2,5.69-7,8.51-10.49Z"/>
        <path class="cls-6" d="M1185.3,430.81c.66,12.72,6.39,15.8,14.92,19.43,4.54,1.93,13.4-1.24,17.86-5.54,4.81-4.65,2.58-13.59.86-18.83-3.74-11.38-10.21-15.45-14.09-26.75-2.51-7.32-6.86-9.29-13.74-5.07-10.21,6.26-18.1,4.94-28.26,11.32-4.58,2.87-12.35,8.37-11.49,15,.82,6.36,5.81,14.86,11.08,16C1171,438.18,1177.49,440.72,1185.3,430.81Z"/>
        <path class="cls-6" d="M1182.46,325.43c-2.52,8.13-3.92,15.65-2.56,23.4,2,11.59,12.37,15.41,21.68,8.1,10.57-8.3,17.85-32.93,13.42-45.38-2.52-7.06-10-9.42-17.66-5.32C1189.3,310.53,1185.53,318.18,1182.46,325.43Z"/>
        <path class="cls-6" d="M1223.43,343.49c-2.22,6.54-3.87,13.22-2.63,20.15,2.1,11.75,12.8,16,21.7,8.14,11.36-10,16.76-23,15.71-38.18-.46-6.6-3.61-12.24-10.5-14.26-6.26-1.83-10.28,2.51-13.81,6.58A54.09,54.09,0,0,0,1223.43,343.49Z"/>
        <path class="cls-6" d="M1136.88,355.78c-1.94,7.46-4.08,15.16-2.24,23.25,2.45,10.76,12.49,14.86,21.61,8.83,12.44-8.22,15.93-36.06,5.91-47.24-4.8-5.35-10.06-4.65-15.14-.69S1139.34,349.67,1136.88,355.78Z"/>
        <path class="cls-6" d="M1257.72,304.9c2.49.72,4.33,0,5.33-2.49s.52-4.59-1.94-5.53a4,4,0,0,0-5.46,2.32C1254.55,301.74,1255.74,303.44,1257.72,304.9Z"/>
        <path class="cls-6" d="M1281,367.38c2.49.72,4.33,0,5.33-2.49s.53-4.59-1.93-5.53a4,4,0,0,0-5.47,2.33C1277.79,364.22,1279,365.93,1281,367.38Z"/>
        <path class="cls-6" d="M1157.56,322.23c2.49.73,4.32,0,5.33-2.48s.52-4.59-1.94-5.53a4,4,0,0,0-5.47,2.32C1154.39,319.08,1155.57,320.78,1157.56,322.23Z"/>
        <path class="cls-6" d="M1220.12,281.78c-2.66-.48-4.37.62-5.15,3.17-.66,2.18-.08,4.16,2.06,4.91,2.32.81,4.48.24,5.51-2.44S1222.2,283.14,1220.12,281.78Z"/>
      </g>
    </g>
    <g id="racoon">
      <g>
        <path class="cls-7" d="M1202.25,525s22.13,39.23,38.06,35.12l13.82,53.6s-12.86,5.33-33.63-14.39c-18.71-17.77-22-37.54-22-37.54l24.27,18.53s1.61-9.39-8.43-22.48C1198.18,536.81,1202.25,525,1202.25,525Z"/>
        <path class="cls-7" d="M1255.77,507.18s-.37,49.09-16.29,53.19l13.83,53.6s24.23-3.19,24.88-23.84c.51-16.09-3.42-24.84,1-40.82a35.62,35.62,0,0,0-1.24-21.84l-10.25,29.8s-6.57-2-5.62-14.17C1264.38,518.11,1255.77,507.18,1255.77,507.18Z"/>
        <polygon class="cls-7" points="1232.13 563.05 1248.71 558.16 1224.19 505.6 1232.13 563.05"/>
      </g>
      <g>
        <path class="cls-7" d="M1317.24,673.58l-6.77,29.5s-2.36-3.65-3.46-20.11c-1.5-22.42-9-26.94-9-26.94s5.06,43.14-10.51,47.18c-16,1.45-25.85-40.16-25.85-40.16s-5.28,13.93,3.32,37.77c6.24,17.33,4.42,25.44,4.42,25.44l-19.93-25.33s-.05,7.07,4.22,16.18c4.4,9.38,10.2,21.49,15.64,33.39,8.09,17.69,8.37,32.19,16.47,48,6.88,13.38,16.08,18.3,21.29,17.39s12.21-8.64,14.17-23.55c2.3-17.58,2.17-31.47-.68-50.7-3.61-24.31,1.23-32.92,1.14-43.28C1321.52,681.74,1317.24,673.58,1317.24,673.58Z"/>
        <polygon class="cls-7" points="1280.93 710.25 1297.95 707.3 1279.64 652.27 1280.93 710.25"/>
      </g>
      <g>
        <path class="cls-7" d="M1140.53,661.09s.76,45-15,49.55l15.18,53.23s13.8-1.91,21.74-29.42c7.14-24.8,0-43.51,0-43.51l-11.56,28.26s-6.13-7.28-4.09-23.65C1150,669.19,1140.53,661.09,1140.53,661.09Z"/>
        <path class="cls-7" d="M1085.34,672.76s25.15,42.16,41,37.65l15.19,53.23s-22.52,9.5-33.53-8c-8.58-13.63-9.62-23.16-21.47-34.73a35.65,35.65,0,0,1-10-19.48L1100.43,722s4.66-5-2.32-15.06C1083.44,686.55,1085.34,672.76,1085.34,672.76Z"/>
        <polygon class="cls-7" points="1133.99 709 1117.22 713.16 1111.77 655.42 1133.99 709"/>
      </g>
      <g>
        <path class="cls-7" d="M1130.84,854l20.42,22.33s.26-4.34-6.89-19.21c-9.74-20.24-5.4-27.89-5.4-27.89s16.85,40,32.4,35.87c14.66-6.63,2.7-47.68,2.7-47.68s11.46,9.52,15.73,34.5c3.1,18.16,8.68,24.32,8.68,24.32l4.86-31.86s3.53,6.12,4.3,16.16c.8,10.32,1.72,23.72,2.85,36.76,1.67,19.38,8.57,32.13,9.29,49.85.6,15-5,23.84-10,25.62s-14.88-1.5-23.93-13.52c-10.67-14.16-17.4-26.31-24.39-44.45-8.84-22.92-17.29-28-22.32-37.1C1131.14,863.23,1130.84,854,1130.84,854Z"/>
        <polygon class="cls-7" points="1180.51 868.05 1164.24 873.87 1153.06 816.96 1180.51 868.05"/>
      </g>
    </g>
  </g>
</svg>
