<svg xmlns="http://www.w3.org/2000/svg" width="240" height="300" viewBox="0 0 240 300">
  <defs>
    <style>
      .cls-1 {
          fill: #1e3a29;
        }
    </style>
  </defs>
  <title>animation</title>
  <g id="SVGs">
    <g id="antelope">
      <g>
        <path class="cls-1" d="M84.88,207.94c-17,12.38-41.52,5.4-48.47-12.09a65.1,65.1,0,0,1-4.84-24.62C32.5,121.94,46,77,80.11,39.88c3.63-3.94,6.82-10.05,13.62-7.6,5.2,1.87,6.56,7.38,7,12.19,4,45.61,5.88,91.26-1.79,136.69C97,192.4,91.43,202.32,84.88,207.94Z"/>
        <path class="cls-1" d="M157.1,47c20.72,30.16,36.87,61.16,44.14,96.07,6.8,32.6-2.94,54.53-25.1,58.4-23.16,4-42.95-14.25-47-45.62-4.83-36.95-5.35-74.22-5.11-111.46,0-6.72-1.91-15.75,5.72-18.87s12.29,5,17.24,9.59C151,38.88,154.26,43.61,157.1,47Z"/>
        <path class="cls-1" d="M68.61,251.79c3.47,7.81,8.15,16.33-1.23,20.61-9.8,4.47-21.62,3.23-28.15-6.38-4.77-7-4.18-17.15,4.44-22C54.24,238,61.67,246,68.61,251.79Z"/>
        <path class="cls-1" d="M185.63,236.07c4.89,9.18,6,18.65-3.66,25.93-8.58,6.44-18.47,5.2-24.49-2.78-7.82-10.37.86-18.6,7.71-25.47S179.16,228.79,185.63,236.07Z"/>
      </g>
    </g>
  </g>
</svg>
