<svg xmlns="http://www.w3.org/2000/svg" width="400" height="400" viewBox="0 0 400 400">
  <defs>
    <style>
      .cls-1 {
        fill: #2E243F;
      }
    </style>
  </defs>
  <title>animation</title>
  <g id="SVGs">
    <path id="deer" class="cls-1" d="M163.62,360.05q9.47-26.18,19.79-51.53,11.26-21.18,22.14-21.43,3.34-.07,6.86,7.38Q223,319.37,223,320.21q21.94,45.56,48.73,45,46.89-1.05,45.8-49.6-.42-19.26-11.08-83.91c-7.11-43.11-18.22-78-27.82-109.21-6.3-20.47-30.75-84.09-57.4-94.19-7.91-3-37.16-7.2-51.13,8.76-29.8,34.07-41,71.22-61.27,131.93C88.36,230.31,81.42,279.53,82.53,329.2q1.31,58.57,41.49,57.69Q150.82,386.29,163.62,360.05Z"/>
  </g>
</svg>
