<svg xmlns="http://www.w3.org/2000/svg" width="300" height="300" viewBox="0 0 300 300">
  <defs>
    <style>
      .cls-1 {
        fill: #f5efeb;
      }
    </style>
  </defs>
  <title>animation</title>
  <g id="SVGs">
    <g id="dog">
      <path class="cls-1" d="M37.22,161.72c2.27-5,4.17-10.29,6.87-15.09,6.16-10.89,16.27-12.73,25.87-5.07,14.8,11.81,22.67,42.5,15.53,60.36-4,10-10.57,16.85-21.93,16.83-11.15,0-16.73-7.86-20.57-16.87-2.65-6.24-4.18-12.94-6.22-19.44Z"/>
      <path class="cls-1" d="M145.29,257c-7.92,17.54-13.12,22.39-31.67,19.15-7.34-1.29-18.19-9.11-22.1-17.62-4.21-9.18,1.84-32.54,7.14-39,11.51-14,20.85-14.13,32.52-27.9,7.56-8.92,18.77-9.31,26.13.41,10.92,14.42,22.27,12.17,33.06,26.72,4.86,6.56,13.27,33.31,8.4,42.21-4.65,8.5-6.41,13.07-22.7,16.09C149.58,282,150.84,275.21,145.29,257Z"/>
      <path class="cls-1" d="M206.18,110.22c-.91,12.82-3.08,24.17-9.25,34.32-9.24,15.21-25.88,14.9-35-.5-10.32-17.49-7-56.16,6-71.24C175.45,64.25,187.27,65,195.8,75,204.75,85.48,205.84,98.32,206.18,110.22Z"/>
      <path class="cls-1" d="M138.61,113.11c-.47,10.43-1.82,20.74-7.37,29.81-9.42,15.38-26.79,15.44-35-.47-10.49-20.3-11-41.57-1.12-62.35,4.27-9,11.79-15.25,22.6-14.3,9.82.86,13.09,9.18,15.83,16.85A81.84,81.84,0,0,1,138.61,113.11Z"/>
      <path class="cls-1" d="M253.66,178c-1.38,11.56-2.59,23.57-9.63,33.95-9.35,13.8-25.74,14.05-35.26.56-13-18.41-2.6-59.5,17.64-69.73,9.69-4.89,16.71-1,21.69,7.34S253.55,168,253.66,178Z"/>
      <path class="cls-1" d="M111.55,45c-3.9-.36-6.06-2.43-6.14-6.43s1.79-11.75,5.77-11.72c3.63,0,6.27,7.15,6.42,11.28S115.14,44,111.55,45Z"/>
      <path class="cls-1" d="M46.72,121.91c-3.89-.35-6.06-7.43-6.13-11.42s1.79-9.75,5.77-9.72c3.63,0,6.27,5.15,6.41,9.28S50.32,121,46.72,121.91Z"/>
      <path class="cls-1" d="M243,119.4c-3.9-.36-6.06-3.43-6.13-7.43s1.78-7.75,5.76-7.72c3.64,0,6.27,3.15,6.42,7.28S246.59,118.44,243,119.4Z"/>
      <path class="cls-1" d="M177.16,31.2c4,.77,6.82,7.27,6.51,11.28-.26,3.43-2.17,5.91-5.6,5.79-3.7-.14-6.42-2.14-6.41-6.47S173.5,32,177.16,31.2Z"/>
    </g>
  </g>
</svg>
