<svg xmlns="http://www.w3.org/2000/svg" width="300" height="300" viewBox="0 0 300 300">
  <defs>
    <style>
      .cls-1 {
        fill: #d3473d;
      }
    </style>
  </defs>
  <title>animation</title>
  <g id="SVGs">
    <g id="fox">
      <path class="cls-1" d="M259.13,154.92q-.37,27.51-18.71,46.73-16.72,16.89-33.2,16.66c-5.24-.08-10.2-2.05-14.84-5.91s-6.94-8.61-6.86-14.2q.39-28.18,25.06-52.34,22.26-21.51,39.54-21.27l1.56,0q7.79,5.47,7.59,20.58Z"/>
      <path class="cls-1" d="M114.47,201q-.07,6-10,11.43C97.91,216,92,217.77,86.77,217.7q-18.09-.25-31.9-21.59-16.15-23.38-15.71-55.94c.11-7.82.69-12.85,1.8-15.08q2.4-4.65,10.26-4.55a37.68,37.68,0,0,1,14.88,3.23Q115,160,114.47,201Z"/>
      <path class="cls-1" d="M140.19,126.52q-6.45,11.78-15.8,12.59l-1.4-.67Q107.48,131,97.1,104.61q-11.37-29.55.69-51.52C100.18,48.73,112.24,41,118.08,40A26.13,26.13,0,0,1,133.9,42c9.86,4.71,9.34,19,14.32,32.57q7.88,22.92-3.87,44.39Z"/>
      <path class="cls-1" d="M184.44,42.42c2.59-2,11.05-2.72,17.37-.16S215,50.7,218.13,54.2c7.27,8.09,6.67,22.77,3.29,36.09q-5,22.56-25.91,38.72c-5,3.89-8.59,6-10.68,6.44q-4.43.75-9.17-4.51a36.12,36.12,0,0,1-7.06-11.51C164,85.54,166.87,56,184.44,42.42Z"/>
      <path class="cls-1" d="M267.74,116.86a5.92,5.92,0,0,1-2.15,4.2,6.28,6.28,0,0,1-4.34,1.94,4.37,4.37,0,0,1-3.39-1.76,5.82,5.82,0,0,1-1.39-3.94,7.39,7.39,0,0,1,1.9-4.88,5.28,5.28,0,0,1,4.09-2.12,4.74,4.74,0,0,1,3.63,2.27A7.09,7.09,0,0,1,267.74,116.86Z"/>
      <path class="cls-1" d="M43.53,104.79A5.8,5.8,0,0,1,41.38,109a6.23,6.23,0,0,1-4.34,2,4.37,4.37,0,0,1-3.38-1.76,5.91,5.91,0,0,1-1.4-4,7.43,7.43,0,0,1,1.91-4.87,5.25,5.25,0,0,1,4.09-2.12,4.76,4.76,0,0,1,3.63,2.27A7.07,7.07,0,0,1,43.53,104.79Z"/>
      <path class="cls-1" d="M198.56,26a5.84,5.84,0,0,1-2.15,4.19,6.23,6.23,0,0,1-4.34,1.95,4.37,4.37,0,0,1-3.38-1.76,5.91,5.91,0,0,1-1.4-3.95,7.38,7.38,0,0,1,1.91-4.87,5.25,5.25,0,0,1,4.08-2.12,4.76,4.76,0,0,1,3.64,2.27A7.07,7.07,0,0,1,198.56,26Z"/>
      <path class="cls-1" d="M126,21.8A5.84,5.84,0,0,1,123.87,26a6.23,6.23,0,0,1-4.34,2,4.36,4.36,0,0,1-3.38-1.76,5.86,5.86,0,0,1-1.4-3.95,7.42,7.42,0,0,1,1.91-4.88,5.27,5.27,0,0,1,4.08-2.11,4.76,4.76,0,0,1,3.64,2.27A7.11,7.11,0,0,1,126,21.8Z"/>
      <path class="cls-1" d="M168.36,209.48l8.54,11.85a20.45,20.45,0,0,0,12.15,8l21.85,4.89a20.48,20.48,0,0,1,11,33.41l-8.73,10.06a20.48,20.48,0,0,1-15.77,7.05l-89.67-1.31c-6-.09-15.21-2.89-19-7.56l-8.43-10.31a20.47,20.47,0,0,1,12-33.07l22-4.25a20.48,20.48,0,0,0,12.38-7.66l8.88-11.6A20.47,20.47,0,0,1,168.36,209.48Z"/>
    </g>
  </g>
</svg>
