<svg xmlns="http://www.w3.org/2000/svg" width="200" height="400" viewBox="0 0 200 400">
  <defs>
    <style>
      .cls-1 {
        fill: #DECA54;
      }
    </style>
  </defs>
  <title>animation</title>
  <g id="SVGs">
    <path id="raccoon_foot" data-name="raccoon foot" class="cls-1" d="M182.32,108.79l-34.73,64.42s-7.23-17.44,0-58.63c10-56.69-7.28-85.8-7.28-85.8s-4.19,70.26-27.92,93L95.76,11.68,79.91,117.16C59.74,90.54,56.23,27.22,56.23,27.22S41.1,40.27,46.46,91c3.94,37.25.08,46.34.08,46.34L19.93,74s-6.41,19.92-.28,57.07c3.83,23.21,18,40.61,19.39,96.38,1.11,44.15,6.2,75.27,18.21,113.7,10.18,32.62,28.86,47.19,40.86,47.19s30.68-14.57,40.86-47.19c12-38.43,7-71,18.2-113.7,7.55-28.74,15.82-58.1,22-80.8C185.19,124.58,182.32,108.79,182.32,108.79Z"/>
  </g>
</svg>
