<svg xmlns="http://www.w3.org/2000/svg" width="300" height="300" viewBox="0 0 300 300">
  <defs>
    <style>
      .cls-1 {
        fill: #DECA54;
      }
    </style>
  </defs>
  <title>animation</title>
  <g id="SVGs">
    <path id="raccoon" class="cls-1" d="M257.57,128.29l-47.42,60.3s-9.8-21.83,6.41-60c26.11-61.42,8.82-87.5,8.82-87.5s-19.9,74.47-50.08,100.49L159.8,7.6,135.22,139.74C105.05,110.47,84,31.26,84,31.26s-14.09,32,7.31,91.33c10,29-4.77,38-4.77,38L42.87,94.51s-4.52,27.32,10.7,53.93c20.65,36.13,16.59,59.86,27.92,98.7,13.55,46.39,67.31,43.14,74.67,42.47,6.63.18,37.68-2.13,71.47-56.2C262,178.44,257.57,128.29,257.57,128.29Z"/>
  </g>
</svg>
